<?xml version="1.0" encoding="UTF-8" standalone="no"?>
<svg
   xmlns:dc="http://purl.org/dc/elements/1.1/"
   xmlns:cc="http://creativecommons.org/ns#"
   xmlns:rdf="http://www.w3.org/1999/02/22-rdf-syntax-ns#"
   xmlns:svg="http://www.w3.org/2000/svg"
   xmlns="http://www.w3.org/2000/svg"
   viewBox="0 0 300 70"
   height="70"
   width="300"
   id="svg2"
   version="1.1">
  <metadata
     id="metadata8">
    <rdf:RDF>
      <cc:Work
         rdf:about="">
        <dc:format>image/svg+xml</dc:format>
        <dc:type
           rdf:resource="http://purl.org/dc/dcmitype/StillImage" />
        <dc:title></dc:title>
      </cc:Work>
    </rdf:RDF>
  </metadata>
  <defs
     id="defs6" />
  <g
     id="g10">
    <path
       id="path14"
       d="m 48.790324,57.178706 c 1.047744,-1.225149 10.861218,-11.553788 21.807718,-22.952532 14.159,-14.743953 21.01886,-21.171572 23.77024,-22.272456 2.432191,-0.97317 7.031338,-1.547468 12.392578,-1.547468 h 8.52508 l -0.56772,3.25 c -0.57369,3.284219 -6.52291,44.662631 -6.52291,45.368577 0,0.209782 -2.72039,0.381423 -6.04531,0.381423 h -6.045318 l 0.56615,-3.25 c 1.43867,-8.258849 5.380018,-37.227792 5.102718,-37.505089 -0.17108,-0.171081 -9.208308,8.928827 -20.082738,20.222017 l -19.7717,20.533072 h -7.516886 -7.516889 z m 20.571658,1.270646 c 0.42611,-1.223239 25.05993,-26.149833 25.453621,-25.756141 0.26624,0.266237 -1.76208,15.359782 -3.15304,23.463039 l -0.557881,3.25 H 80.066663 c -6.59278,0 -10.90378,-0.385362 -10.704681,-0.956898 z m 44.290448,-2.238918 c 0.31245,-1.817301 1.45197,-9.742763 2.53228,-17.612137 1.08031,-7.869374 2.2262,-14.731874 2.54642,-15.25 0.58221,-0.942038 8.72207,-1.350828 9.59122,-0.481678 0.2532,0.253203 -0.6843,8.465703 -2.08334,18.25 l -2.5437,17.789631 -5.30548,0.304184 -5.30548,0.304183 z m 15.51707,1.945816 c -0.0142,-0.6875 0.7568,-7.2125 1.71334,-14.5 l 1.73915,-13.25 h 5.33197 5.33198 l -0.5262,3.25 c -0.67544,4.171706 -3.56443,24.661557 -3.56443,25.280274 0,0.258349 -2.25,0.469726 -5,0.469726 -3.31957,0 -5.00868,-0.420108 -5.02581,-1.25 z m 17.59724,-0.321429 c -0.86429,-0.864285 -1.56297,-2.776785 -1.55262,-4.25 0.0279,-3.980687 3.72423,-28.953791 4.4622,-30.147852 0.35037,-0.566895 2.63547,-1.030719 5.07801,-1.030719 h 4.44098 v 4 4 h 4.55654 4.55653 l -1.77214,3 c -1.45307,2.459852 -2.42793,3 -5.41439,3 h -3.64223 l -0.93631,8.039186 c -0.51496,4.421552 -0.72893,8.246552 -0.47548,8.5 0.25345,0.253447 1.73581,0.460814 3.29415,0.460814 3.0114,0 3.14642,0.229822 2.20304,3.75 -0.54455,2.032002 -1.21452,2.25 -6.91491,2.25 -4.4048,0 -6.78675,-0.474805 -7.88337,-1.571429 z m 23.42857,0.87846 c -5.77672,-2.187477 -6.84784,-9.207384 -2.19881,-14.410549 2.52829,-2.829652 3.50249,-3.18525 10,-3.650144 6.17526,-0.441838 7.19881,-0.780334 7.19881,-2.380705 0,-1.665374 -0.85873,-1.865633 -8,-1.865633 -4.4,0 -8,-0.240832 -8,-0.535183 0,-0.294351 0.72675,-1.644351 1.61501,-3 1.52203,-2.322906 2.14254,-2.464817 10.77749,-2.464817 11.91651,0 13.63765,1.056582 13.53136,8.306704 -0.0419,2.856313 -0.618,8.568296 -1.28027,12.693296 l -1.20414,7.5 -10.46973,0.187519 c -5.75834,0.103135 -11.14472,-0.06808 -11.96972,-0.380488 z m 13,-7.225244 c 0,-1.055016 0.27314,-2.630016 0.60699,-3.5 0.47489,-1.237554 -0.0835,-1.581787 -2.56574,-1.581787 -4.1166,0 -7.04125,1.606826 -7.04125,3.868517 0,2.602868 0.87217,3.131483 5.16667,3.131483 3.11218,0 3.83333,-0.360865 3.83333,-1.918213 z m 14.63328,4.668213 c 0.27914,-1.7875 1.48835,-10 2.68713,-18.25 l 2.17959,-15 h 5 c 3.84713,0 4.96402,0.345861 4.84396,1.5 -0.0858,0.825 -1.18678,9.0375 -2.44657,18.25 l -2.29053,16.75 h -5.24056 -5.24056 z m 15.36672,1.924069 c 0,-1.866729 2.87977,-22.703406 3.51378,-25.424069 0.45721,-1.962008 1.16187,-2.25 5.50527,-2.25 2.73952,0 4.98095,0.279748 4.98095,0.621662 0,0.76469 -2.81164,20.651729 -3.55265,25.128338 -0.52258,3.156984 -0.67978,3.25 -5.49266,3.25 -3.44841,0 -4.95469,-0.403097 -4.95469,-1.325931 z M 231.06808,57.8986 c -3.03896,-1.651298 -4.0389,-5.306787 -2.73924,-10.0138 1.23204,-4.46207 4.84751,-6.54258 12.72316,-7.321506 4.94648,-0.489222 6.64331,-1.040173 6.64331,-2.157044 0,-1.179177 -1.65758,-1.562467 -7.75,-1.792064 -7.94984,-0.299596 -8.63339,-0.742294 -7.14301,-4.626149 0.49657,-1.29405 2.39644,-1.581787 10.44424,-1.581787 8.8987,0 10.09929,0.225402 12.58384,2.362526 l 2.7466,2.362525 -1.26471,9.887475 c -2.03851,15.937041 -0.64289,14.393836 -12.97537,14.347436 -7.259,-0.02731 -11.47669,-0.493813 -13.26882,-1.467612 z m 15.12723,-8.052715 c 0,-3.486672 -0.0755,-3.553942 -3.64872,-3.25 -7.04111,0.598926 -7.39012,6.810365 -0.38266,6.810365 3.95364,0 4.03138,-0.06865 4.03138,-3.560365 z M 133.21062,26.15625 c 0.0352,-2.875254 1.74224,-3.875497 6.0838,-3.564871 3.68708,0.2638 4.45272,0.679812 4.72044,2.564871 0.29857,2.102262 -0.0461,2.25 -5.25,2.25 -3.79714,0 -5.56468,-0.39779 -5.55424,-1.25 z m 83.98469,0.331787 c 0,-3.145478 1.40086,-4.081787 6.10699,-4.081787 4.55254,0 4.89301,0.173955 4.89301,2.5 0,2.363636 -0.3,2.5 -5.5,2.5 -3.025,0 -5.5,-0.413196 -5.5,-0.918213 z"
       style="fill:#000000" />
  </g>
</svg>
