<?xml version="1.0" encoding="UTF-8" standalone="no"?>
<!-- Created with Inkscape (http://www.inkscape.org/) -->

<svg
   xmlns:dc="http://purl.org/dc/elements/1.1/"
   xmlns:cc="http://creativecommons.org/ns#"
   xmlns:rdf="http://www.w3.org/1999/02/22-rdf-syntax-ns#"
   xmlns:svg="http://www.w3.org/2000/svg"
   xmlns="http://www.w3.org/2000/svg"
   xmlns:sodipodi="http://sodipodi.sourceforge.net/DTD/sodipodi-0.dtd"
   xmlns:inkscape="http://www.inkscape.org/namespaces/inkscape"
   width="2.566046cm"
   height="1.1272262cm"
   viewBox="0 0 25.66046 11.272262"
   version="1.1"
   id="svg8"
   inkscape:version="0.92.3 (2405546, 2018-03-11)"
   sodipodi:docname="PrintGreen3D.svg">
  <defs
     id="defs2" />
  <sodipodi:namedview
     id="base"
     pagecolor="#ffffff"
     bordercolor="#666666"
     borderopacity="1.0"
     inkscape:pageopacity="0.0"
     inkscape:pageshadow="2"
     inkscape:zoom="1"
     inkscape:cx="105.91448"
     inkscape:cy="67.247083"
     inkscape:document-units="mm"
     inkscape:current-layer="layer1"
     showgrid="false"
     units="cm"
     inkscape:window-width="1366"
     inkscape:window-height="717"
     inkscape:window-x="0"
     inkscape:window-y="27"
     inkscape:window-maximized="1"
     fit-margin-top="0"
     fit-margin-left="0"
     fit-margin-right="0"
     fit-margin-bottom="0" />
  <metadata
     id="metadata5">
    <rdf:RDF>
      <cc:Work
         rdf:about="">
        <dc:format>image/svg+xml</dc:format>
        <dc:type
           rdf:resource="http://purl.org/dc/dcmitype/StillImage" />
        <dc:title></dc:title>
      </cc:Work>
    </rdf:RDF>
  </metadata>
  <g
     inkscape:label="Camada 1"
     inkscape:groupmode="layer"
     id="layer1"
     transform="translate(-338.77642,-28.907127)">
    <path
       style="fill:#2e9d48;stroke-width:0.019555"
       d="m 342.23141,40.157273 c -1.49567,-0.174706 -2.78312,-1.235822 -3.24906,-2.677866 -0.097,-0.300127 -0.15693,-0.584655 -0.18603,-0.882755 -0.0128,-0.131497 -0.0199,-1.533903 -0.0199,-3.945118 v -3.741097 h 3.62687 c 2.33681,0 3.71523,0.0073 3.87528,0.02047 0.332,0.02736 0.60674,0.08333 0.91579,0.186547 1.43564,0.479491 2.48295,1.789843 2.64523,3.309604 0.0141,0.132951 0.0225,1.425304 0.0254,3.974669 l 0.005,3.777662 -3.74615,-0.0026 c -2.06039,-0.0015 -3.81167,-0.01021 -3.89174,-0.01957 z M 341.313,37.024258 c 0.0848,-0.07142 0.0837,-0.04272 0.0837,-2.273821 v -2.120458 l 0.0659,-0.06698 0.0661,-0.06698 h 2.78796 c 2.59412,0 2.79149,0.0023 2.83847,0.03358 0.0938,0.06242 0.10339,0.121693 0.10339,0.640547 -3e-5,0.539873 -0.01,0.586846 -0.13584,0.650734 -0.0634,0.03215 -0.20701,0.03445 -2.15732,0.03448 l -2.08939,3.8e-5 -0.0588,0.05573 c -0.11162,0.105781 -0.0975,0.28782 0.0287,0.371798 0.0503,0.03348 0.16903,0.03573 2.14862,0.04071 2.32719,0.0059 2.23276,0.01067 2.43367,-0.124295 0.12419,-0.08343 0.2256,-0.232918 0.26622,-0.392417 0.043,-0.168711 0.0431,-1.112742 1.2e-4,-1.282135 -0.0554,-0.218769 -0.20978,-0.390333 -0.42638,-0.473967 -0.0938,-0.03621 -0.19302,-0.03747 -2.95035,-0.03747 h -2.85327 l -0.11064,0.04538 c -0.15529,0.06369 -0.28794,0.19105 -0.35694,0.342713 l -0.0565,0.124126 -0.005,2.199774 -0.005,2.199774 0.0503,0.06077 c 0.0795,0.09582 0.24165,0.114561 0.33216,0.03838 z m 5.98867,-0.0104 c 0.13662,-0.06406 0.27817,-0.209105 0.35052,-0.35918 l 0.0626,-0.129812 0.006,-0.556603 c 0.005,-0.459067 4.9e-4,-0.578176 -0.0249,-0.679685 -0.0412,-0.164328 -0.14151,-0.313509 -0.26743,-0.397973 -0.1989,-0.133424 -0.13399,-0.129588 -2.15926,-0.127568 -1.04805,0.0011 -1.87702,0.0098 -1.94787,0.0206 -0.16727,0.02549 -0.28803,0.09204 -0.40725,0.224444 -0.34178,0.379572 -0.15845,0.99232 0.3357,1.121955 0.0998,0.02619 0.33649,0.0302 1.7275,0.02924 1.19648,-8.45e-4 1.62886,-0.0072 1.67794,-0.02463 0.0976,-0.03474 0.14769,-0.114527 0.14594,-0.232867 -10e-4,-0.07909 -0.0111,-0.10831 -0.0538,-0.151202 l -0.0523,-0.05316 -1.67455,-0.0098 c -1.57121,-0.0092 -1.67785,-0.01205 -1.72794,-0.04536 -0.1344,-0.08941 -0.1126,-0.316568 0.0364,-0.379767 0.0555,-0.02353 0.3583,-0.02799 1.89604,-0.02797 1.70339,2.2e-5 1.83473,0.0024 1.89796,0.03448 0.12681,0.06429 0.13581,0.108777 0.13585,0.67078 2e-5,0.40703 -0.005,0.509026 -0.0295,0.556219 -0.0635,0.124586 0.0823,0.117564 -2.43953,0.11753 -2.1472,-1.9e-5 -2.30061,-0.0023 -2.36414,-0.03448 -0.14147,-0.07173 -0.13582,-0.0059 -0.13577,-1.580973 3e-5,-1.360068 0.001,-1.410781 0.0378,-1.471389 0.0208,-0.03452 0.0578,-0.07442 0.0824,-0.08866 0.0358,-0.02077 0.46374,-0.02783 2.16686,-0.03573 l 2.12215,-0.0098 0.0566,-0.06434 c 0.10573,-0.120094 0.067,-0.317454 -0.0739,-0.376688 -0.0401,-0.01688 -0.60895,-0.02141 -2.19885,-0.01743 l -2.14465,0.0053 -0.10769,0.05124 c -0.0592,0.02819 -0.13861,0.07885 -0.17648,0.112587 -0.0937,0.08348 -0.18414,0.262975 -0.21038,0.417447 -0.0151,0.08875 -0.02,0.568596 -0.016,1.566128 l 0.006,1.43817 0.0468,0.118061 c 0.0623,0.156809 0.22422,0.323024 0.37071,0.380312 l 0.10658,0.04167 2.42626,-0.0041 2.42626,-0.0041 z m 4.199,3.144741 c -0.32457,-0.05109 -0.57385,-0.217015 -0.68845,-0.458236 -0.0942,-0.198203 -0.097,-0.192109 0.11493,-0.243363 0.10143,-0.02452 0.19363,-0.04489 0.20491,-0.04526 0.011,-4.23e-4 0.0355,0.03388 0.0539,0.07611 0.11591,0.266801 0.4955,0.37808 0.77114,0.226098 0.37837,-0.208622 0.29875,-0.903205 -0.11579,-1.010621 -0.0384,-0.01 -0.13313,-0.02412 -0.21052,-0.03149 l -0.14072,-0.01342 v -0.185161 -0.18516 h 0.11297 c 0.33597,0 0.52828,-0.193522 0.52717,-0.530511 -4.9e-4,-0.132458 -0.044,-0.265529 -0.11223,-0.343694 -0.0181,-0.02069 -0.0766,-0.05844 -0.12995,-0.08389 -0.10744,-0.05123 -0.27533,-0.06183 -0.40414,-0.02553 -0.0969,0.0273 -0.21261,0.13502 -0.26374,0.245418 -0.0225,0.04844 -0.0489,0.08808 -0.0587,0.08808 -0.01,0 -0.0971,-0.01853 -0.19399,-0.04117 -0.20498,-0.0479 -0.2104,-0.05822 -0.12383,-0.235703 0.29598,-0.606797 1.34216,-0.629658 1.63457,-0.03572 0.0762,0.154803 0.10597,0.310116 0.0931,0.484778 -0.0145,0.194731 -0.0802,0.333574 -0.22686,0.479235 -0.0642,0.06376 -0.11678,0.128621 -0.11678,0.144128 0,0.01551 0.0432,0.0597 0.096,0.0982 0.33394,0.243503 0.41926,0.829058 0.17672,1.212703 -0.19709,0.311731 -0.59725,0.477517 -0.99969,0.41417 z m 1.89156,-1.622742 v -1.587421 h 0.67625 c 0.61023,0 0.6909,0.0038 0.82638,0.03897 0.45594,0.118356 0.69964,0.447788 0.74888,1.012308 0.0251,0.286435 0.0247,0.794045 -7.3e-4,1.065326 -0.0512,0.547696 -0.27383,0.860378 -0.71742,1.007446 -0.0928,0.03078 -0.19981,0.0364 -0.82007,0.04309 l -0.71333,0.0077 v -1.587421 z m 1.26871,1.141383 c 0.21937,-0.04717 0.33791,-0.134821 0.42664,-0.315436 0.0782,-0.159193 0.0956,-0.312335 0.0954,-0.837288 -2.4e-4,-0.667367 -0.0411,-0.839011 -0.24054,-1.012285 -0.14045,-0.122021 -0.22628,-0.140093 -0.66574,-0.140161 l -0.38691,-6.3e-5 -0.0165,0.06433 c -0.009,0.03538 -0.014,0.552119 -0.0111,1.14831 0.005,0.937983 0.01,1.086493 0.0346,1.102649 0.0468,0.02997 0.61252,0.02253 0.76404,-0.01006 z m -3.05444,-3.546327 c -0.3222,-0.0737 -0.57494,-0.272814 -0.71668,-0.564585 -0.13229,-0.27233 -0.14571,-0.370596 -0.14495,-1.06082 4.9e-4,-0.548763 0.004,-0.613895 0.0415,-0.750956 0.12335,-0.453418 0.39714,-0.737167 0.80568,-0.834932 0.27685,-0.06626 0.68978,-0.0234 0.92116,0.0956 0.19949,0.102604 0.38909,0.29626 0.46094,0.470795 l 0.0281,0.06832 -0.19555,0.08475 c -0.17231,0.07468 -0.19763,0.08097 -0.21308,0.05295 -0.0941,-0.170645 -0.26225,-0.308918 -0.43921,-0.36113 -0.14751,-0.04353 -0.42695,-0.03022 -0.55083,0.02625 -0.11849,0.05404 -0.24209,0.181693 -0.29994,0.309914 -0.0727,0.161078 -0.0899,0.366422 -0.0809,0.961123 0.01,0.643326 0.0275,0.72782 0.18965,0.907936 0.1418,0.157473 0.24793,0.199573 0.50461,0.200182 0.18315,4.22e-4 0.21562,-0.0051 0.32027,-0.05471 0.23637,-0.112021 0.34316,-0.284006 0.37901,-0.610474 0.0306,-0.278241 0.0421,-0.26785 -0.30663,-0.274498 l -0.2859,-0.0055 -0.006,-0.192084 -0.006,-0.192085 h 0.53694 0.53692 l -0.01,0.398944 c -0.007,0.282165 -0.0194,0.433127 -0.0419,0.515715 -0.10744,0.393667 -0.36597,0.668432 -0.74564,0.792414 -0.1316,0.04298 -0.52567,0.0527 -0.68245,0.01684 z m 2.19334,-1.617032 v -1.587406 l 0.72303,0.0077 c 0.62987,0.0067 0.73678,0.01224 0.82978,0.04308 0.17859,0.05924 0.29336,0.128615 0.41198,0.249006 0.42093,0.427245 0.3053,1.17462 -0.22346,1.444168 -0.0861,0.0439 -0.11088,0.06654 -0.11088,0.101367 0,0.02466 0.13922,0.318379 0.3094,0.652707 0.17016,0.334328 0.31521,0.623384 0.32233,0.642346 0.0123,0.03178 -0.007,0.03446 -0.2463,0.0342 l -0.25926,-2.12e-4 -0.32027,-0.654778 -0.32026,-0.654776 -0.28661,-0.0055 c -0.17571,-0.0033 -0.30151,0.0026 -0.32512,0.01547 -0.0372,0.0202 -0.0385,0.04276 -0.0385,0.660511 v 0.639588 h -0.23292 -0.23292 z m 1.43347,-0.176788 c 0.35417,-0.10675 0.44736,-0.610055 0.15931,-0.860312 -0.0429,-0.03719 -0.11075,-0.07909 -0.15109,-0.09311 -0.10069,-0.03502 -0.87681,-0.05353 -0.93433,-0.02227 -0.0407,0.02208 -0.0415,0.03238 -0.0415,0.501243 0,0.263285 0.006,0.484607 0.0129,0.491832 0.007,0.0072 0.20206,0.01315 0.4332,0.01315 0.32291,0 0.44371,-0.0071 0.52149,-0.03051 z m 1.49746,0.178265 v -1.585927 h 1.00932 1.00933 v 0.206862 0.206859 h -0.73886 c -0.4722,0 -0.75241,0.0074 -0.7764,0.02039 -0.0354,0.01923 -0.0376,0.04556 -0.0376,0.462281 0,0.416717 0.002,0.443046 0.0376,0.462278 0.0236,0.01285 0.26803,0.02039 0.65993,0.02039 h 0.62241 v 0.206597 0.206599 l -0.65509,0.0052 -0.6551,0.0052 v 0.472821 0.472824 l 0.77155,0.0052 0.77156,0.0052 v 0.206633 0.206635 h -1.00933 -1.00932 z m 2.698,0 v -1.585927 h 1.00933 1.00932 v 0.206862 0.206859 h -0.73885 c -0.4722,0 -0.75242,0.0074 -0.77641,0.02039 -0.0354,0.01923 -0.0376,0.04556 -0.0376,0.462281 0,0.416717 0.002,0.443046 0.0376,0.462278 0.0236,0.01285 0.26802,0.02039 0.65994,0.02039 h 0.6224 v 0.206597 0.206599 l -0.65508,0.0052 -0.6551,0.0052 v 0.472821 0.472824 l 0.77155,0.0052 0.77155,0.0052 v 0.206633 0.206635 h -1.00932 -1.00933 z m 2.69801,-6.34e-4 v -1.586552 l 0.22798,0.0056 0.228,0.0056 0.66456,1.142654 c 0.56751,0.975774 0.671,1.142657 0.70855,1.142657 h 0.044 l 0.005,-1.148246 0.005,-1.148247 0.20851,0.0056 0.2085,0.0056 0.005,1.581609 0.005,1.58161 -0.23626,-0.0055 -0.23626,-0.0055 -0.66224,-1.132805 c -0.59002,-1.009281 -0.66746,-1.132807 -0.71009,-1.132807 h -0.0479 l -0.005,1.137731 -0.005,1.137731 h -0.20364 -0.20365 v -1.586552 z m -11.38019,-2.425259 c -0.007,-0.0076 -0.0135,-0.725931 -0.0135,-1.596386 v -1.582642 l 0.63568,6.77e-4 c 0.45409,5.28e-4 0.67886,0.0085 0.78683,0.02804 0.48981,0.08862 0.79403,0.451325 0.7939,0.946474 -2.5e-4,0.375857 -0.16686,0.67198 -0.47105,0.836543 -0.21286,0.115154 -0.25963,0.123262 -0.76927,0.133362 -0.33903,0.0067 -0.47549,0.01608 -0.4898,0.03359 -0.0123,0.01502 -0.0219,0.248904 -0.0251,0.613644 l -0.005,0.589369 -0.21453,0.0055 c -0.118,0.003 -0.22062,-6.34e-4 -0.22807,-0.0082 z m 1.40588,-1.692157 c 0.21438,-0.07414 0.3271,-0.25048 0.3271,-0.511676 0,-0.191418 -0.0529,-0.324991 -0.16633,-0.419887 -0.13338,-0.111579 -0.22354,-0.12948 -0.65822,-0.130673 -0.2135,-5.92e-4 -0.40348,0.0053 -0.42217,0.01309 -0.0312,0.01298 -0.034,0.05742 -0.034,0.533568 0,0.285675 0.006,0.52532 0.0129,0.532544 0.007,0.0072 0.20209,0.01313 0.43327,0.01313 0.32612,0 0.43984,-0.0067 0.50737,-0.0301 z m 1.428,1.692157 c -0.007,-0.0076 -0.0135,-0.726675 -0.0135,-1.598039 v -1.584299 l 0.72302,0.0078 c 0.67848,0.0073 0.7309,0.01046 0.8506,0.05062 0.34979,0.117347 0.58474,0.389851 0.63925,0.741452 0.0592,0.3815 -0.14029,0.782046 -0.47082,0.945602 -0.0858,0.04248 -0.11161,0.06529 -0.11161,0.09882 0,0.02398 0.14807,0.335442 0.32904,0.692149 l 0.32905,0.648555 -0.22715,0.0057 c -0.12493,0.0031 -0.24461,0.0013 -0.26596,-0.0044 -0.0286,-0.0074 -0.12034,-0.179328 -0.34858,-0.652963 -0.24198,-0.502212 -0.31977,-0.646752 -0.3555,-0.66054 -0.0528,-0.02038 -0.49507,-0.0204 -0.56727,-3.6e-5 l -0.0485,0.01369 -0.01,0.649255 -0.01,0.649254 -0.21453,0.0055 c -0.118,0.003 -0.22063,-6.34e-4 -0.22807,-0.0082 z m 1.48104,-1.787436 c 0.1844,-0.09969 0.26027,-0.232558 0.26027,-0.455799 0,-0.236803 -0.0839,-0.371773 -0.2894,-0.465897 -0.0907,-0.04157 -0.124,-0.0445 -0.51437,-0.04538 -0.22951,-5.29e-4 -0.4326,0.0054 -0.45128,0.01321 -0.0311,0.01294 -0.034,0.05554 -0.034,0.494166 0,0.264004 0.006,0.486473 0.0141,0.494373 0.007,0.0079 0.22397,0.0116 0.48041,0.0082 0.41036,-0.0054 0.47439,-0.01056 0.53418,-0.04288 z m 1.44987,1.787436 c -0.007,-0.0076 -0.0135,-0.725931 -0.0135,-1.596386 v -1.582642 h 0.23303 0.23304 l -0.005,1.590854 -0.005,1.590853 -0.21453,0.0055 c -0.118,0.003 -0.22063,-6.34e-4 -0.22807,-0.0082 z m 1.26171,3.8e-5 c -0.007,-0.0076 -0.0136,-0.725973 -0.0136,-1.596427 v -1.582645 h 0.22021 c 0.1855,0 0.22487,0.0054 0.24985,0.03448 0.0163,0.01896 0.30723,0.51321 0.64652,1.098329 0.3393,0.585118 0.63361,1.088232 0.65404,1.11803 0.041,0.05981 0.10155,0.07142 0.11985,0.02302 0.006,-0.01714 0.0123,-0.535768 0.0123,-1.152506 v -1.121345 h 0.20391 0.20392 l -0.005,1.590853 -0.005,1.590852 -0.20413,0.0055 c -0.14407,0.0039 -0.21317,-0.0019 -0.23495,-0.01969 -0.0169,-0.01388 -0.31727,-0.517278 -0.66735,-1.11865 -0.35008,-0.601372 -0.64997,-1.109246 -0.66642,-1.12861 -0.0165,-0.01936 -0.0436,-0.03254 -0.0602,-0.02929 -0.0269,0.0053 -0.0314,0.133565 -0.04,1.148311 l -0.01,1.142389 -0.19508,0.0056 c -0.10732,0.0031 -0.20119,-6.34e-4 -0.20866,-0.0082 z m 3.78493,-3.8e-5 c -0.007,-0.0076 -0.0136,-0.617331 -0.0139,-1.355049 -2.4e-4,-0.809549 -0.007,-1.353024 -0.0187,-1.37086 -0.0152,-0.02456 -0.0939,-0.03061 -0.46621,-0.03581 l -0.44783,-0.0063 0.005,-0.200597 0.005,-0.200597 1.15005,-0.0051 1.15004,-0.0051 v 0.207016 0.207016 l -0.40276,0.002 c -0.22151,0.0011 -0.42459,0.0081 -0.45129,0.01566 l -0.0485,0.0137 -0.01,1.368333 -0.01,1.368331 -0.21452,0.0055 c -0.118,0.003 -0.22063,-6.34e-4 -0.22807,-0.0082 z"
       id="path3356"
       inkscape:connector-curvature="0" />
  </g>
</svg>
