<?xml version="1.0" encoding="UTF-8" standalone="no"?>
<svg
   xmlns:dc="http://purl.org/dc/elements/1.1/"
   xmlns:cc="http://creativecommons.org/ns#"
   xmlns:rdf="http://www.w3.org/1999/02/22-rdf-syntax-ns#"
   xmlns:svg="http://www.w3.org/2000/svg"
   xmlns="http://www.w3.org/2000/svg"
   xmlns:sodipodi="http://sodipodi.sourceforge.net/DTD/sodipodi-0.dtd"
   xmlns:inkscape="http://www.inkscape.org/namespaces/inkscape"
   inkscape:version="1.0 (4035a4fb49, 2020-05-01)"
   sodipodi:docname="co2.svg"
   version="1.1"
   width="43"
   viewBox="0 0 5.375 5.625"
   height="45"
   enable-background="new 0 0 64 64"
   id="Layer_5">
  <metadata
     id="metadata21">
    <rdf:RDF>
      <cc:Work
         rdf:about="">
        <dc:format>image/svg+xml</dc:format>
        <dc:type
           rdf:resource="http://purl.org/dc/dcmitype/StillImage" />
        <dc:title></dc:title>
      </cc:Work>
    </rdf:RDF>
  </metadata>
  <defs
     id="defs19" />
  <sodipodi:namedview
     inkscape:current-layer="Layer_5"
     inkscape:window-maximized="1"
     inkscape:window-y="0"
     inkscape:window-x="0"
     inkscape:cy="248"
     inkscape:cx="248"
     inkscape:zoom="0.94140625"
     fit-margin-bottom="0"
     fit-margin-right="0"
     fit-margin-left="0"
     fit-margin-top="0"
     showgrid="false"
     id="namedview17"
     inkscape:window-height="704"
     inkscape:window-width="1366"
     inkscape:pageshadow="2"
     inkscape:pageopacity="0"
     guidetolerance="10"
     gridtolerance="10"
     objecttolerance="10"
     borderopacity="1"
     bordercolor="#666666"
     pagecolor="#ffffff" />
  <g
     style="fill:#ffffff"
     transform="matrix(0.08669355,0,0,0.09072581,-0.08669355,-0.09072581)"
     id="g14">
    <path
       style="fill:#ffffff"
       id="path2"
       d="m 24,23 c 2.206,0 4,-1.794 4,-4 h -2 c 0,1.103 -0.897,2 -2,2 -1.103,0 -2,-0.897 -2,-2 v -4 c 0,-1.103 0.897,-2 2,-2 1.103,0 2,0.897 2,2 h 2 c 0,-2.206 -1.794,-4 -4,-4 -2.206,0 -4,1.794 -4,4 v 4 c 0,2.206 1.794,4 4,4 z" />
    <path
       style="fill:#ffffff"
       id="path4"
       d="m 34,23 c 2.206,0 4,-1.794 4,-4 v -4 c 0,-2.206 -1.794,-4 -4,-4 -2.206,0 -4,1.794 -4,4 v 4 c 0,2.206 1.794,4 4,4 z m -2,-8 c 0,-1.103 0.897,-2 2,-2 1.103,0 2,0.897 2,2 v 4 c 0,1.103 -0.897,2 -2,2 -1.103,0 -2,-0.897 -2,-2 z" />
    <path
       style="fill:#ffffff"
       id="path6"
       d="m 45,25 h -2.586 l 2.707,-2.707 C 45.688,21.727 46,20.973 46,20.171 V 20 c 0,-1.654 -1.346,-3 -3,-3 -1.654,0 -3,1.346 -3,3 v 1 h 2 v -1 c 0,-0.551 0.449,-1 1,-1 0.551,0 1,0.449 1,1 v 0.171 c 0,0.267 -0.104,0.519 -0.293,0.708 L 40,24.586 V 27 h 5 z" />
    <path
       style="fill:#ffffff"
       id="path8"
       d="M 60.002,60.061 C 56.73,54.606 55,48.36 55,42 v -1 h -5 v -3 c 0,-0.552 0.449,-1 1,-1 h 2.78 c 3.765,0 6.928,-2.839 7.2,-6.463 0.093,-1.241 -0.132,-2.446 -0.655,-3.54 C 61.978,25.898 63,24.037 63,22 63,20.124 62.109,18.373 60.625,17.247 61.031,16.061 61.109,14.796 60.848,13.543 60.309,10.961 58.311,8.873 55.757,8.222 54.552,7.915 53.314,7.929 52.137,8.255 51.16,7.2 49.875,6.465 48.476,6.161 47.308,3.093 44.321,1 41,1 37.998,1 35.319,2.638 33.941,5.244 32.666,4.92 31.335,4.92 30.059,5.244 28.681,2.638 26.002,1 23,1 19.637,1 16.695,3.073 15.53,6.149 15.024,6.05 14.513,6 14,6 9.902,6 6.513,9.098 6.053,13.075 3.193,13.53 1,16.014 1,19 c 0,2.968 2.167,5.439 5,5.917 -0.003,0.206 0.005,0.413 0.023,0.62 C 6.293,28.6 9.01,31 12.208,31 H 13 c 0.551,0 1,0.449 1,1 v 5 H 9 v 3.59 C 9,45.37 8.045,50.023 6.162,54.418 L 3.341,61 H 1 v 2 H 63 V 61 H 60.566 Z M 58.238,61 H 34.659 L 33.368,57.988 C 35.019,54.527 36.136,50.803 36.657,47 h 16.698 c 0.672,4.931 2.317,9.697 4.883,14 z M 24,37 v -3 c 0,-0.552 0.449,-1 1,-1 h 4.695 c 1.15,2.413 3.59,4 6.305,4 h 3 c 0.551,0 1,0.448 1,1 v 3 h -5 v 1 c 0,4.609 -0.933,9.228 -2.703,13.49 L 31.838,54.418 C 29.955,50.022 29,45.37 29,40.59 V 37 Z m 3.271,8 H 10.729 c 0.079,-0.664 0.141,-1.33 0.184,-2 h 16.173 c 0.044,0.67 0.106,1.336 0.185,2 z m 25.861,0 H 36.877 c 0.055,-0.666 0.091,-1.333 0.11,-2 h 16.027 c 0.018,0.669 0.064,1.335 0.118,2 z M 13,29 H 12.208 C 10.037,29 8.196,27.401 8.016,25.362 7.982,24.967 8.004,24.573 8.082,24.191 L 8.332,22.973 7.089,22.99 C 7.026,22.991 6.965,22.997 7,23 4.794,23 3,21.206 3,19 3,16.794 4.794,15 7,15 h 1 v -1 c 0,-3.309 2.691,-6 6,-6 0.636,0 1.271,0.104 1.887,0.308 L 16.919,8.65 17.173,7.593 C 17.825,4.889 20.221,3 23,3 c 2.488,0 4.681,1.501 5.586,3.825 l 0.36,0.924 0.927,-0.353 c 1.385,-0.525 2.869,-0.525 4.254,0 l 0.927,0.353 0.36,-0.924 C 36.319,4.501 38.512,3 41,3 c 2.651,0 5.019,1.779 5.758,4.326 L 46.943,7.961 47.6,8.04 c 1.346,0.162 2.588,0.882 3.406,1.978 l 0.457,0.612 0.71,-0.28 c 0.999,-0.394 2.039,-0.457 3.091,-0.189 1.792,0.456 3.249,1.979 3.626,3.791 0.231,1.109 0.092,2.229 -0.403,3.241 l -0.42,0.858 0.838,0.459 C 60.198,19.216 61,20.554 61,22 c 0,1.611 -0.959,3.058 -2.443,3.686 l -1.129,0.478 0.694,1.01 c 0.651,0.948 0.95,2.059 0.863,3.214 C 58.791,32.974 56.504,35 53.78,35 H 51 c -1.654,0 -3,1.346 -3,3 v 3 h -6 v -3 c 0,-1.654 -1.346,-3 -3,-3 H 36 C 34.309,35 32.77,34.135 31.856,32.774 35.373,31.934 38,28.771 38,25 h -2 c 0,3.309 -2.691,6 -6,6 h -5 c -1.654,0 -3,1.346 -3,3 v 3 h -6 v -5 c 0,-1.654 -1.346,-3 -3,-3 z m -2,10 h 16 v 1.59 c 0,0.137 0.009,0.273 0.01,0.41 H 10.99 C 10.991,40.863 11,40.727 11,40.59 Z M 8,55.205 C 9.137,52.551 9.943,49.806 10.434,47 h 17.131 c 0.491,2.806 1.297,5.551 2.434,8.205 L 32.484,61 H 5.516 Z" />
    <path
       style="fill:#ffffff"
       id="path10"
       d="m 10,14 h 2 c 0,-1.103 0.897,-2 2,-2 v -2 c -2.206,0 -4,1.794 -4,4 z" />
    <path
       style="fill:#ffffff"
       id="path12"
       d="m 43,9 h 2 C 45,6.794 43.206,5 41,5 v 2 c 1.103,0 2,0.897 2,2 z" />
  </g>
</svg>
