<?xml version="1.0" encoding="UTF-8" standalone="no"?>
<!-- Created with Inkscape (http://www.inkscape.org/) -->

<svg
   xmlns:dc="http://purl.org/dc/elements/1.1/"
   xmlns:cc="http://creativecommons.org/ns#"
   xmlns:rdf="http://www.w3.org/1999/02/22-rdf-syntax-ns#"
   xmlns:svg="http://www.w3.org/2000/svg"
   xmlns="http://www.w3.org/2000/svg"
   xmlns:sodipodi="http://sodipodi.sourceforge.net/DTD/sodipodi-0.dtd"
   xmlns:inkscape="http://www.inkscape.org/namespaces/inkscape"
   width="11.683957mm"
   height="12.189687mm"
   viewBox="0 0 11.683957 12.189686"
   version="1.1"
   id="svg1810"
   sodipodi:docname="Fase4.svg"
   inkscape:version="0.92.3 (2405546, 2018-03-11)">
  <defs
     id="defs1804" />
  <sodipodi:namedview
     id="base"
     pagecolor="#ffffff"
     bordercolor="#666666"
     borderopacity="1.0"
     inkscape:pageopacity="0.0"
     inkscape:pageshadow="2"
     inkscape:zoom="5.6"
     inkscape:cx="15.234075"
     inkscape:cy="15.575028"
     inkscape:document-units="mm"
     inkscape:current-layer="layer1"
     showgrid="false"
     inkscape:window-width="1366"
     inkscape:window-height="717"
     inkscape:window-x="0"
     inkscape:window-y="27"
     inkscape:window-maximized="1"
     fit-margin-top="0"
     fit-margin-left="0"
     fit-margin-right="0"
     fit-margin-bottom="0" />
  <metadata
     id="metadata1807">
    <rdf:RDF>
      <cc:Work
         rdf:about="">
        <dc:format>image/svg+xml</dc:format>
        <dc:type
           rdf:resource="http://purl.org/dc/dcmitype/StillImage" />
        <dc:title></dc:title>
      </cc:Work>
    </rdf:RDF>
  </metadata>
  <g
     inkscape:label="Camada 1"
     inkscape:groupmode="layer"
     id="layer1"
     transform="translate(-77.328512,-139.14804)">
    <g
       id="g1054"
       transform="matrix(0.20857822,0,0,-0.19326276,83.437739,148.32321)"
       style="fill:#008000">
      <path
         d="m 0,0 -1.688,-2.369 0.701,1.917 -0.38,-0.174 -3.248,-4.561 -0.972,-2.656 -1.939,-2.722 -0.518,0.37 0.267,0.73 -1.506,1.073 -0.267,-0.731 -1.267,0.903 0.268,0.73 -1.506,1.073 -0.267,-0.731 -1.267,0.902 0.268,0.731 -0.403,0.287 c -0.339,0.241 -0.805,0.162 -1.047,-0.176 l -0.839,-1.179 -0.972,-2.656 -3.281,-4.606 0.971,2.656 -1.861,-2.613 -0.787,0.56 -0.267,-0.73 -1.267,0.902 0.268,0.73 -1.506,1.073 -0.267,-0.731 -1.267,0.903 0.268,0.73 -1.506,1.073 -0.268,-0.731 -1.188,0.847 3.077,4.319 -0.971,-2.657 3.901,5.476 0.971,2.657 3.281,4.606 -0.971,-2.657 3.899,5.473 0.971,2.657 1.747,2.452 0.592,-0.422 -0.267,-0.73 1.505,-1.072 0.268,0.73 1.266,-0.902 -0.267,-0.731 1.506,-1.073 0.267,0.731 1.267,-0.902 -0.267,-0.731 1.505,-1.072 0.267,0.73 1.267,-0.902 -0.157,-0.43 1.25,0.573 -9.566,6.814 c -0.163,0.116 -0.364,0.161 -0.56,0.129 -0.196,-0.033 -0.371,-0.143 -0.487,-0.305 L -29.151,-8.741 c -0.24,-0.338 -0.161,-0.806 0.176,-1.046 l 7.962,-5.672 c 0.128,-0.091 0.28,-0.139 0.436,-0.139 0.041,0 0.083,0.003 0.124,0.01 0.196,0.033 0.371,0.143 0.487,0.305 l 5.982,8.398 6.023,-4.29 c 0.161,-0.116 0.363,-0.161 0.559,-0.129 0.197,0.033 0.372,0.142 0.488,0.304 L 1.367,0.626 Z"
         style="fill:#008000;fill-opacity:1;fill-rule:nonzero;stroke:none"
         id="path1056"
         inkscape:connector-curvature="0" />
    </g>
    <g
       id="g1058"
       transform="matrix(0.20857822,0,0,-0.19326276,78.126774,149.2619)"
       style="fill:#008000">
      <path
         d="m 0,0 -3.077,-4.319 1.188,-0.847 0.267,0.731 0.65,1.778 z"
         style="fill:#008000;fill-opacity:1;fill-rule:nonzero;stroke:none"
         id="path1060"
         inkscape:connector-curvature="0" />
    </g>
    <g
       id="g1062"
       transform="matrix(0.20857822,0,0,-0.19326276,79.624762,147.31345)"
       style="fill:#008000">
      <path
         d="m 0,0 -3.281,-4.606 -0.972,-2.657 -3.045,-8.327 -0.267,-0.73 1.267,-0.903 0.267,0.731 5.06,13.835 z"
         style="fill:#008000;fill-opacity:1;fill-rule:nonzero;stroke:none"
         id="path1064"
         inkscape:connector-curvature="0" />
    </g>
    <g
       id="g1066"
       transform="matrix(0.20857822,0,0,-0.19326276,80.925892,145.86328)"
       style="fill:#008000">
      <path
         d="m 0,0 -0.592,0.422 -1.747,-2.452 -0.972,-2.657 -7.453,-20.381 -0.267,-0.731 1.267,-0.902 0.267,0.731 9.23,25.24 z"
         style="fill:#008000;fill-opacity:1;fill-rule:nonzero;stroke:none"
         id="path1068"
         inkscape:connector-curvature="0" />
    </g>
    <g
       id="g1070"
       transform="matrix(0.20857822,0,0,-0.19326276,81.504071,146.24492)"
       style="fill:#008000">
      <path
         d="m 0,0 -1.267,0.902 -0.267,-0.73 -8.087,-22.115 -0.971,-2.656 3.281,4.606 0.971,2.657 6.073,16.606 z"
         style="fill:#008000;fill-opacity:1;fill-rule:nonzero;stroke:none"
         id="path1072"
         inkscape:connector-curvature="0" />
    </g>
    <g
       id="g1074"
       transform="matrix(0.20857822,0,0,-0.19326276,82.082415,146.62665)"
       style="fill:#008000">
      <path
         d="m 0,0 -1.267,0.902 -0.267,-0.73 -1.967,-5.379 1.918,0.879 1.316,3.597 z"
         style="fill:#008000;fill-opacity:1;fill-rule:nonzero;stroke:none"
         id="path1076"
         inkscape:connector-curvature="0" />
    </g>
    <g
       id="g1078"
       transform="matrix(0.20857822,0,0,-0.19326276,80.603433,149.53023)"
       style="fill:#008000">
      <path
         d="M 0,0 1.267,-0.902 1.534,-0.172 3.529,5.284 2.641,7.222 0.267,0.731 Z"
         style="fill:#008000;fill-opacity:1;fill-rule:nonzero;stroke:none"
         id="path1080"
         inkscape:connector-curvature="0" />
    </g>
    <g
       id="g1082"
       transform="matrix(0.20857822,0,0,-0.19326276,82.39639,146.83388)"
       style="fill:#008000">
      <path
         d="m 0,0 -0.267,-0.731 -0.542,-1.48 1.919,0.879 0.157,0.43 z"
         style="fill:#008000;fill-opacity:1;fill-rule:nonzero;stroke:none"
         id="path1084"
         inkscape:connector-curvature="0" />
    </g>
    <g
       id="g1086"
       transform="matrix(0.20857822,0,0,-0.19326276,81.181612,149.91186)"
       style="fill:#008000">
      <path
         d="M 0,0 1.267,-0.902 1.534,-0.172 3.352,4.8 2.82,4.557 C 2.719,4.51 2.612,4.488 2.508,4.488 2.224,4.488 1.952,4.65 1.826,4.926 L 1.812,4.956 0.267,0.731 Z"
         style="fill:#008000;fill-opacity:1;fill-rule:nonzero;stroke:none"
         id="path1088"
         inkscape:connector-curvature="0" />
    </g>
    <g
       id="g1090"
       transform="matrix(0.20857822,0,0,-0.19326276,81.759956,150.2936)"
       style="fill:#008000">
      <path
         d="M 0,0 0.518,-0.369 2.457,2.353 3.428,5.009 4.778,8.699 2.86,7.82 0.267,0.73 Z"
         style="fill:#008000;fill-opacity:1;fill-rule:nonzero;stroke:none"
         id="path1092"
         inkscape:connector-curvature="0" />
    </g>
    <g
       id="g1094"
       transform="matrix(0.20857822,0,0,-0.19326276,83.437739,148.32321)"
       style="fill:#008000">
      <path
         d="M 0,0 -0.987,-0.452 -1.688,-2.369 Z"
         style="fill:#008000;fill-opacity:1;fill-rule:nonzero;stroke:none"
         id="path1096"
         inkscape:connector-curvature="0" />
    </g>
    <g
       id="g1098"
       transform="matrix(0.20857822,0,0,-0.19326276,81.398362,147.93218)"
       style="fill:#008000">
      <path
         d="m 0,0 1.838,-4.011 32.923,15.084 -1.838,4.011 z"
         style="fill:#008000;fill-opacity:1;fill-rule:nonzero;stroke:none"
         id="path1100"
         inkscape:connector-curvature="0" />
    </g>
    <g
       id="g1102"
       transform="matrix(0.20857822,0,0,-0.19326276,88.265346,145.01691)"
       style="fill:#008000">
      <path
         d="m 0,0 1.838,-4.011 -32.923,-15.085 -1.838,4.012 z m -27.028,-10.734 -1.918,-0.879 -2.28,-1.044 -1.918,-0.879 -1.085,-0.497 c -0.181,-0.083 -0.322,-0.234 -0.391,-0.421 -0.069,-0.186 -0.062,-0.392 0.021,-0.573 l 0.506,-1.104 0.888,-1.938 1.055,-2.303 0.014,-0.03 c 0.126,-0.276 0.398,-0.438 0.682,-0.438 0.104,0 0.211,0.022 0.312,0.069 l 0.532,0.243 2.281,1.045 1.918,0.879 1.899,0.87 0.38,0.174 0.987,0.452 1.367,0.627 24.923,11.419 c 0.18,0.082 0.321,0.233 0.39,0.42 0.069,0.186 0.062,0.392 -0.021,0.574 L 1.051,1.307 C 0.879,1.684 0.435,1.847 0.057,1.676 l -25.836,-11.837 z"
         style="fill:#008000;fill-opacity:1;fill-rule:nonzero;stroke:none"
         id="path1104"
         inkscape:connector-curvature="0" />
    </g>
    <g
       id="g1106"
       transform="matrix(0.20857822,0,0,-0.19326276,81.143346,142.02108)"
       style="fill:#008000">
      <path
         d="m 0,0 -0.778,-2.131 c 0.021,-5.268 0.045,-11.242 0.045,-11.298 0.003,-1.663 -1.343,-3.014 -3.007,-3.017 h -0.005 c -0.997,0 -1.875,0.49 -2.423,1.236 -0.547,-0.75 -1.425,-1.243 -2.424,-1.245 h -0.006 c -1.661,0 -3.009,1.345 -3.012,3.007 0,0.052 10e-4,5.204 10e-4,10.157 l -0.722,-1.979 h -0.2 v 3.824 l 0.922,2.528 c 10e-4,2.684 10e-4,4.664 10e-4,4.664 -0.004,2.155 1.705,3.879 3.895,4.441 l -0.006,3.174 2.993,0.005 0.006,-3.177 c 2.192,-0.562 3.907,-2.301 3.911,-4.423 0,0 0.006,-1.692 0.016,-4.065 L 0,1.701 Z M 0,-4.884 V -5.27 H -0.141 -0.412 L 0,-4.14 Z m -3.222,16.141 -0.004,2.112 c -10e-4,0.397 -0.159,0.779 -0.441,1.059 -0.281,0.281 -0.662,0.438 -1.059,0.438 H -4.729 L -7.721,14.861 C -8.119,14.86 -8.5,14.701 -8.781,14.419 -9.062,14.138 -9.219,13.756 -9.219,13.358 l 0.004,-2.101 c -2.374,-1.017 -3.897,-3.12 -3.893,-5.513 0,0 -0.002,-19.095 -0.002,-19.195 0.005,-2.483 2.029,-4.504 4.512,-4.504 0.872,0.002 1.715,0.259 2.433,0.721 0.717,-0.458 1.556,-0.712 2.42,-0.712 1.213,0.002 2.345,0.473 3.196,1.327 0.851,0.854 1.318,1.988 1.316,3.193 0,0.1 -0.076,19.198 -0.076,19.198 -0.004,2.338 -1.565,4.466 -3.913,5.485"
         style="fill:#008000;fill-opacity:1;fill-rule:nonzero;stroke:none"
         id="path1108"
         inkscape:connector-curvature="0" />
    </g>
    <g
       id="g1110"
       transform="matrix(0.20857822,0,0,-0.19326276,78.76914,141.69238)"
       style="fill:#008000">
      <path
         d="M 0,0 -0.226,-0.619 -1.149,-3.146 V -6.97 h 0.2 L -0.226,-4.992 1.596,0 Z"
         style="fill:#008000;fill-opacity:1;fill-rule:nonzero;stroke:none"
         id="path1112"
         inkscape:connector-curvature="0" />
    </g>
    <g
       id="g1114"
       transform="matrix(0.20857822,0,0,-0.19326276,79.473905,141.69238)"
       style="fill:#008000">
      <path
         d="m 0,0 -2.545,-6.97 h 1.596 L 1.596,0 Z"
         style="fill:#008000;fill-opacity:1;fill-rule:nonzero;stroke:none"
         id="path1116"
         inkscape:connector-curvature="0" />
    </g>
    <g
       id="g1118"
       transform="matrix(0.20857822,0,0,-0.19326276,80.17867,141.69238)"
       style="fill:#008000">
      <path
         d="m 0,0 -2.545,-6.97 h 1.596 L 1.596,0 Z"
         style="fill:#008000;fill-opacity:1;fill-rule:nonzero;stroke:none"
         id="path1120"
         inkscape:connector-curvature="0" />
    </g>
    <g
       id="g1122"
       transform="matrix(0.20857822,0,0,-0.19326276,80.352561,143.0395)"
       style="fill:#008000">
      <path
         d="M 0,0 H 0.271 L 2.816,6.97 H 2.545 Z"
         style="fill:#008000;fill-opacity:1;fill-rule:nonzero;stroke:none"
         id="path1124"
         inkscape:connector-curvature="0" />
    </g>
    <g
       id="g1126"
       transform="matrix(0.20857822,0,0,-0.19326276,81.057327,143.0395)"
       style="fill:#008000">
      <path
         d="M 0,0 H 0.271 L 0.412,0.386 V 1.13 Z"
         style="fill:#008000;fill-opacity:1;fill-rule:nonzero;stroke:none"
         id="path1128"
         inkscape:connector-curvature="0" />
    </g>
    <g
       id="g1130"
       transform="matrix(0.20857822,0,0,-0.19326276,80.9779,141.69238)"
       style="fill:#008000">
      <path
         d="m 0,0 h -0.182 l -2.545,-6.97 h 1.596 l 1.146,3.138 0.778,2.131 V 0 Z"
         style="fill:#008000;fill-opacity:1;fill-rule:nonzero;stroke:none"
         id="path1132"
         inkscape:connector-curvature="0" />
    </g>
    <g
       id="g1134"
       transform="matrix(0.20857822,0,0,-0.19326276,81.113956,143.0395)"
       style="fill:#008000">
      <path
         d="M 0,0 H 0.141 V 0.386 Z"
         style="fill:#008000;fill-opacity:1;fill-rule:nonzero;stroke:none"
         id="path1136"
         inkscape:connector-curvature="0" />
    </g>
  </g>
</svg>
