<?xml version="1.0" encoding="UTF-8" standalone="no"?>
<svg
   xmlns:dc="http://purl.org/dc/elements/1.1/"
   xmlns:cc="http://creativecommons.org/ns#"
   xmlns:rdf="http://www.w3.org/1999/02/22-rdf-syntax-ns#"
   xmlns:svg="http://www.w3.org/2000/svg"
   xmlns="http://www.w3.org/2000/svg"
   xmlns:sodipodi="http://sodipodi.sourceforge.net/DTD/sodipodi-0.dtd"
   xmlns:inkscape="http://www.inkscape.org/namespaces/inkscape"
   inkscape:version="1.0 (4035a4fb49, 2020-05-01)"
   height="42"
   width="43"
   sodipodi:docname="filamento.svg"
   xml:space="preserve"
   viewBox="0 0 43.000001 42.000001"
   y="0px"
   x="0px"
   id="Capa_1"
   version="1.1"><metadata
   id="metadata47"><rdf:RDF><cc:Work
       rdf:about=""><dc:format>image/svg+xml</dc:format><dc:type
         rdf:resource="http://purl.org/dc/dcmitype/StillImage" /><dc:title></dc:title></cc:Work></rdf:RDF></metadata><defs
   id="defs45" /><sodipodi:namedview
   inkscape:current-layer="Capa_1"
   inkscape:window-maximized="1"
   inkscape:window-y="0"
   inkscape:window-x="0"
   inkscape:cy="213.37399"
   inkscape:cx="256.04151"
   inkscape:zoom="0.94125185"
   fit-margin-bottom="0"
   fit-margin-right="0"
   fit-margin-left="0"
   fit-margin-top="0"
   showgrid="false"
   id="namedview43"
   inkscape:window-height="704"
   inkscape:window-width="1366"
   inkscape:pageshadow="2"
   inkscape:pageopacity="0"
   guidetolerance="10"
   gridtolerance="10"
   objecttolerance="10"
   borderopacity="1"
   bordercolor="#666666"
   pagecolor="#ffffff" />
<g
   style="fill:#ffffff"
   id="g10"
   transform="matrix(0.08397068,0,0,0.0984186,-0.08401092,-4.2977434)">
	<g
   style="fill:#ffffff"
   id="g8">
		<g
   style="fill:#ffffff"
   id="g6">
			<path
   style="fill:#ffffff"
   id="path2"
   d="m 257.084,146.081 c 13.1,0 128,-0.958 128,-34.133 0,-33.175 -114.9,-34.133 -128,-34.133 -13.1,0 -128,0.958 -128,34.133 0,33.175 114.9,34.133 128,34.133 z m 0,-51.201 c 63.133,0 102.8,10.425 110.217,17.067 -7.417,6.642 -47.083,17.067 -110.217,17.067 -63.134,0 -102.8,-10.425 -110.217,-17.067 7.417,-6.641 47.084,-17.067 110.217,-17.067 z" />
			<path
   style="fill:#ffffff"
   id="path4"
   d="m 469.283,352.806 c -1.638,-6.683 -4.904,-12.843 -9.477,-17.948 6.822,-7.457 10.612,-15.708 10.612,-24.731 -0.618,-9.929 -4.809,-19.181 -11.619,-26.167 7.451,-7.854 11.619,-16.591 11.619,-26.191 -0.591,-9.86 -4.642,-19.08 -11.269,-26.143 7.233,-7.877 11.269,-16.624 11.269,-26.22 -0.558,-9.666 -4.388,-18.737 -10.689,-25.83 6.872,-7.744 10.689,-16.317 10.689,-25.695 0.006,-0.814 -0.025,-1.627 -0.087,-2.437 26.558,-10.424 42.753,-23.622 42.753,-39.509 0,-44.817 -128.783,-68.267 -256,-68.267 -127.217,0 -256,23.45 -256,68.267 0,15.887 16.196,29.085 42.755,39.509 -0.061,0.81 -0.094,1.622 -0.088,2.436 0,9.378 3.817,17.951 10.689,25.695 -6.3,7.093 -10.13,16.164 -10.689,25.83 0,9.596 4.036,18.343 11.269,26.22 -6.627,7.063 -10.677,16.283 -11.269,26.143 0,9.6 4.168,18.337 11.619,26.191 -6.81,6.986 -11.001,16.238 -11.619,26.167 0,9.023 3.79,17.274 10.612,24.731 -5.104,5.697 -8.578,12.71 -9.981,20.294 C 15.491,367.354 0.9,381.79 1.001,398.118 c 0.1,21.967 27.458,40.592 79.108,53.867 56.387,12.996 114.132,19.161 171.992,18.363 1.758,0 3.534,-0.004 5.292,-0.012 168.033,-1.029 255.775,-38.55 255.608,-75.096 -0.102,-16.402 -14.798,-30.663 -43.718,-42.434 z M 67.309,190.824 c 37.844,26.566 115.485,40.59 189.774,40.59 74.289,0 151.931,-14.023 189.774,-40.59 3.555,4.047 5.85,9.118 6.492,14.581 0,28.446 -80.6,60.142 -196.267,60.142 -115.667,0 -196.265,-31.696 -196.265,-60.141 0.642,-5.464 2.937,-10.534 6.492,-14.582 z m 0.76,51.887 c 38.112,26.119 115.212,39.903 189.015,39.903 73.803,0 150.903,-13.784 189.015,-39.903 3.958,4.054 6.541,9.325 7.252,15.057 0,27.896 -80.6,58.979 -196.267,58.979 -115.667,0 -196.267,-31.083 -196.267,-58.979 0.711,-5.733 3.294,-11.003 7.252,-15.057 z m 0.559,52.172 c 38.302,25.484 115.012,38.931 188.456,38.931 73.444,0 150.154,-13.448 188.456,-38.931 4.243,3.995 7.038,9.361 7.81,15.244 0,5.457 -3.218,11.037 -9.272,16.475 -0.16,0.051 -0.322,0.089 -0.48,0.15 -1.844,0.713 -3.341,2.033 -4.301,3.691 -27.877,20.219 -95.095,37.505 -182.213,37.505 -87.211,0 -154.477,-17.323 -182.3,-37.569 -0.202,-0.339 -0.421,-0.671 -0.675,-0.988 -1.072,-1.333 -2.465,-2.253 -3.977,-2.75 -6.082,-5.45 -9.314,-11.044 -9.314,-16.513 0.771,-5.885 3.566,-11.25 7.81,-15.245 z m -6.882,61.009 c 1.131,-3.724 3.08,-7.138 5.688,-9.999 37.889,25.606 115.44,39.121 189.649,39.121 74.209,0 151.761,-13.515 189.649,-39.121 2.593,2.845 4.533,6.237 5.667,9.936 -0.439,1.312 -0.573,2.728 -0.333,4.139 0.175,1.026 0.545,1.986 1.054,2.858 -4.757,27.161 -83.923,56.321 -196.038,56.321 -109.169,0 -187.087,-27.648 -195.498,-54.177 0.645,-0.983 1.098,-2.098 1.294,-3.298 0.334,-2.032 -0.098,-4.071 -1.132,-5.78 z M 18.151,111.935 c 0,-21.379 90.9,-51.2 238.933,-51.2 148.033,0 238.933,29.821 238.933,51.2 0,7.995 -12.716,17.17 -36.374,25.525 -0.124,0.012 -0.247,0.017 -0.371,0.034 -1.254,0.174 -2.41,0.619 -3.42,1.264 -40.215,13.404 -108.978,24.376 -198.769,24.376 -89.78,0 -158.536,-10.969 -198.754,-24.372 -0.958,-0.614 -2.048,-1.049 -3.231,-1.24 -0.197,-0.032 -0.393,-0.05 -0.59,-0.068 -23.647,-8.353 -36.357,-17.526 -36.357,-25.519 z m 238.933,68.266 c 72.968,0 146.44,-7.718 195.842,-22.754 -1.062,4.641 -4.156,9.329 -9.114,13.917 -0.047,0.017 -0.096,0.026 -0.143,0.043 -1.873,0.704 -3.395,2.037 -4.367,3.715 -27.875,21.145 -95.094,39.225 -182.218,39.225 -87.227,0 -154.501,-18.123 -182.315,-39.301 -0.212,-0.354 -0.443,-0.701 -0.713,-1.029 -0.993,-1.212 -2.254,-2.072 -3.624,-2.581 -5.003,-4.611 -8.122,-9.324 -9.191,-13.989 49.403,15.036 122.875,22.754 195.843,22.754 z m 0.208,273.067 c -58.156,1.169 -116.236,-4.813 -172.933,-17.812 -48.858,-12.558 -66.25,-28.004 -66.292,-37.425 -0.049,-7.727 10.316,-16.801 28.256,-25.082 17.067,41.19 116.601,63.266 210.76,63.266 95.573,0 196.688,-22.741 211.478,-65.132 17.289,7.888 27.323,16.651 27.372,24.244 0.109,23.582 -90.624,57.032 -238.641,57.941 z" />
		</g>
	</g>
</g>
<g
   transform="translate(-4.7924223e-4,-42.668)"
   id="g12">
</g>
<g
   transform="translate(-4.7924223e-4,-42.668)"
   id="g14">
</g>
<g
   transform="translate(-4.7924223e-4,-42.668)"
   id="g16">
</g>
<g
   transform="translate(-4.7924223e-4,-42.668)"
   id="g18">
</g>
<g
   transform="translate(-4.7924223e-4,-42.668)"
   id="g20">
</g>
<g
   transform="translate(-4.7924223e-4,-42.668)"
   id="g22">
</g>
<g
   transform="translate(-4.7924223e-4,-42.668)"
   id="g24">
</g>
<g
   transform="translate(-4.7924223e-4,-42.668)"
   id="g26">
</g>
<g
   transform="translate(-4.7924223e-4,-42.668)"
   id="g28">
</g>
<g
   transform="translate(-4.7924223e-4,-42.668)"
   id="g30">
</g>
<g
   transform="translate(-4.7924223e-4,-42.668)"
   id="g32">
</g>
<g
   transform="translate(-4.7924223e-4,-42.668)"
   id="g34">
</g>
<g
   transform="translate(-4.7924223e-4,-42.668)"
   id="g36">
</g>
<g
   transform="translate(-4.7924223e-4,-42.668)"
   id="g38">
</g>
<g
   transform="translate(-4.7924223e-4,-42.668)"
   id="g40">
</g>
</svg>
