<?xml version="1.0" encoding="UTF-8" standalone="no"?>
<svg
   xmlns:dc="http://purl.org/dc/elements/1.1/"
   xmlns:cc="http://creativecommons.org/ns#"
   xmlns:rdf="http://www.w3.org/1999/02/22-rdf-syntax-ns#"
   xmlns:svg="http://www.w3.org/2000/svg"
   xmlns="http://www.w3.org/2000/svg"
   xmlns:sodipodi="http://sodipodi.sourceforge.net/DTD/sodipodi-0.dtd"
   xmlns:inkscape="http://www.inkscape.org/namespaces/inkscape"
   version="1.1"
   id="Capa_1"
   x="0px"
   y="0px"
   viewBox="0 0 43.000002 45.000002"
   xml:space="preserve"
   sodipodi:docname="ideia.svg"
   width="43"
   height="45"
   inkscape:version="1.0 (4035a4fb49, 2020-05-01)"><metadata
   id="metadata85"><rdf:RDF><cc:Work
       rdf:about=""><dc:format>image/svg+xml</dc:format><dc:type
         rdf:resource="http://purl.org/dc/dcmitype/StillImage" /><dc:title></dc:title></cc:Work></rdf:RDF></metadata><defs
   id="defs83" /><sodipodi:namedview
   inkscape:document-rotation="0"
   pagecolor="#ffffff"
   bordercolor="#666666"
   borderopacity="1"
   objecttolerance="10"
   gridtolerance="10"
   guidetolerance="10"
   inkscape:pageopacity="0"
   inkscape:pageshadow="2"
   inkscape:window-width="1366"
   inkscape:window-height="704"
   id="namedview81"
   showgrid="false"
   fit-margin-top="0"
   fit-margin-left="0"
   fit-margin-right="0"
   fit-margin-bottom="0"
   inkscape:zoom="0.94140445"
   inkscape:cx="59.475263"
   inkscape:cy="75.576908"
   inkscape:window-x="0"
   inkscape:window-y="0"
   inkscape:window-maximized="1"
   inkscape:current-layer="Capa_1" />
<g
   id="g6"
   transform="matrix(0.10497662,0,0,0.08789011,-5.3740681,0)"
   style="fill:#ffffff">
	<g
   id="g4"
   style="fill:#ffffff">
		<path
   d="M 83.574,197.308 H 58.693 c -4.143,0 -7.5,3.358 -7.5,7.5 0,4.142 3.357,7.5 7.5,7.5 h 24.882 c 4.143,0 7.5,-3.358 7.5,-7.5 0,-4.142 -3.358,-7.5 -7.501,-7.5 z"
   id="path2"
   style="fill:#ffffff" />
	</g>
</g>
<g
   id="g12"
   transform="matrix(0.10497662,0,0,0.08789011,-5.3740681,0)"
   style="fill:#ffffff">
	<g
   id="g10"
   style="fill:#ffffff">
		<path
   d="m 453.308,197.308 h -24.881 c -4.143,0 -7.5,3.358 -7.5,7.5 0,4.142 3.357,7.5 7.5,7.5 h 24.881 c 4.143,0 7.5,-3.358 7.5,-7.5 0,-4.142 -3.356,-7.5 -7.5,-7.5 z"
   id="path8"
   style="fill:#ffffff" />
	</g>
</g>
<g
   id="g18"
   transform="matrix(0.10497662,0,0,0.08789011,-5.3740681,0)"
   style="fill:#ffffff">
	<g
   id="g16"
   style="fill:#ffffff">
		<path
   d="m 139.38,321.429 c -2.93,-2.929 -7.678,-2.929 -10.608,0 l -17.594,17.594 c -2.929,2.929 -2.929,7.678 0,10.607 2.93,2.929 7.678,2.929 10.608,0 l 17.594,-17.594 c 2.93,-2.929 2.93,-7.678 0,-10.607 z"
   id="path14"
   style="fill:#ffffff" />
	</g>
</g>
<g
   id="g24"
   transform="matrix(0.10497662,0,0,0.08789011,-5.3740681,0)"
   style="fill:#ffffff">
	<g
   id="g22"
   style="fill:#ffffff">
		<path
   d="m 256,0 c -4.143,0 -7.5,3.358 -7.5,7.5 v 24.882 c 0,4.142 3.358,7.5 7.5,7.5 4.143,0 7.5,-3.358 7.5,-7.5 V 7.5 C 263.501,3.358 260.144,0 256,0 Z"
   id="path20"
   style="fill:#ffffff" />
	</g>
</g>
<g
   id="g30"
   transform="matrix(0.10497662,0,0,0.08789011,-5.3740681,0)"
   style="fill:#ffffff">
	<g
   id="g28"
   style="fill:#ffffff">
		<path
   d="m 400.823,339.023 -17.594,-17.594 c -2.93,-2.929 -7.678,-2.929 -10.608,0 -2.929,2.929 -2.929,7.679 0,10.607 l 17.594,17.594 c 2.93,2.929 7.678,2.929 10.608,0 2.929,-2.929 2.929,-7.678 0,-10.607 z"
   id="path26"
   style="fill:#ffffff" />
	</g>
</g>
<g
   id="g36"
   transform="matrix(0.10497662,0,0,0.08789011,-5.3740681,0)"
   style="fill:#ffffff">
	<g
   id="g34"
   style="fill:#ffffff">
		<path
   d="M 139.38,77.582 121.786,59.988 c -2.93,-2.929 -7.678,-2.929 -10.608,0 -2.929,2.929 -2.929,7.678 0,10.607 l 17.594,17.594 c 2.93,2.929 7.678,2.929 10.608,0 2.93,-2.93 2.93,-7.679 0,-10.607 z"
   id="path32"
   style="fill:#ffffff" />
	</g>
</g>
<g
   id="g42"
   transform="matrix(0.10497662,0,0,0.08789011,-5.3740681,0)"
   style="fill:#ffffff">
	<g
   id="g40"
   style="fill:#ffffff">
		<path
   d="m 434.591,47.573 h -43.336 c -10.102,0 -18.318,8.218 -18.318,18.318 0,10.1 8.218,18.318 18.318,18.318 h 0.118 l -21.242,21.604 C 345.769,77.619 311.342,59.098 274.408,54.596 c -4.093,-0.504 -7.852,2.425 -8.354,6.537 -0.501,4.112 2.426,7.851 6.538,8.353 33.653,4.103 65.006,21.136 86.987,47.056 l -78.291,79.625 -23.979,-17.028 c -7.633,-5.419 -18.074,-4.232 -24.293,2.76 l -62.244,69.973 c -6.712,7.547 -6.033,19.148 1.514,25.863 7.544,6.709 19.121,6.066 25.861,-1.513 l 51.333,-57.707 23.321,16.561 c 7.373,5.237 17.329,4.356 23.668,-2.092 l 83.223,-84.64 c 5.165,11.43 8.697,23.507 10.527,36.026 0.599,4.099 4.409,6.936 8.507,6.336 4.099,-0.599 6.936,-4.408 6.336,-8.507 -2.313,-15.825 -7.082,-31.014 -14.182,-45.236 l 25.39,-25.822 v 0.24 c 0.002,10.101 8.219,18.318 18.32,18.318 10.102,0 18.318,-8.218 18.318,-18.319 V 65.891 C 452.909,55.79 444.692,47.573 434.591,47.573 Z m 3.318,63.809 c 0,4.382 -6.635,4.386 -6.635,0 V 92.816 c 0,-6.703 -8.158,-10.028 -12.849,-5.258 L 285.777,222.465 c -1.148,1.167 -2.95,1.328 -4.286,0.379 l -28.802,-20.453 c -3.121,-2.215 -7.404,-1.726 -9.947,1.13 l -55.801,62.73 c -1.232,1.385 -3.331,1.473 -4.683,0.273 -1.367,-1.216 -1.489,-3.317 -0.274,-4.683 l 62.243,-69.973 c 1.079,-1.212 3.001,-1.493 4.399,-0.499 l 29.19,20.729 c 2.969,2.107 7.091,1.787 9.691,-0.857 L 414.617,81.967 c 4.651,-4.729 1.291,-12.759 -5.348,-12.759 h -18.012 c -4.382,0 -4.385,-6.635 0,-6.635 h 43.336 c 1.829,0 3.317,1.488 3.317,3.317 v 45.492 z"
   id="path38"
   style="fill:#ffffff" />
	</g>
</g>
<g
   id="g48"
   transform="matrix(0.10497662,0,0,0.08789011,-5.3740681,0)"
   style="fill:#ffffff">
	<g
   id="g46"
   style="fill:#ffffff">
		<path
   d="m 399.213,210.822 c -4.126,-0.399 -7.792,2.611 -8.195,6.733 -4.058,41.396 -27.602,79.37 -62.981,101.582 -14.931,9.375 -23.844,25.418 -23.844,42.916 v 30.868 H 207.81 v -31.55 c 0,-16.945 -8.855,-32.953 -23.108,-41.775 -40.306,-24.95 -64.37,-68.107 -64.37,-115.445 -10e-4,-68.352 51.197,-126.239 119.091,-134.648 4.111,-0.509 7.03,-4.255 6.521,-8.365 -0.51,-4.111 -4.263,-7.034 -8.366,-6.521 -36.08,4.469 -69.438,22.042 -93.926,49.482 -24.714,27.691 -38.322,63.224 -38.322,100.053 0,26.133 6.797,51.88 19.657,74.461 12.468,21.89 30.386,40.473 51.818,53.74 9.871,6.109 16.003,17.229 16.003,29.02 v 32.642 c -7.626,2.65 -13.125,9.891 -13.125,18.409 v 10.692 c 0,4.527 1.564,8.688 4.162,12.001 -2.598,3.313 -4.162,7.473 -4.162,12.001 v 10.691 c 0,10.753 8.748,19.501 19.501,19.501 h 23.58 v 16.955 c 0,9.781 7.956,17.738 17.737,17.738 h 30.996 c 9.781,0 17.737,-7.957 17.737,-17.738 V 477.31 h 23.58 c 10.753,0 19.501,-8.749 19.501,-19.501 v -10.691 c 0,-4.527 -1.564,-8.688 -4.162,-12.001 2.598,-3.313 4.162,-7.473 4.162,-12.001 v -10.692 c 0,-8.518 -5.498,-15.759 -13.125,-18.409 v -31.96 c 0,-12.305 6.287,-23.598 16.82,-30.211 19.141,-12.019 35.615,-28.485 47.643,-47.621 12.323,-19.607 20.03,-42.154 22.289,-65.202 0.408,-4.125 -2.607,-7.795 -6.729,-8.199 z m -124.976,283.44 v 0 c -0.001,1.483 -1.254,2.737 -2.737,2.737 h -30.996 c -1.483,0 -2.736,-1.253 -2.736,-2.737 v -16.955 h 36.469 z m 43.08,-36.456 c 0,2.439 -2.061,4.5 -4.5,4.5 -13.24,0 -101.138,0 -113.632,0 -2.439,0 -4.5,-2.061 -4.5,-4.5 v -10.691 c 0,-2.439 2.061,-4.5 4.5,-4.5 h 113.632 c 2.439,0 4.5,2.061 4.5,4.5 z m 0,-34.693 c 0,2.439 -2.061,4.5 -4.5,4.5 H 199.185 c -2.439,0 -4.5,-2.061 -4.5,-4.5 v -10.692 c 0,-2.439 2.061,-4.5 4.5,-4.5 24.409,0 92.547,0 113.632,0 2.439,0 4.5,2.061 4.5,4.5 z"
   id="path44"
   style="fill:#ffffff" />
	</g>
</g>
<g
   id="g50"
   transform="translate(-196.52522,-180.42358)">
</g>
<g
   id="g52"
   transform="translate(-196.52522,-180.42358)">
</g>
<g
   id="g54"
   transform="translate(-196.52522,-180.42358)">
</g>
<g
   id="g56"
   transform="translate(-196.52522,-180.42358)">
</g>
<g
   id="g58"
   transform="translate(-196.52522,-180.42358)">
</g>
<g
   id="g60"
   transform="translate(-196.52522,-180.42358)">
</g>
<g
   id="g62"
   transform="translate(-196.52522,-180.42358)">
</g>
<g
   id="g64"
   transform="translate(-196.52522,-180.42358)">
</g>
<g
   id="g66"
   transform="translate(-196.52522,-180.42358)">
</g>
<g
   id="g68"
   transform="translate(-196.52522,-180.42358)">
</g>
<g
   id="g70"
   transform="translate(-196.52522,-180.42358)">
</g>
<g
   id="g72"
   transform="translate(-196.52522,-180.42358)">
</g>
<g
   id="g74"
   transform="translate(-196.52522,-180.42358)">
</g>
<g
   id="g76"
   transform="translate(-196.52522,-180.42358)">
</g>
<g
   id="g78"
   transform="translate(-196.52522,-180.42358)">
</g>
</svg>
