<?xml version="1.0" encoding="UTF-8" standalone="no"?>
<svg
   xmlns:dc="http://purl.org/dc/elements/1.1/"
   xmlns:cc="http://creativecommons.org/ns#"
   xmlns:rdf="http://www.w3.org/1999/02/22-rdf-syntax-ns#"
   xmlns:svg="http://www.w3.org/2000/svg"
   xmlns="http://www.w3.org/2000/svg"
   xmlns:sodipodi="http://sodipodi.sourceforge.net/DTD/sodipodi-0.dtd"
   xmlns:inkscape="http://www.inkscape.org/namespaces/inkscape"
   inkscape:version="1.0 (4035a4fb49, 2020-05-01)"
   sodipodi:docname="pingo-dagua.svg"
   version="1.1"
   width="42"
   viewBox="0 0 41.892047 41.892047"
   height="42"
   enable-background="new 0 0 510.684 510.684"
   id="Capa_1">
  <metadata
     id="metadata21">
    <rdf:RDF>
      <cc:Work
         rdf:about="">
        <dc:format>image/svg+xml</dc:format>
        <dc:type
           rdf:resource="http://purl.org/dc/dcmitype/StillImage" />
        <dc:title></dc:title>
      </cc:Work>
    </rdf:RDF>
  </metadata>
  <defs
     id="defs19" />
  <sodipodi:namedview
     inkscape:current-layer="Capa_1"
     inkscape:window-maximized="1"
     inkscape:window-y="0"
     inkscape:window-x="0"
     inkscape:cy="52.153529"
     inkscape:cx="31.581006"
     inkscape:zoom="0.94140625"
     fit-margin-bottom="0"
     fit-margin-right="0"
     fit-margin-left="0"
     fit-margin-top="0"
     showgrid="false"
     id="namedview17"
     inkscape:window-height="704"
     inkscape:window-width="1366"
     inkscape:pageshadow="2"
     inkscape:pageopacity="0"
     guidetolerance="10"
     gridtolerance="10"
     objecttolerance="10"
     borderopacity="1"
     bordercolor="#666666"
     pagecolor="#ffffff" />
  <g
     style="fill:#ffffff"
     transform="matrix(0.10460929,0,0,0.08203125,-5.7651226,0)"
     id="g14">
    <g
       style="fill:#ffffff"
       id="g12">
      <path
         style="fill:#ffffff"
         id="path2"
         d="M 199.242,439.486 C 149.985,424.17 116.89,379.189 116.89,327.555 c 0,-25.238 7.901,-49.283 22.85,-69.536 0.341,-0.462 0.649,-0.967 0.906,-1.481 2.47,-4.939 0.464,-10.938 -4.476,-13.408 -4.471,-2.239 -9.819,-0.801 -12.625,3.153 -17.437,23.688 -26.654,51.788 -26.654,81.272 0,29.858 9.428,58.247 27.264,82.095 17.24,23.051 41.797,40.43 69.149,48.934 0.989,0.308 1.989,0.454 2.972,0.454 4.263,0 8.214,-2.749 9.546,-7.034 1.64,-5.274 -1.306,-10.878 -6.58,-12.518 z" />
      <path
         style="fill:#ffffff"
         id="path4"
         d="m 455.573,233.679 c 0,-19.035 -5.932,-37.17 -17.158,-52.464 L 375.114,87.244 c -1.859,-2.759 -4.967,-4.413 -8.294,-4.413 -3.327,0 -6.435,1.654 -8.294,4.413 L 331.852,126.841 249.378,4.413 C 247.52,1.654 244.411,0 241.085,0 237.759,0 234.65,1.654 232.792,4.413 L 91.216,214.576 c -23.622,32.101 -36.105,70.177 -36.105,110.134 0,102.546 83.428,185.974 185.974,185.974 102.546,0 185.974,-83.428 185.974,-185.974 0,-8.186 -0.547,-16.387 -1.61,-24.46 18.458,-16.276 30.124,-40.085 30.124,-66.571 z M 366.82,110.73 l 55.005,81.654 c 0.11,0.17 0.226,0.337 0.347,0.501 8.767,11.873 13.401,25.979 13.401,40.793 0,37.91 -30.842,68.752 -68.753,68.752 -37.91,0 -68.752,-30.842 -68.752,-68.752 0,-14.814 4.634,-28.92 13.401,-40.793 0.116,-0.157 0.227,-0.317 0.334,-0.482 l 28.323,-42.045 c 0.052,-0.077 0.106,-0.153 0.156,-0.232 z m 40.238,213.98 c 0,91.519 -74.456,165.974 -165.974,165.974 -91.519,0 -165.974,-74.455 -165.974,-165.974 0,-35.744 11.19,-69.799 32.362,-98.481 0.121,-0.163 0.238,-0.334 0.351,-0.509 L 241.085,27.898 319.796,144.74 295.225,181.216 c -11.225,15.293 -17.157,33.429 -17.157,52.463 0,48.938 39.814,88.752 88.752,88.752 14.31,0 27.837,-3.409 39.819,-9.45 0.273,3.9 0.419,7.816 0.419,11.729 z" />
      <path
         style="fill:#ffffff"
         id="path6"
         d="m 331.561,231.24 c 0,-4.845 0.987,-9.521 2.933,-13.898 2.244,-5.047 -0.029,-10.957 -5.075,-13.2 -5.047,-2.241 -10.956,0.028 -13.2,5.075 -3.091,6.952 -4.658,14.361 -4.658,22.023 0,18.149 9.016,35.019 24.117,45.123 1.708,1.143 3.64,1.689 5.552,1.689 3.226,0 6.392,-1.558 8.32,-4.439 3.071,-4.591 1.84,-10.802 -2.75,-13.873 -9.542,-6.385 -15.239,-17.039 -15.239,-28.5 z" />
      <path
         style="fill:#ffffff"
         id="path8"
         d="m 236.343,453.34 c -2.448,-6.434 -11.582,-8.269 -16.31,-3.24 -5.629,5.455 -2.599,15.471 5.12,16.87 7.653,1.677 14.324,-6.446 11.19,-13.63 z" />
      <path
         style="fill:#ffffff"
         id="path10"
         d="m 361.552,285.479 c 6.448,4.466 15.682,-0.472 15.55,-8.31 0.145,-7.839 -9.107,-12.787 -15.55,-8.32 -5.84,3.66 -5.863,12.982 0,16.63 z" />
    </g>
  </g>
</svg>
