<?xml version="1.0" encoding="UTF-8" standalone="no"?>
<!-- Generator: Adobe Illustrator 19.0.0, SVG Export Plug-In . SVG Version: 6.00 Build 0)  -->

<svg
   xmlns:dc="http://purl.org/dc/elements/1.1/"
   xmlns:cc="http://creativecommons.org/ns#"
   xmlns:rdf="http://www.w3.org/1999/02/22-rdf-syntax-ns#"
   xmlns:svg="http://www.w3.org/2000/svg"
   xmlns="http://www.w3.org/2000/svg"
   xmlns:sodipodi="http://sodipodi.sourceforge.net/DTD/sodipodi-0.dtd"
   xmlns:inkscape="http://www.inkscape.org/namespaces/inkscape"
   version="1.1"
   id="Capa_1"
   x="0px"
   y="0px"
   viewBox="0 0 45.542836 46.339448"
   xml:space="preserve"
   width="48.577103"
   height="49.426788"
   sodipodi:docname="research.svg"
   inkscape:version="0.92.3 (2405546, 2018-03-11)"><metadata
   id="metadata300"><rdf:RDF><cc:Work
       rdf:about=""><dc:format>image/svg+xml</dc:format><dc:type
         rdf:resource="http://purl.org/dc/dcmitype/StillImage" /><dc:title></dc:title></cc:Work></rdf:RDF></metadata><defs
   id="defs298" /><sodipodi:namedview
   pagecolor="#ffffff"
   bordercolor="#666666"
   borderopacity="1"
   objecttolerance="10"
   gridtolerance="10"
   guidetolerance="10"
   inkscape:pageopacity="0"
   inkscape:pageshadow="2"
   inkscape:window-width="1366"
   inkscape:window-height="717"
   id="namedview296"
   showgrid="false"
   fit-margin-top="0"
   fit-margin-left="0"
   fit-margin-right="0"
   fit-margin-bottom="0"
   inkscape:zoom="4.12"
   inkscape:cx="86.406706"
   inkscape:cy="19.49244"
   inkscape:window-x="0"
   inkscape:window-y="27"
   inkscape:window-maximized="1"
   inkscape:current-layer="Capa_1" />
<g
   id="g179"
   transform="matrix(0.09487711,0,0,0.09655963,0,-0.00540734)">
	<g
   id="g177">
		<path
   d="M 457.22,248.049 C 436.973,215.374 405.09,191.592 368,181.496 v -29.44 c 13.255,0 24,-10.745 24,-24 0,-13.255 -10.745,-24 -24,-24 h -24 v -24 h 40 c 4.418,0 8,-3.582 8,-8 v -40 c 0,-17.673 -14.327,-32 -32,-32 H 64 c -17.673,0 -32,14.327 -32,32 v 320 H 8 c -4.418,0 -8,3.582 -8,8 v 16 c 0,17.673 14.327,32 32,32 h 167 c 44.185,71.305 137.808,93.291 209.114,49.106 71.306,-44.185 93.291,-137.807 49.106,-209.113 z M 344,32.057 c 0,-8.837 7.163,-16 16,-16 8.837,0 16,7.163 16,16 v 32 h -32 z m 24,88 c 4.418,0 8,3.582 8,8 0,4.418 -3.582,8 -8,8 h -80 c -4.418,0 -8,-3.582 -8,-8 0,-4.418 3.582,-8 8,-8 z m -320,-88 c 0,-8.837 7.163,-16 16,-16 h 268.448 c -2.879,4.843 -4.415,10.366 -4.448,16 v 72 h -40 c -13.255,0 -24,10.745 -24,24 0,13.255 10.745,24 24,24 v 29.44 c -75.194,19.927 -122.832,93.851 -109.912,170.56 H 48 Z m -16,360 c -8.837,0 -16,-7.163 -16,-16 v -8 h 165.52 c 2.248,8.235 5.192,16.264 8.8,24 z m 296,72 c -75.08,0.045 -135.98,-60.783 -136.025,-135.863 -0.038,-63.496 43.885,-118.562 105.801,-132.641 3.644,-0.83 6.228,-4.071 6.224,-7.808 v -35.688 h 48 v 35.688 c -0.004,3.737 2.58,6.978 6.224,7.808 73.211,16.648 119.064,89.492 102.417,162.703 C 446.562,420.172 391.497,464.095 328,464.057 Z"
   id="path175"
   inkscape:connector-curvature="0"
   style="fill:#2e9d48" />
	</g>
</g>
<g
   id="g185"
   transform="matrix(0.09487711,0,0,0.09655963,0,-0.00540734)">
	<g
   id="g183">
		<path
   d="m 276.304,228.681 c -23.263,12.135 -41.548,32.025 -51.688,56.224 l 14.768,6.168 c 8.692,-20.748 24.368,-37.803 44.312,-48.208 z"
   id="path181"
   inkscape:connector-curvature="0"
   style="fill:#2e9d48" />
	</g>
</g>
<g
   id="g191"
   transform="matrix(0.09487711,0,0,0.09655963,0,-0.00540734)">
	<g
   id="g189">
		<path
   d="m 439.632,319.841 c -0.312,-4.407 -4.138,-7.727 -8.546,-7.414 -1.923,0.136 -3.732,0.962 -5.094,2.326 l -6.144,6.104 c -10.966,10.951 -28.73,10.951 -39.696,0 l -4.984,-4.984 c -17.225,-17.186 -45.111,-17.186 -62.336,0 l -4.984,4.984 c -10.966,10.951 -28.73,10.951 -39.696,0 -12.197,-12.085 -30.286,-16.018 -46.4,-10.088 -2.889,1.068 -4.909,3.701 -5.192,6.768 -0.32,3.456 -0.528,6.944 -0.528,10.488 0,61.856 50.144,112 112,112 61.856,0 112,-50.144 112,-112 0,-2.496 -0.168,-4.952 -0.4,-8.184 z M 328,424.057 c -52.996,-0.057 -95.943,-43.004 -96,-96 0,-1.192 0,-2.4 0.08,-3.552 9.013,-1.622 18.251,1.253 24.752,7.704 17.225,17.186 45.111,17.186 62.336,0 l 4.984,-4.984 c 10.966,-10.951 28.73,-10.951 39.696,0 l 4.984,4.984 c 14.555,14.51 37.195,17.064 54.616,6.16 -5.326,48.715 -46.443,85.627 -95.448,85.688 z"
   id="path187"
   inkscape:connector-curvature="0"
   style="fill:#2e9d48" />
	</g>
</g>
<g
   id="g197"
   transform="matrix(0.09487711,0,0,0.09655963,0,-0.00540734)">
	<g
   id="g195">
		<path
   d="m 310.776,217.377 c -5.843,0.904 -11.604,2.268 -17.232,4.08 l 4.912,15.2 c 4.823,-1.547 9.761,-2.708 14.768,-3.472 z"
   id="path193"
   inkscape:connector-curvature="0"
   style="fill:#2e9d48" />
	</g>
</g>
<g
   id="g203"
   transform="matrix(0.09487711,0,0,0.09655963,0,-0.00540734)">
	<g
   id="g201">
		<rect
   x="352"
   y="344.05701"
   width="16"
   height="16"
   id="rect199"
   style="fill:#2e9d48" />
	</g>
</g>
<g
   id="g209"
   transform="matrix(0.09487711,0,0,0.09655963,0,-0.00540734)">
	<g
   id="g207">
		<rect
   x="272"
   y="368.05701"
   width="16"
   height="16"
   id="rect205"
   style="fill:#2e9d48" />
	</g>
</g>
<g
   id="g215"
   transform="matrix(0.09487711,0,0,0.09655963,0,-0.00540734)">
	<g
   id="g213">
		<rect
   x="336"
   y="384.05701"
   width="16"
   height="16"
   id="rect211"
   style="fill:#2e9d48" />
	</g>
</g>
<g
   id="g221"
   transform="matrix(0.09487711,0,0,0.09655963,0,-0.00540734)">
	<g
   id="g219">
		<path
   d="M 217.888,72.057 192,59.113 V 40.057 h -16 v 19.056 l -24,12 -24,-12 V 40.057 H 112 V 59.113 L 84.424,72.897 c -2.712,1.355 -4.425,4.128 -4.424,7.16 v 32 H 64 v 16 H 86.112 L 112,141.001 v 19.056 h 16 v -19.056 l 24,-12 24,12 v 19.056 h 16 v -19.056 l 27.576,-13.744 c 2.725,-1.362 4.441,-4.153 4.424,-7.2 v -32 h 16 v -16 z M 144,115.113 l -24,12 -24,-12 V 85.001 l 24,-12 24,12 z m 64,0 -24,12 -24,-12 V 85.001 l 24,-12 24,12 z"
   id="path217"
   inkscape:connector-curvature="0"
   style="fill:#2e9d48" />
	</g>
</g>
<g
   id="g227"
   transform="matrix(0.09487711,0,0,0.09655963,0,-0.00540734)">
	<g
   id="g225">
		<rect
   x="72"
   y="216.05701"
   width="120"
   height="16"
   id="rect223"
   style="fill:#2e9d48" />
	</g>
</g>
<g
   id="g233"
   transform="matrix(0.09487711,0,0,0.09655963,0,-0.00540734)">
	<g
   id="g231">
		<rect
   x="72"
   y="248.05701"
   width="96"
   height="16"
   id="rect229"
   style="fill:#2e9d48" />
	</g>
</g>
<g
   id="g239"
   transform="matrix(0.09487711,0,0,0.09655963,0,-0.00540734)">
	<g
   id="g237">
		<rect
   x="72"
   y="280.05701"
   width="80"
   height="16"
   id="rect235"
   style="fill:#2e9d48" />
	</g>
</g>
<g
   id="g245"
   transform="matrix(0.09487711,0,0,0.09655963,0,-0.00540734)">
	<g
   id="g243">
		<rect
   x="120"
   y="184.05701"
   width="72"
   height="16"
   id="rect241"
   style="fill:#2e9d48" />
	</g>
</g>
<g
   id="g251"
   transform="matrix(0.09487711,0,0,0.09655963,0,-0.00540734)">
	<g
   id="g249">
		<rect
   x="256"
   y="56.056999"
   width="16"
   height="16"
   id="rect247"
   style="fill:#2e9d48" />
	</g>
</g>
<g
   id="g257"
   transform="matrix(0.09487711,0,0,0.09655963,0,-0.00540734)">
	<g
   id="g255">
		<rect
   x="88"
   y="184.05701"
   width="16"
   height="16"
   id="rect253"
   style="fill:#2e9d48" />
	</g>
</g>
<g
   id="g263"
   transform="matrix(0.09487711,0,0,0.09655963,0,-0.00540734)">
	<g
   id="g261">
		<rect
   x="288"
   y="56.056999"
   width="16"
   height="16"
   id="rect259"
   style="fill:#2e9d48" />
	</g>
</g>
<g
   id="g265"
   transform="translate(0,-0.05600001)">
</g>
<g
   id="g267"
   transform="translate(0,-0.05600001)">
</g>
<g
   id="g269"
   transform="translate(0,-0.05600001)">
</g>
<g
   id="g271"
   transform="translate(0,-0.05600001)">
</g>
<g
   id="g273"
   transform="translate(0,-0.05600001)">
</g>
<g
   id="g275"
   transform="translate(0,-0.05600001)">
</g>
<g
   id="g277"
   transform="translate(0,-0.05600001)">
</g>
<g
   id="g279"
   transform="translate(0,-0.05600001)">
</g>
<g
   id="g281"
   transform="translate(0,-0.05600001)">
</g>
<g
   id="g283"
   transform="translate(0,-0.05600001)">
</g>
<g
   id="g285"
   transform="translate(0,-0.05600001)">
</g>
<g
   id="g287"
   transform="translate(0,-0.05600001)">
</g>
<g
   id="g289"
   transform="translate(0,-0.05600001)">
</g>
<g
   id="g291"
   transform="translate(0,-0.05600001)">
</g>
<g
   id="g293"
   transform="translate(0,-0.05600001)">
</g>
</svg>