<?xml version="1.0" encoding="UTF-8" standalone="no"?>
<!-- Created with Inkscape (http://www.inkscape.org/) -->

<svg
   xmlns:dc="http://purl.org/dc/elements/1.1/"
   xmlns:cc="http://creativecommons.org/ns#"
   xmlns:rdf="http://www.w3.org/1999/02/22-rdf-syntax-ns#"
   xmlns:svg="http://www.w3.org/2000/svg"
   xmlns="http://www.w3.org/2000/svg"
   xmlns:sodipodi="http://sodipodi.sourceforge.net/DTD/sodipodi-0.dtd"
   xmlns:inkscape="http://www.inkscape.org/namespaces/inkscape"
   width="13.063787mm"
   height="6.5107627mm"
   viewBox="0 0 13.063786 6.5107626"
   version="1.1"
   id="svg1810"
   sodipodi:docname="Fase2.svg"
   inkscape:version="0.92.3 (2405546, 2018-03-11)">
  <defs
     id="defs1804" />
  <sodipodi:namedview
     id="base"
     pagecolor="#ffffff"
     bordercolor="#666666"
     borderopacity="1.0"
     inkscape:pageopacity="0.0"
     inkscape:pageshadow="2"
     inkscape:zoom="1.979899"
     inkscape:cx="61.882781"
     inkscape:cy="31.317673"
     inkscape:document-units="mm"
     inkscape:current-layer="layer1"
     showgrid="false"
     inkscape:window-width="1366"
     inkscape:window-height="717"
     inkscape:window-x="0"
     inkscape:window-y="27"
     inkscape:window-maximized="1"
     fit-margin-top="0"
     fit-margin-left="0"
     fit-margin-right="0"
     fit-margin-bottom="0" />
  <metadata
     id="metadata1807">
    <rdf:RDF>
      <cc:Work
         rdf:about="">
        <dc:format>image/svg+xml</dc:format>
        <dc:type
           rdf:resource="http://purl.org/dc/dcmitype/StillImage" />
        <dc:title></dc:title>
      </cc:Work>
    </rdf:RDF>
  </metadata>
  <g
     inkscape:label="Camada 1"
     inkscape:groupmode="layer"
     id="layer1"
     transform="translate(-75.73446,-141.20148)">
    <path
       d="m 83.840822,141.35992 h -6.857123 v 0.88704 h 6.857123 z"
       style="fill:#008000;fill-opacity:1;fill-rule:nonzero;stroke:none;stroke-width:0.11751915"
       id="path1142"
       inkscape:connector-curvature="0" />
    <g
       id="g1144"
       transform="matrix(0.13075135,0,0,-0.10562607,84.034544,142.33598)"
       style="fill:#008000">
      <path
         d="M 0,0 C -0.012,-0.097 -0.043,-0.191 -0.093,-0.278 -0.044,-0.193 -0.013,-0.101 0,0"
         style="fill:#008000;fill-opacity:1;fill-rule:nonzero;stroke:none"
         id="path1146"
         inkscape:connector-curvature="0" />
    </g>
    <g
       id="g1148"
       transform="matrix(0.13075135,0,0,-0.10562607,76.885635,142.24697)"
       style="fill:#008000">
      <path
         d="M 0,0 H 0.75 V 8.398 H 53.194 V 0 h 0.75 c 0.278,0 0.533,-0.153 0.662,-0.398 0.063,-0.118 0.088,-0.248 0.084,-0.376 0,0.009 0.004,0.016 0.004,0.024 v 9.898 c 0,0.415 -0.336,0.75 -0.75,0.75 H 0 c -0.414,0 -0.75,-0.335 -0.75,-0.75 V -0.75 c 0,-0.008 0.005,-0.015 0.005,-0.024 -0.004,0.128 0.02,0.258 0.083,0.376 C -0.532,-0.153 -0.277,0 0,0"
         style="fill:#008000;fill-opacity:1;fill-rule:nonzero;stroke:none"
         id="path1150"
         inkscape:connector-curvature="0" />
    </g>
    <g
       id="g1152"
       transform="matrix(0.13075135,0,0,-0.10562607,76.802215,142.36532)"
       style="fill:#008000">
      <path
         d="M 0,0 C -0.05,0.087 -0.081,0.181 -0.093,0.278 -0.08,0.177 -0.049,0.084 0,0"
         style="fill:#008000;fill-opacity:1;fill-rule:nonzero;stroke:none"
         id="path1154"
         inkscape:connector-curvature="0" />
    </g>
    <g
       id="g1156"
       transform="matrix(0.13075135,0,0,-0.10562607,79.26918,145.17211)"
       style="fill:#008000">
      <path
         d="m 0,0 0.326,0.894 -1.43,2.111 -0.331,-0.906 -1.037,1.531 0.331,0.906 -1.431,2.111 -0.33,-0.906 -1.038,1.531 0.331,0.906 -1.43,2.111 -0.331,-0.906 -1.037,1.53 0.331,0.906 -1.431,2.112 -0.331,-0.906 -1.037,1.53 0.331,0.907 -1.43,2.111 -0.331,-0.907 -1.037,1.531 0.331,0.906 -1.431,2.111 -0.331,-0.906 -1.037,1.531 0.331,0.906 -1.43,2.111 -0.331,-0.906 -1.037,1.53 0.512,1.403 h 1.596 l -0.252,-0.69 h 2.201 l 0.252,0.69 h 1.596 l -0.252,-0.69 h 2.201 l 0.252,0.69 h 1.595 l -0.251,-0.69 h 2.201 l 0.252,0.69 h 1.595 l -0.251,-0.69 h 2.201 l 0.252,0.69 h 1.595 l -0.251,-0.69 h 2.201 l 0.252,0.69 h 1.595 l -0.251,-0.69 h 2.201 l 0.252,0.69 h 1.596 l -0.252,-0.69 h 2.201 l 0.252,0.69 h 1.596 l -0.252,-0.69 h 2.201 l 0.252,0.69 h 1.596 l -0.252,-0.69 h 2.201 l 0.252,0.69 h 1.595 l -0.251,-0.69 h 2.201 l 0.252,0.69 H 22.8 l -0.251,-0.69 h 2.201 l 0.252,0.69 h 1.595 l -0.251,-0.69 h 2.201 l 0.251,0.69 h 1.596 l -0.252,-0.69 h 2.202 l 0.251,0.69 h 1.596 l -0.252,-0.69 h 0.362 L 33.517,25.037 32.409,22 28.949,16.894 30.057,19.93 25.284,12.886 24.176,9.851 20.717,4.745 21.824,7.779 17.052,0.735 16.783,0 h 1.582 l 17.971,26.522 c 0.01,0.016 0.008,0.035 0.017,0.051 0.05,0.087 0.08,0.181 0.093,0.278 0.003,0.024 0.013,0.045 0.014,0.069 0.004,0.128 -0.021,0.258 -0.083,0.375 -0.13,0.245 -0.385,0.398 -0.662,0.398 h -0.75 -52.445 -0.75 c -0.277,0 -0.532,-0.153 -0.662,-0.398 -0.062,-0.117 -0.087,-0.247 -0.083,-0.375 0.001,-0.024 0.011,-0.045 0.014,-0.069 0.013,-0.097 0.043,-0.191 0.093,-0.278 0.009,-0.016 0.007,-0.035 0.017,-0.051 L -0.88,0 Z"
         style="fill:#008000;fill-opacity:1;fill-rule:nonzero;stroke:none"
         id="path1158"
         inkscape:connector-curvature="0" />
    </g>
    <g
       id="g1160"
       transform="matrix(0.13075135,0,0,-0.10562607,77.285774,142.33258)"
       style="fill:#008000">
      <path
         d="m 0,0 h -1.596 l -0.512,-1.403 1.037,-1.53 0.331,0.906 0.488,1.337 z"
         style="fill:#008000;fill-opacity:1;fill-rule:nonzero;stroke:none"
         id="path1162"
         inkscape:connector-curvature="0" />
    </g>
    <g
       id="g1164"
       transform="matrix(0.13075135,0,0,-0.10562607,77.78221,142.33258)"
       style="fill:#008000">
      <path
         d="m 0,0 h -1.596 l -0.251,-0.69 -1.259,-3.448 -0.331,-0.906 1.037,-1.531 0.331,0.906 1.817,4.979 z"
         style="fill:#008000;fill-opacity:1;fill-rule:nonzero;stroke:none"
         id="path1166"
         inkscape:connector-curvature="0" />
    </g>
    <g
       id="g1168"
       transform="matrix(0.13075135,0,0,-0.10562607,78.27866,142.33258)"
       style="fill:#008000">
      <path
         d="m 0,0 h -1.596 l -0.251,-0.69 -2.589,-7.09 -0.331,-0.906 1.037,-1.53 0.331,0.906 3.147,8.62 z"
         style="fill:#008000;fill-opacity:1;fill-rule:nonzero;stroke:none"
         id="path1170"
         inkscape:connector-curvature="0" />
    </g>
    <g
       id="g1172"
       transform="matrix(0.13075135,0,0,-0.10562607,78.77511,142.33258)"
       style="fill:#008000">
      <path
         d="m 0,0 h -1.596 l -0.251,-0.69 -3.918,-10.731 -0.331,-0.907 1.037,-1.53 0.331,0.906 4.476,12.262 z"
         style="fill:#008000;fill-opacity:1;fill-rule:nonzero;stroke:none"
         id="path1174"
         inkscape:connector-curvature="0" />
    </g>
    <g
       id="g1176"
       transform="matrix(0.13075135,0,0,-0.10562607,79.271599,142.33258)"
       style="fill:#008000">
      <path
         d="m 0,0 h -1.596 l -0.251,-0.69 -5.248,-14.373 -0.33,-0.907 1.037,-1.53 0.33,0.906 5.806,15.904 z"
         style="fill:#008000;fill-opacity:1;fill-rule:nonzero;stroke:none"
         id="path1178"
         inkscape:connector-curvature="0" />
    </g>
    <g
       id="g1180"
       transform="matrix(0.13075135,0,0,-0.10562607,79.768048,142.33258)"
       style="fill:#008000">
      <path
         d="m 0,0 h -1.596 l -0.251,-0.69 -6.577,-18.015 -0.331,-0.906 1.037,-1.531 0.331,0.906 7.135,19.546 z"
         style="fill:#008000;fill-opacity:1;fill-rule:nonzero;stroke:none"
         id="path1182"
         inkscape:connector-curvature="0" />
    </g>
    <g
       id="g1184"
       transform="matrix(0.13075135,0,0,-0.10562607,80.264577,142.33258)"
       style="fill:#008000">
      <path
         d="m 0,0 h -1.596 l -0.251,-0.69 -7.907,-21.657 -0.331,-0.906 1.037,-1.531 0.331,0.907 8.465,23.187 z"
         style="fill:#008000;fill-opacity:1;fill-rule:nonzero;stroke:none"
         id="path1186"
         inkscape:connector-curvature="0" />
    </g>
    <g
       id="g1188"
       transform="matrix(0.13075135,0,0,-0.10562607,80.761027,142.33258)"
       style="fill:#008000">
      <path
         d="m 0,0 h -1.596 l -0.251,-0.69 -9.236,-25.299 -0.327,-0.894 h 0.933 0.663 l 9.562,26.193 z"
         style="fill:#008000;fill-opacity:1;fill-rule:nonzero;stroke:none"
         id="path1190"
         inkscape:connector-curvature="0" />
    </g>
    <g
       id="g1192"
       transform="matrix(0.13075135,0,0,-0.10562607,81.257464,142.33258)"
       style="fill:#008000">
      <path
         d="m 0,0 h -1.596 l -0.251,-0.69 -9.563,-26.193 h 1.596 l 9.562,26.193 z"
         style="fill:#008000;fill-opacity:1;fill-rule:nonzero;stroke:none"
         id="path1194"
         inkscape:connector-curvature="0" />
    </g>
    <g
       id="g1196"
       transform="matrix(0.13075135,0,0,-0.10562607,81.753913,142.33258)"
       style="fill:#008000">
      <path
         d="m 0,0 h -1.596 l -0.251,-0.69 -9.563,-26.193 h 1.596 l 9.562,26.193 z"
         style="fill:#008000;fill-opacity:1;fill-rule:nonzero;stroke:none"
         id="path1198"
         inkscape:connector-curvature="0" />
    </g>
    <g
       id="g1200"
       transform="matrix(0.13075135,0,0,-0.10562607,82.250363,142.33258)"
       style="fill:#008000">
      <path
         d="m 0,0 h -1.596 l -0.251,-0.69 -9.563,-26.193 h 1.596 l 9.562,26.193 z"
         style="fill:#008000;fill-opacity:1;fill-rule:nonzero;stroke:none"
         id="path1202"
         inkscape:connector-curvature="0" />
    </g>
    <g
       id="g1204"
       transform="matrix(0.13075135,0,0,-0.10562607,82.71389,142.40541)"
       style="fill:#008000">
      <path
         d="M 0,0 0.252,0.69 H -1.344 L -1.596,0 -11.158,-26.193 h 1.366 0.23 l 0.268,0.735 z"
         style="fill:#008000;fill-opacity:1;fill-rule:nonzero;stroke:none"
         id="path1206"
         inkscape:connector-curvature="0" />
    </g>
    <g
       id="g1208"
       transform="matrix(0.13075135,0,0,-0.10562607,82.122749,144.35041)"
       style="fill:#008000">
      <path
         d="m 0,0 -1.108,-3.034 3.46,5.106 1.108,3.035 4.858,13.307 0.252,0.69 H 6.974 l -0.252,-0.69 z"
         style="fill:#008000;fill-opacity:1;fill-rule:nonzero;stroke:none"
         id="path1210"
         inkscape:connector-curvature="0" />
    </g>
    <g
       id="g1212"
       transform="matrix(0.13075135,0,0,-0.10562607,83.054274,143.38763)"
       style="fill:#008000">
      <path
         d="M 0,0 3.46,5.106 4.568,8.143 4.99,9.299 5.242,9.989 H 3.646 L 3.395,9.299 1.108,3.036 Z"
         style="fill:#008000;fill-opacity:1;fill-rule:nonzero;stroke:none"
         id="path1214"
         inkscape:connector-curvature="0" />
    </g>
    <g
       id="g1216"
       transform="matrix(0.13075135,0,0,-0.10562607,78.787531,145.25133)"
       style="fill:#008000">
      <path
         d="m 0,0 v -0.75 h 4.219 16.416 54.428 v -15.153 h 0.596 c 0.414,0 0.75,-0.336 0.75,-0.75 v -5.5 c 0,-0.414 -0.336,-0.75 -0.75,-0.75 H 68.712 L 68.7,-23.255 h 7.113 c 0.415,0 0.75,0.336 0.75,0.75 V 0 c 0,0.414 -0.335,0.75 -0.75,0.75 H 22.049 20.467 20.237 18.871 16.67 15.074 12.873 11.278 9.076 7.481 5.279 4.616 3.684 2.804 -0.75 C -0.336,0.75 0,0.414 0,0"
         style="fill:#008000;fill-opacity:1;fill-rule:nonzero;stroke:none"
         id="path1218"
         inkscape:connector-curvature="0" />
    </g>
    <g
       id="g1220"
       transform="matrix(0.13075135,0,0,-0.10562607,86.980292,147.67051)"
       style="fill:#008000">
      <path
         d="M 0,0 C -0.414,0 -0.75,0.336 -0.75,0.75 V 1.148 H -62.659 V 0.354 c 0,-0.336 -0.227,-0.611 -0.533,-0.706 H 4.539 L 4.551,0 Z"
         style="fill:#008000;fill-opacity:1;fill-rule:nonzero;stroke:none"
         id="path1222"
         inkscape:connector-curvature="0" />
    </g>
    <g
       id="g1224"
       transform="matrix(0.13075135,0,0,-0.10562607,88.581996,147.08957)"
       style="fill:#008000">
      <path
         d="m 0,0 h -11.5 v -4 h 3.936 c 0.137,0.247 0.409,0.412 0.684,0.412 0.281,-0.011 0.511,-0.179 0.631,-0.412 H 0 Z"
         style="fill:#008000;fill-opacity:1;fill-rule:nonzero;stroke:none"
         id="path1226"
         inkscape:connector-curvature="0" />
    </g>
    <g
       id="g1228"
       transform="matrix(0.13075135,0,0,-0.10562607,88.778125,147.59129)"
       style="fill:#008000">
      <path
         d="M 0,0 V 5.5 C 0,5.914 -0.336,6.25 -0.75,6.25 H -1.346 -13.75 c -0.414,0 -0.75,-0.336 -0.75,-0.75 V 4.784 c 0.338,0.001 0.565,0.003 0.617,0.005 0.42,0.053 0.762,-0.307 0.779,-0.719 0.016,-0.413 -0.302,-0.761 -0.714,-0.779 C -13.874,3.288 -14.11,3.286 -14.5,3.284 V 0.398 0 c 0,-0.414 0.336,-0.75 0.75,-0.75 h 4.551 l 0.043,1.188 c 0.004,0.115 0.04,0.218 0.092,0.312 H -13 v 4 h 11.5 v -4 H -7.749 C -7.692,0.639 -7.652,0.519 -7.656,0.386 L -7.697,-0.75 H -0.75 C -0.336,-0.75 0,-0.414 0,0"
         style="fill:#008000;fill-opacity:1;fill-rule:nonzero;stroke:none"
         id="path1230"
         inkscape:connector-curvature="0" />
    </g>
    <g
       id="g1232"
       transform="matrix(0.13075135,0,0,-0.10562607,79.36774,146.31388)"
       style="fill:#008000">
      <path
         d="M 0,0 C 0.811,1.495 2.331,2.396 4.076,2.42 5.479,2.401 6.519,1.888 7.207,1.153 7.115,1.013 7.028,0.866 6.946,0.716 6,-1.028 5.969,-3.085 6.832,-4.789 6.039,-5.616 4.898,-6.327 3.381,-6.8 1.536,-6.19 0.595,-5.217 0.129,-4.499 -0.735,-3.169 -0.785,-1.444 0,0 M 8.235,-1.225 C 8.279,-1.904 8.156,-2.608 7.855,-3.286 7.603,-2.339 7.677,-1.312 8.083,-0.373 8.167,-0.654 8.218,-0.941 8.235,-1.225 M 12.341,2.42 C 13.739,2.401 14.772,1.884 15.462,1.138 15.374,1.002 15.29,0.861 15.212,0.716 14.244,-1.065 14.232,-3.174 15.154,-4.898 14.38,-5.714 13.263,-6.402 11.774,-6.842 10.17,-6.337 9.226,-5.56 8.68,-4.89 c 0.799,1.185 1.132,2.502 1.052,3.761 -0.051,0.824 -0.271,1.579 -0.628,2.24 0.842,0.82 1.982,1.291 3.237,1.309 m 8.265,0 C 22.005,2.401 23.038,1.884 23.728,1.139 23.64,1.002 23.556,0.861 23.477,0.716 22.509,-1.065 22.498,-3.175 23.42,-4.898 c -0.775,-0.817 -1.892,-1.504 -3.38,-1.944 -1.537,0.484 -2.468,1.217 -3.024,1.866 0.728,1.12 1.049,2.366 1.002,3.58 -0.034,0.85 -0.265,1.705 -0.685,2.472 0.846,0.842 2,1.326 3.273,1.344 m 4.178,-3.876 c 0.026,-0.649 -0.093,-1.312 -0.365,-1.946 -0.289,0.97 -0.23,2.035 0.185,3.006 0.107,-0.349 0.166,-0.707 0.18,-1.06 M 28.871,2.42 C 30.27,2.401 31.303,1.884 31.993,1.138 31.904,1.002 31.82,0.86 31.742,0.716 c -0.968,-1.782 -0.979,-3.891 -0.056,-5.615 -0.776,-0.816 -1.892,-1.503 -3.38,-1.943 -1.537,0.484 -2.468,1.217 -3.025,1.866 0.729,1.119 1.05,2.366 1.002,3.58 -0.033,0.85 -0.264,1.705 -0.684,2.472 0.845,0.842 1.999,1.326 3.272,1.344 m 3.997,-2.816 c 0.108,-0.349 0.167,-0.708 0.182,-1.06 0.025,-0.649 -0.094,-1.312 -0.366,-1.946 -0.289,0.97 -0.229,2.034 0.184,3.006 m 4.269,2.816 c 1.373,-0.019 2.394,-0.518 3.084,-1.242 -0.066,-0.1 -0.128,-0.201 -0.188,-0.305 -1.035,-1.802 -1.041,-3.932 -0.016,-5.7 -0.778,-0.847 -1.915,-1.563 -3.447,-2.015 -1.537,0.484 -2.467,1.217 -3.023,1.866 0.727,1.119 1.049,2.366 1.001,3.579 -0.033,0.851 -0.265,1.706 -0.685,2.473 0.847,0.841 2,1.326 3.274,1.344 m 8.264,0 c 2.767,-0.036 4.106,-2.026 4.179,-3.876 0.081,-2.069 -1.301,-4.269 -4.469,-5.301 -1.616,0.491 -2.613,1.227 -3.223,1.902 0.674,1.086 0.971,2.288 0.925,3.459 -0.034,0.865 -0.272,1.734 -0.706,2.512 0.848,0.816 2.011,1.286 3.294,1.304 m -3.178,-9.726 c -1.11,-0.088 -2.089,-0.089 -2.958,-0.024 0.655,0.378 1.215,0.812 1.683,1.287 0.409,-0.418 0.933,-0.844 1.603,-1.233 -0.109,-0.011 -0.218,-0.021 -0.328,-0.03 m -1.114,6.986 c 0.122,-0.372 0.191,-0.757 0.205,-1.136 0.025,-0.626 -0.085,-1.265 -0.337,-1.88 -0.335,0.978 -0.291,2.042 0.132,3.016 M 33.957,-7.306 C 32.848,-7.394 31.866,-7.395 31,-7.33 c 0.608,0.351 1.135,0.751 1.581,1.185 0.36,-0.386 0.823,-0.787 1.415,-1.158 -0.014,-0.001 -0.026,-0.002 -0.039,-0.003 m -8.265,0 c -1.109,-0.088 -2.088,-0.089 -2.958,-0.024 0.609,0.351 1.135,0.751 1.582,1.185 0.361,-0.385 0.823,-0.787 1.414,-1.158 z m -9.539,3.905 c -0.288,0.969 -0.228,2.034 0.185,3.005 0.107,-0.349 0.167,-0.707 0.181,-1.06 0.025,-0.648 -0.093,-1.311 -0.366,-1.945 m 1.274,-3.905 c -1.109,-0.088 -2.09,-0.089 -2.958,-0.024 0.608,0.351 1.135,0.751 1.582,1.185 0.36,-0.385 0.823,-0.787 1.415,-1.158 -0.014,-0.001 -0.027,-0.002 -0.039,-0.003 m -8.266,0 C 7.954,-7.401 6.898,-7.394 5.977,-7.312 6.643,-6.937 7.215,-6.511 7.698,-6.049 8.07,-6.464 8.56,-6.9 9.2,-7.303 9.187,-7.304 9.174,-7.305 9.161,-7.306 M -2.238,-8.792 c 3.425,0.01 3.432,0.011 3.505,0.021 0.754,0.096 1.455,0.235 2.102,0.412 1.498,-0.425 3.43,-0.639 5.909,-0.443 0.909,0.073 1.742,0.209 2.5,0.403 1.477,-0.398 3.365,-0.593 5.766,-0.403 0.908,0.073 1.741,0.21 2.5,0.403 1.476,-0.398 3.359,-0.593 5.766,-0.403 0.908,0.073 1.741,0.209 2.499,0.403 1.088,-0.293 2.399,-0.475 3.975,-0.475 0.562,0 1.159,0.022 1.79,0.072 0.908,0.073 1.741,0.21 2.5,0.403 1.477,-0.398 3.361,-0.593 5.766,-0.403 1.03,0.081 1.962,0.247 2.8,0.484 1.221,-0.322 2.727,-0.513 4.505,-0.508 l 1.438,0.003 c 3.083,0.004 5.324,0.008 6.389,0.013 0.39,0.002 0.626,0.005 0.681,0.007 0.412,0.018 0.731,0.366 0.714,0.78 -0.016,0.412 -0.358,0.771 -0.778,0.718 C 58.036,-7.307 57.81,-7.308 57.472,-7.31 56.105,-7.317 52.835,-7.321 51.08,-7.323 l -1.443,-0.003 c -0.719,0.005 -1.36,0.025 -1.959,0.083 2.421,1.461 3.485,3.705 3.4,5.846 C 50.977,1.19 49.048,3.809 45.55,3.917 45.525,3.92 45.501,3.921 45.477,3.921 H 45.322 C 45.297,3.921 45.271,3.92 45.246,3.917 43.689,3.866 42.27,3.295 41.196,2.319 40.27,3.24 38.956,3.865 37.285,3.917 37.261,3.92 37.236,3.921 37.212,3.921 H 37.058 C 37.031,3.921 37.006,3.92 36.98,3.917 35.435,3.864 34.029,3.283 32.96,2.291 32.031,3.228 30.708,3.865 29.02,3.917 28.995,3.92 28.971,3.921 28.946,3.921 H 28.792 C 28.766,3.921 28.74,3.92 28.715,3.917 27.169,3.864 25.764,3.283 24.694,2.291 23.767,3.228 22.442,3.865 20.753,3.917 20.729,3.92 20.705,3.921 20.681,3.921 H 20.527 C 20.501,3.921 20.476,3.92 20.45,3.917 18.904,3.864 17.499,3.284 16.43,2.291 15.501,3.228 14.178,3.865 12.489,3.917 12.465,3.92 12.44,3.921 12.416,3.921 H 12.262 C 12.235,3.921 12.21,3.92 12.185,3.917 10.654,3.864 9.261,3.295 8.195,2.319 7.216,3.282 5.832,3.867 4.224,3.917 4.2,3.92 4.175,3.921 4.15,3.921 H 3.996 C 3.97,3.921 3.944,3.92 3.919,3.917 1.681,3.841 -0.266,2.656 -1.318,0.716 c -1.048,-1.929 -0.975,-4.24 0.189,-6.032 0.382,-0.589 1.013,-1.32 2.029,-1.965 -0.539,-0.004 -1.87,-0.007 -3.142,-0.011 -1.09,-0.003 -1.769,-0.005 -2.195,-0.007 v -1.5 c 0.543,0.002 1.356,0.005 2.199,0.007"
         style="fill:#008000;fill-opacity:1;fill-rule:nonzero;stroke:none"
         id="path1234"
         inkscape:connector-curvature="0" />
    </g>
    <g
       id="g1236"
       transform="matrix(0.13075135,0,0,-0.10562607,75.832524,146.89808)"
       style="fill:#008000">
      <path
         d="M 0,0 0.75,2.053 V 8.084 L 0,6.031 v 4.371 l 0.75,2.054 v 2.384 h 0.87 l 0.205,0.563 H 3.421 L 3.216,14.84 h 2.202 l 0.205,0.563 H 7.219 L 7.013,14.84 h 2.202 l 0.205,0.563 h 1.596 L 10.81,14.84 h 2.202 l 0.205,0.563 h 1.596 L 14.607,14.84 h 2.201 l 0.206,0.563 h 1.595 L 18.404,14.84 h 2.201 l 0.206,0.563 H 21.85 V 13.878 L 21.1,11.825 V 5.796 l 0.75,2.053 V 3.478 L 21.1,1.425 v -6.03 l 0.75,2.054 v -4.371 l -0.082,-0.224 h -1.596 l 0.343,0.938 h -2.201 l -0.343,-0.938 h -1.595 l 0.342,0.938 h -2.201 l -0.343,-0.938 h -1.595 l 0.342,0.938 H 10.72 L 10.378,-7.146 H 8.782 l 0.342,0.938 H 6.923 L 6.581,-7.146 H 4.985 l 0.342,0.938 H 3.126 L 2.784,-7.146 H 1.188 L 1.53,-6.208 H 0.75 v 0.043 3.847 L 0,-4.371 Z m 22.6,-6.958 v 0.793 2.897 1.5 16.608 0.75 c 0,0.414 -0.336,0.75 -0.75,0.75 H 0 c -0.414,0 -0.75,-0.336 -0.75,-0.75 V -6.915 -6.958 c 0,-0.415 0.336,-0.75 0.75,-0.75 h 21.85 c 0.077,0 0.148,0.022 0.218,0.043 0.306,0.095 0.532,0.37 0.532,0.707"
         style="fill:#008000;fill-opacity:1;fill-rule:nonzero;stroke:none"
         id="path1238"
         inkscape:connector-curvature="0" />
    </g>
    <g
       id="g1240"
       transform="matrix(0.13075135,0,0,-0.10562607,76.279851,145.27116)"
       style="fill:#008000">
      <path
         d="M 0,0 H -1.596 L -1.801,-0.562 -2.672,-2.947 -3.421,-5 v -4.372 l 0.749,2.054 2.467,6.756 z"
         style="fill:#008000;fill-opacity:1;fill-rule:nonzero;stroke:none"
         id="path1242"
         inkscape:connector-curvature="0" />
    </g>
    <g
       id="g1244"
       transform="matrix(0.13075135,0,0,-0.10562607,76.74955,145.33055)"
       style="fill:#008000">
      <path
         d="M 0,0 0.205,0.562 H -1.39 L -1.596,0 -6.264,-12.787 -7.013,-14.84 v -4.371 l 0.749,2.053 z"
         style="fill:#008000;fill-opacity:1;fill-rule:nonzero;stroke:none"
         id="path1246"
         inkscape:connector-curvature="0" />
    </g>
    <g
       id="g1248"
       transform="matrix(0.13075135,0,0,-0.10562607,76.032613,147.55386)"
       style="fill:#008000">
      <path
         d="M 0,0 -0.342,-0.937 H 1.253 L 1.596,0 9.28,21.049 9.485,21.611 H 7.89 L 7.684,21.049 Z"
         style="fill:#008000;fill-opacity:1;fill-rule:nonzero;stroke:none"
         id="path1250"
         inkscape:connector-curvature="0" />
    </g>
    <g
       id="g1252"
       transform="matrix(0.13075135,0,0,-0.10562607,76.529064,147.55386)"
       style="fill:#008000">
      <path
         d="M 0,0 -0.342,-0.937 H 1.253 L 1.596,0 9.28,21.049 9.485,21.611 H 7.89 L 7.684,21.049 Z"
         style="fill:#008000;fill-opacity:1;fill-rule:nonzero;stroke:none"
         id="path1254"
         inkscape:connector-curvature="0" />
    </g>
    <g
       id="g1256"
       transform="matrix(0.13075135,0,0,-0.10562607,77.025513,147.55386)"
       style="fill:#008000">
      <path
         d="M 0,0 -0.342,-0.937 H 1.253 L 1.596,0 9.28,21.049 9.485,21.611 H 7.89 L 7.684,21.049 Z"
         style="fill:#008000;fill-opacity:1;fill-rule:nonzero;stroke:none"
         id="path1258"
         inkscape:connector-curvature="0" />
    </g>
    <g
       id="g1260"
       transform="matrix(0.13075135,0,0,-0.10562607,77.521963,147.55386)"
       style="fill:#008000">
      <path
         d="M 0,0 -0.342,-0.937 H 1.253 L 1.596,0 l 6.583,18.033 0.75,2.054 v 1.524 H 7.89 L 7.684,21.049 Z"
         style="fill:#008000;fill-opacity:1;fill-rule:nonzero;stroke:none"
         id="path1262"
         inkscape:connector-curvature="0" />
    </g>
    <g
       id="g1264"
       transform="matrix(0.13075135,0,0,-0.10562607,78.018399,147.55386)"
       style="fill:#008000">
      <path
         d="M 0,0 -0.342,-0.937 H 1.253 L 1.596,0 4.382,7.633 5.132,9.686 v 4.371 l -0.75,-2.053 z"
         style="fill:#008000;fill-opacity:1;fill-rule:nonzero;stroke:none"
         id="path1266"
         inkscape:connector-curvature="0" />
    </g>
    <g
       id="g1268"
       transform="matrix(0.13075135,0,0,-0.10562607,78.51485,147.55386)"
       style="fill:#008000">
      <path
         d="m 0,0 -0.342,-0.937 h 1.595 l 0.082,0.223 V 3.657 L 0.585,1.604 Z"
         style="fill:#008000;fill-opacity:1;fill-rule:nonzero;stroke:none"
         id="path1270"
         inkscape:connector-curvature="0" />
    </g>
  </g>
</svg>
