<?xml version="1.0" encoding="UTF-8" standalone="no"?>
<!-- Created with Inkscape (http://www.inkscape.org/) -->

<svg
   xmlns:dc="http://purl.org/dc/elements/1.1/"
   xmlns:cc="http://creativecommons.org/ns#"
   xmlns:rdf="http://www.w3.org/1999/02/22-rdf-syntax-ns#"
   xmlns:svg="http://www.w3.org/2000/svg"
   xmlns="http://www.w3.org/2000/svg"
   xmlns:sodipodi="http://sodipodi.sourceforge.net/DTD/sodipodi-0.dtd"
   xmlns:inkscape="http://www.inkscape.org/namespaces/inkscape"
   width="10.632996mm"
   height="14.427928mm"
   viewBox="0 0 10.632995 14.427927"
   version="1.1"
   id="svg1810"
   sodipodi:docname="Fase1.svg"
   inkscape:version="0.92.3 (2405546, 2018-03-11)">
  <defs
     id="defs1804" />
  <sodipodi:namedview
     id="base"
     pagecolor="#ffffff"
     bordercolor="#666666"
     borderopacity="1.0"
     inkscape:pageopacity="0.0"
     inkscape:pageshadow="2"
     inkscape:zoom="7.9195959"
     inkscape:cx="30.764784"
     inkscape:cy="27.367599"
     inkscape:document-units="mm"
     inkscape:current-layer="layer1"
     showgrid="false"
     inkscape:window-width="1366"
     inkscape:window-height="717"
     inkscape:window-x="0"
     inkscape:window-y="27"
     inkscape:window-maximized="1"
     fit-margin-top="0"
     fit-margin-left="0"
     fit-margin-right="0"
     fit-margin-bottom="0" />
  <metadata
     id="metadata1807">
    <rdf:RDF>
      <cc:Work
         rdf:about="">
        <dc:format>image/svg+xml</dc:format>
        <dc:type
           rdf:resource="http://purl.org/dc/dcmitype/StillImage" />
        <dc:title></dc:title>
      </cc:Work>
    </rdf:RDF>
  </metadata>
  <g
     inkscape:label="Camada 1"
     inkscape:groupmode="layer"
     id="layer1"
     transform="translate(-77.16701,-138.89664)">
    <g
       id="g60"
       transform="matrix(0.12375272,0,0,-0.11634302,86.212193,145.28007)"
       style="fill:#008000">
      <path
         d="M 0,0 H 1.15 L 0.833,-0.867 H 2.731 L 3.048,0 H 4.645 L 4.328,-0.867 H 5.931 V -1.672 L 6.542,0 h 0.139 v -0.117 -3.871 l -0.75,-2.051 v -3.156 h 0.744 l 0.006,0.016 v -0.016 c 0.414,0 0.75,-0.336 0.75,-0.75 v 9.828 c 0,0.414 -0.336,0.75 -0.75,0.75 h -5.3 z"
         style="fill:#008000;fill-opacity:1;fill-rule:nonzero;stroke:none"
         id="path62"
         inkscape:connector-curvature="0" />
    </g>
    <g
       id="g64"
       transform="matrix(0.12375272,0,0,-0.11634302,77.567486,146.34979)"
       style="fill:#008000">
      <path
         d="m 0,0 v 0.959 l 0.75,2.052 v 5.19 L 0,6.149 V 9.078 9.195 H 1.114 L 0.797,8.328 H 2.695 L 3.012,9.195 H 4.608 L 4.291,8.328 H 6.145 C 6.17,8.358 6.196,8.386 6.222,8.416 L 6.506,9.195 H 6.951 C 7.189,9.424 7.428,9.636 7.664,9.828 H 0 c -0.414,0 -0.75,-0.336 -0.75,-0.75 v -9.82 h 0.002 C -0.743,-0.332 -0.411,0 0,0"
         style="fill:#008000;fill-opacity:1;fill-rule:nonzero;stroke:none"
         id="path66"
         inkscape:connector-curvature="0" />
    </g>
    <g
       id="g68"
       transform="matrix(0.12375272,0,0,-0.11634302,77.705319,145.28007)"
       style="fill:#008000">
      <path
         d="m 0,0 h -1.114 v -0.117 -2.929 l 0.75,2.052 0.047,0.127 z"
         style="fill:#008000;fill-opacity:1;fill-rule:nonzero;stroke:none"
         id="path70"
         inkscape:connector-curvature="0" />
    </g>
    <g
       id="g72"
       transform="matrix(0.12375272,0,0,-0.11634302,78.137761,145.28007)"
       style="fill:#008000">
      <path
         d="m 0,0 h -1.597 l -0.317,-0.867 -1.944,-5.317 -0.75,-2.052 v -0.959 c 0,0 0,0 0,0 h 1.246 l 3.045,8.328 z"
         style="fill:#008000;fill-opacity:1;fill-rule:nonzero;stroke:none"
         id="path74"
         inkscape:connector-curvature="0" />
    </g>
    <g
       id="g76"
       transform="matrix(0.12375272,0,0,-0.11634302,78.427665,145.28007)"
       style="fill:#008000">
      <path
         d="M 0,0 H -0.445 L -0.729,-0.779 C -0.491,-0.499 -0.247,-0.238 0,0"
         style="fill:#008000;fill-opacity:1;fill-rule:nonzero;stroke:none"
         id="path78"
         inkscape:connector-curvature="0" />
    </g>
    <g
       id="g80"
       transform="matrix(0.12375272,0,0,-0.11634302,86.271633,145.49303)"
       style="fill:#008000">
      <path
         d="M 0,0 0.352,0.964 0.669,1.831 H -0.48 L -0.969,1.607 C -0.502,0.951 -0.184,0.375 0,0"
         style="fill:#008000;fill-opacity:1;fill-rule:nonzero;stroke:none"
         id="path82"
         inkscape:connector-curvature="0" />
    </g>
    <g
       id="g84"
       transform="matrix(0.12375272,0,0,-0.11634302,86.379171,145.8455)"
       style="fill:#008000">
      <path
         d="M 0,0 C 0.415,-0.375 0.784,-0.762 1.1,-1.143 L 2.978,3.993 3.295,4.86 H 1.699 L 1.382,3.993 -0.023,0.151 C -0.017,0.1 -0.006,0.051 0,0"
         style="fill:#008000;fill-opacity:1;fill-rule:nonzero;stroke:none"
         id="path86"
         inkscape:connector-curvature="0" />
    </g>
    <g
       id="g88"
       transform="matrix(0.12375272,0,0,-0.11634302,87.038947,145.74401)"
       style="fill:#008000">
      <path
         d="M 0,0 V 3.871 3.988 H -0.138 L -0.75,2.316 -2.994,-3.82 c 0.292,-0.52 0.441,-0.88 0.462,-0.933 0.024,-0.059 0.044,-0.12 0.06,-0.18 0.037,-0.09 0.055,-0.184 0.089,-0.274 h 0.479 l 1.154,3.156 z"
         style="fill:#008000;fill-opacity:1;fill-rule:nonzero;stroke:none"
         id="path90"
         inkscape:connector-curvature="0" />
    </g>
    <g
       id="g92"
       transform="matrix(0.12375272,0,0,-0.11634302,87.038242,146.34979)"
       style="fill:#008000">
      <path
         d="M 0,0 H 0.006 V 0.016 Z"
         style="fill:#008000;fill-opacity:1;fill-rule:nonzero;stroke:none"
         id="path94"
         inkscape:connector-curvature="0" />
    </g>
    <g
       id="g140"
       transform="matrix(0.12375272,0,0,-0.11634302,78.427665,145.28007)"
       style="fill:#008000">
      <path
         d="m 0,0 c -0.247,-0.238 -0.491,-0.499 -0.729,-0.779 -0.026,-0.03 -0.052,-0.058 -0.077,-0.088 -0.852,-1.027 -1.595,-2.328 -1.937,-3.951 -0.068,-0.323 -0.017,-0.643 0.111,-0.925 0.534,0.422 1.038,0.75 1.458,0.992 0.861,3.226 3.653,4.909 4.694,5.433 C 3.403,1.223 3.294,1.731 3.195,2.187 2.814,2.017 1.81,1.524 0.714,0.633 0.477,0.441 0.239,0.23 0,0"
         style="fill:#008000;fill-opacity:1;fill-rule:nonzero;stroke:none"
         id="path142"
         inkscape:connector-curvature="0" />
    </g>
    <g
       id="g144"
       transform="matrix(0.12375272,0,0,-0.11634302,78.306312,145.81985)"
       style="fill:#008000">
      <path
         d="M 0,0 C 0.35,0.193 0.617,0.317 0.76,0.379 0.795,0.537 0.819,0.699 0.864,0.853 0.599,0.724 0.308,0.458 0,0"
         style="fill:#008000;fill-opacity:1;fill-rule:nonzero;stroke:none"
         id="path146"
         inkscape:connector-curvature="0" />
    </g>
    <g
       id="g148"
       transform="matrix(0.12375272,0,0,-0.11634302,80.128794,145.10896)"
       style="fill:#008000">
      <path
         d="m 0,0 c 0.012,0 0.024,0.002 0.036,0.002 0.573,0 1.124,-0.081 1.68,-0.187 0.102,0.069 0.199,0.129 0.296,0.19 C 1.791,0.281 1.423,0.579 0.847,0.892 1.46,0.763 2.014,0.559 2.524,0.312 3.057,0.612 3.428,0.766 3.481,0.788 3.738,0.891 3.992,0.981 4.244,1.062 3.376,1.634 2.354,2.107 1.156,2.36 1.052,2.381 0.948,2.392 0.846,2.392 0.35,2.392 -0.103,2.135 -0.381,1.727 -0.261,1.184 -0.133,0.603 0,0"
         style="fill:#008000;fill-opacity:1;fill-rule:nonzero;stroke:none"
         id="path150"
         inkscape:connector-curvature="0" />
    </g>
    <g
       id="g152"
       transform="matrix(0.12375272,0,0,-0.11634302,80.559626,145.0173)"
       style="fill:#008000">
      <path
         d="m 0,0 c -0.054,-0.022 -0.424,-0.176 -0.957,-0.475 -0.157,-0.089 -0.33,-0.193 -0.512,-0.308 -0.098,-0.061 -0.194,-0.121 -0.297,-0.19 -0.445,-0.299 -0.936,-0.674 -1.426,-1.126 0.129,-0.584 0.259,-1.172 0.386,-1.75 1.524,1.71 3.364,2.457 3.364,2.457 1.104,0.442 2.045,0.606 2.931,0.606 0.573,0 1.124,-0.081 1.68,-0.187 0.103,0.069 0.199,0.129 0.296,0.19 C 5.245,-0.507 4.876,-0.208 4.3,0.104 4.91,-0.024 5.462,-0.227 5.971,-0.472 L 6.852,0.765 C 6.181,1.111 5.44,1.397 4.609,1.572 4.505,1.594 4.402,1.604 4.299,1.604 3.707,1.604 3.16,1.252 2.921,0.695 2.208,0.647 1.494,0.507 0.763,0.274 0.511,0.194 0.257,0.103 0,0"
         style="fill:#008000;fill-opacity:1;fill-rule:nonzero;stroke:none"
         id="path154"
         inkscape:connector-curvature="0" />
    </g>
    <g
       id="g156"
       transform="matrix(0.12375272,0,0,-0.11634302,80.75194,145.60008)"
       style="fill:#008000">
      <path
         d="M 0,0 C 0.336,-0.088 0.657,-0.191 0.964,-0.31 L 4.408,4.525 C 4.255,4.438 4.088,4.337 3.911,4.226 3.814,4.165 3.718,4.105 3.615,4.036 2.436,3.244 0.945,1.932 0,0"
         style="fill:#008000;fill-opacity:1;fill-rule:nonzero;stroke:none"
         id="path158"
         inkscape:connector-curvature="0" />
    </g>
    <g
       id="g160"
       transform="matrix(0.12375272,0,0,-0.11634302,83.563118,144.99276)"
       style="fill:#008000">
      <path
         d="m 0,0 -0.743,-1.043 c 0.261,0.029 0.517,0.046 0.766,0.046 0.573,0 1.124,-0.081 1.68,-0.187 0.103,0.069 0.199,0.129 0.296,0.19 -0.22,0.276 -0.589,0.575 -1.165,0.887 0.613,-0.129 1.167,-0.333 1.678,-0.579 0.532,0.299 0.903,0.454 0.956,0.475 0.257,0.103 0.511,0.194 0.764,0.274 C 3.363,0.635 2.341,1.109 1.143,1.361 1.039,1.383 0.935,1.393 0.833,1.393 0.382,1.393 -0.041,1.187 -0.323,0.844 L -0.117,0.697 C 0.107,0.537 0.16,0.225 0,0"
         style="fill:#008000;fill-opacity:1;fill-rule:nonzero;stroke:none"
         id="path162"
         inkscape:connector-curvature="0" />
    </g>
    <g
       id="g164"
       transform="matrix(0.12375272,0,0,-0.11634302,83.992342,145.0173)"
       style="fill:#008000">
      <path
         d="m 0,0 c -0.054,-0.022 -0.424,-0.176 -0.957,-0.475 -0.157,-0.089 -0.33,-0.193 -0.512,-0.308 -0.098,-0.061 -0.194,-0.121 -0.297,-0.19 -1.178,-0.792 -2.67,-2.104 -3.615,-4.036 0.507,-0.132 0.986,-0.297 1.429,-0.498 1.506,2.9 4.51,4.115 4.51,4.115 1.104,0.442 2.045,0.606 2.931,0.606 0.573,0 1.124,-0.081 1.68,-0.187 0.103,0.069 0.199,0.129 0.296,0.19 C 5.245,-0.507 4.876,-0.208 4.3,0.104 4.913,-0.025 5.467,-0.229 5.978,-0.475 6.51,-0.176 6.881,-0.022 6.935,0 7.192,0.103 7.446,0.194 7.698,0.274 6.829,0.846 5.808,1.32 4.609,1.572 4.505,1.594 4.402,1.604 4.299,1.604 3.707,1.604 3.16,1.252 2.921,0.695 2.208,0.647 1.494,0.507 0.763,0.274 0.511,0.194 0.257,0.103 0,0"
         style="fill:#008000;fill-opacity:1;fill-rule:nonzero;stroke:none"
         id="path166"
         inkscape:connector-curvature="0" />
    </g>
    <g
       id="g168"
       transform="matrix(0.12375272,0,0,-0.11634302,86.078713,145.53081)"
       style="fill:#008000">
      <path
         d="M 0,0 C -0.011,0.019 -0.023,0.038 -0.034,0.057"
         style="fill:#008000;stroke:#424651;stroke-width:0.75;stroke-linecap:round;stroke-linejoin:round;stroke-miterlimit:4;stroke-dasharray:none;stroke-opacity:1"
         id="path170"
         inkscape:connector-curvature="0" />
    </g>
    <g
       id="g172"
       transform="matrix(0.12375272,0,0,-0.11634302,84.850529,145.0173)"
       style="fill:#008000">
      <path
         d="m 0,0 c -0.054,-0.022 -0.424,-0.176 -0.957,-0.475 -0.157,-0.089 -0.33,-0.193 -0.512,-0.308 -0.098,-0.061 -0.194,-0.121 -0.297,-0.19 -0.781,-0.525 -1.701,-1.275 -2.51,-2.283 L 5.636,1.285 C 5.308,1.396 4.968,1.496 4.609,1.572 4.505,1.594 4.401,1.604 4.299,1.604 3.707,1.604 3.16,1.252 2.921,0.695 2.208,0.647 1.494,0.507 0.763,0.274 0.511,0.194 0.257,0.103 0,0"
         style="fill:#008000;fill-opacity:1;fill-rule:nonzero;stroke:none"
         id="path174"
         inkscape:connector-curvature="0" />
    </g>
    <g
       id="g176"
       transform="matrix(0.12375272,0,0,-0.11634302,86.124305,145.60913)"
       style="fill:#008000">
      <path
         d="M 0,0 C -0.004,-0.005 -0.01,-0.008 -0.014,-0.013 0.093,-0.249 0.186,-0.492 0.268,-0.74 0.95,-1.118 1.542,-1.564 2.06,-2.032 2.054,-1.981 2.043,-1.932 2.036,-1.881 1.935,-1.109 1.756,-0.35 1.451,0.378 1.436,0.439 1.416,0.5 1.392,0.559 1.379,0.592 1.309,0.757 1.19,0.998 1.006,1.373 0.689,1.949 0.221,2.604 L -1.17,1.967 C -0.367,0.903 0,0 0,0"
         style="fill:#008000;fill-opacity:1;fill-rule:nonzero;stroke:none"
         id="path178"
         inkscape:connector-curvature="0" />
    </g>
    <g
       id="g180"
       transform="matrix(0.12375272,0,0,-0.11634302,79.366788,145.73832)"
       style="fill:#008000">
      <path
         d="M 0,0 C 0.731,0.233 1.445,0.373 2.158,0.421 2.397,0.978 2.944,1.33 3.536,1.33 3.638,1.33 3.742,1.32 3.846,1.298 4.737,1.11 5.528,0.799 6.235,0.418 5.316,4.582 4.046,10.337 4.046,10.337 3.705,11.901 2.164,12.908 0.46,12.973 l -0.511,2.339 -2.204,-0.481 0.51,-2.337 c -1.524,-0.764 -2.508,-2.306 -2.161,-3.893 0,0 0.831,-3.84 1.626,-7.518 C -1.422,0.816 -0.665,0.438 0,0"
         style="fill:#008000;fill-opacity:1;fill-rule:nonzero;stroke:none"
         id="path182"
         inkscape:connector-curvature="0" />
    </g>
    <g
       id="g184"
       transform="matrix(0.12375272,0,0,-0.11634302,78.863325,145.20071)"
       style="fill:#008000">
      <path
         d="M 0,0 C 0.221,-1.02 0.467,-2.157 0.713,-3.295 0.801,-3.298 0.89,-3.304 0.979,-3.323 1.26,-3.382 1.527,-3.457 1.789,-3.538 0.993,0.14 0.162,3.98 0.162,3.98 -0.184,5.567 0.8,7.109 2.323,7.873 L 1.813,10.21 4.017,10.691 4.528,8.352 C 6.232,8.287 7.773,7.28 8.115,5.716 c 0,0 1.269,-5.755 2.188,-9.919 0.244,-0.131 0.477,-0.271 0.7,-0.418 0.132,0.042 0.262,0.074 0.392,0.11 -0.155,0.702 -0.322,1.459 -0.494,2.238 -0.127,0.579 -0.257,1.167 -0.386,1.75 C 10.417,-0.08 10.321,0.359 10.226,0.789 10.093,1.392 9.965,1.973 9.845,2.516 9.411,4.483 9.091,5.932 9.091,5.932 8.721,7.628 7.234,8.922 5.352,9.265 l -0.358,1.639 c -0.102,0.468 -0.516,0.787 -0.976,0.787 -0.071,0 -0.142,-0.007 -0.214,-0.023 L 1.6,11.187 C 1.341,11.13 1.115,10.973 0.971,10.75 0.828,10.527 0.78,10.256 0.836,9.996 L 1.193,8.364 C -0.399,7.27 -1.194,5.503 -0.815,3.767 c 0,0 0.196,-0.908 0.489,-2.262 C -0.227,1.049 -0.117,0.541 0,0"
         style="fill:#008000;fill-opacity:1;fill-rule:nonzero;stroke:none"
         id="path186"
         inkscape:connector-curvature="0" />
    </g>
    <g
       id="g188"
       transform="matrix(0.12375272,0,0,-0.11634302,81.083151,145.73832)"
       style="fill:#008000">
      <path
         d="M 0,0 C 0.731,0.233 1.445,0.373 2.158,0.421 2.397,0.978 2.944,1.33 3.536,1.33 3.638,1.33 3.742,1.32 3.846,1.298 4.975,1.06 5.943,0.624 6.778,0.097 L 7.074,0.512 C 7.235,0.737 7.548,0.788 7.771,0.629 L 8.218,0.311 c 0.292,0.05 0.584,0.09 0.875,0.11 0.238,0.557 0.786,0.909 1.378,0.909 0.102,0 0.206,-0.01 0.31,-0.032 1.198,-0.252 2.22,-0.726 3.088,-1.298 0.159,0.05 0.315,0.09 0.472,0.132 L 18.935,6.581 8.748,13.839 -0.783,0.459 C -0.51,0.315 -0.247,0.163 0,0"
         style="fill:#008000;fill-opacity:1;fill-rule:nonzero;stroke:none"
         id="path190"
         inkscape:connector-curvature="0" />
    </g>
    <g
       id="g192"
       transform="matrix(0.12375272,0,0,-0.11634302,81.298554,145.0722)"
       style="fill:#008000">
      <path
         d="m 0,0 -0.009,-0.013 -3.444,-4.834 c 0.325,-0.126 0.636,-0.265 0.929,-0.419 L 7.007,8.113 17.195,0.856 12.601,-5.594 c 0.475,0.127 0.944,0.212 1.412,0.259 l 3.543,4.975 0.743,1.043 c 0.16,0.225 0.108,0.537 -0.117,0.697 L 17.976,1.527 7.18,9.218 C 7.073,9.295 6.938,9.325 6.807,9.304 6.676,9.282 6.56,9.209 6.483,9.101 L 0.881,1.236 Z"
         style="fill:#008000;fill-opacity:1;fill-rule:nonzero;stroke:none"
         id="path194"
         inkscape:connector-curvature="0" />
    </g>
    <g
       id="g196"
       transform="matrix(0.12375272,0,0,-0.11634302,82.044844,145.66509)"
       style="fill:#008000">
      <path
         d="m 0,0 c -0.224,0.158 -0.536,0.108 -0.697,-0.117 l -0.296,-0.416 c 0.051,-0.032 0.106,-0.063 0.157,-0.096 0.432,0.137 0.859,0.238 1.283,0.311 z"
         style="fill:#008000;fill-opacity:1;fill-rule:nonzero;stroke:none"
         id="path198"
         inkscape:connector-curvature="0" />
    </g>
    <g
       id="g200"
       transform="matrix(0.12375272,0,0,-0.11634302,84.515866,145.73832)"
       style="fill:#008000">
      <path
         d="M 0,0 C 0.731,0.233 1.445,0.373 2.158,0.421 2.397,0.978 2.944,1.33 3.536,1.33 3.638,1.33 3.742,1.32 3.846,1.298 4.214,1.22 4.561,1.117 4.897,1.002 L 14.922,5.595 13.483,8.738 -2.879,1.242 C -1.772,0.981 -0.816,0.538 0,0"
         style="fill:#008000;fill-opacity:1;fill-rule:nonzero;stroke:none"
         id="path202"
         inkscape:connector-curvature="0" />
    </g>
    <g
       id="g204"
       transform="matrix(0.12375272,0,0,-0.11634302,84.321425,145.39616)"
       style="fill:#008000">
      <path
         d="m 0,0 -5.814,-2.663 c 0.155,-0.09 0.305,-0.182 0.451,-0.278 0.731,0.233 1.445,0.373 2.158,0.421 0.238,0.557 0.786,0.909 1.378,0.909 0.102,0 0.206,-0.01 0.309,-0.032 0.073,-0.015 0.139,-0.039 0.21,-0.056 L 15.054,5.797 16.493,2.654 6.468,-1.939 C 6.907,-2.09 7.318,-2.27 7.704,-2.472 l 5.694,2.608 1.392,0.638 0.489,0.224 1.381,0.633 0.705,0.323 c 0.121,0.055 0.214,0.156 0.26,0.28 0.046,0.124 0.041,0.262 -0.014,0.383 L 15.754,6.668 C 15.639,6.92 15.34,7.029 15.092,6.914 L 9.912,4.541 Z"
         style="fill:#008000;fill-opacity:1;fill-rule:nonzero;stroke:none"
         id="path206"
         inkscape:connector-curvature="0" />
    </g>
    <g
       id="g208"
       transform="matrix(0.12375272,0,0,-0.11634302,78.483193,145.9322)"
       style="fill:#008000">
      <path
         d="m 0,0 c 1.104,0.442 2.045,0.607 2.932,0.606 0.572,0 1.124,-0.08 1.679,-0.187 C 4.714,0.488 4.81,0.548 4.907,0.61 4.687,0.886 4.319,1.184 3.742,1.497 4.355,1.368 4.91,1.163 5.42,0.917 5.952,1.217 6.323,1.371 6.377,1.392 6.634,1.495 6.888,1.586 7.14,1.666 6.475,2.105 5.718,2.483 4.86,2.749 4.599,2.831 4.331,2.905 4.051,2.964 3.962,2.983 3.873,2.99 3.785,2.992 3.77,2.993 3.756,2.997 3.742,2.997 3.15,2.997 2.602,2.645 2.364,2.087 1.405,2.023 0.444,1.794 -0.558,1.392 -0.572,1.387 -0.613,1.369 -0.669,1.345 -0.813,1.282 -1.08,1.158 -1.429,0.966 -1.49,0.932 -1.558,0.892 -1.623,0.854 -2.042,0.613 -2.547,0.284 -3.08,-0.138 -4.087,-0.933 -5.174,-2.066 -5.925,-3.589 h 1.714 C -2.639,-1.068 0,0 0,0"
         style="fill:#008000;fill-opacity:1;fill-rule:nonzero;stroke:none"
         id="path210"
         inkscape:connector-curvature="0" />
    </g>
    <g
       id="g212"
       transform="matrix(0.12375272,0,0,-0.11634302,79.341369,145.9322)"
       style="fill:#008000">
      <path
         d="m 0,0 c 1.104,0.442 2.045,0.607 2.932,0.606 0.572,0 1.124,-0.08 1.679,-0.187 C 4.714,0.488 4.81,0.548 4.907,0.61 4.687,0.885 4.319,1.184 3.742,1.497 4.355,1.368 4.91,1.163 5.42,0.917 5.953,1.216 6.323,1.371 6.377,1.392 6.634,1.495 6.888,1.586 7.14,1.666 6.917,1.813 6.684,1.953 6.44,2.084 5.734,2.465 4.942,2.777 4.051,2.964 3.948,2.986 3.844,2.997 3.742,2.997 3.15,2.997 2.602,2.645 2.364,2.087 1.651,2.039 0.937,1.899 0.205,1.666 -0.047,1.586 -0.301,1.495 -0.558,1.392 -0.611,1.371 -0.982,1.217 -1.515,0.917 -1.672,0.829 -1.845,0.724 -2.027,0.61 -2.124,0.548 -2.221,0.488 -2.323,0.419 -3.496,-0.369 -4.979,-1.672 -5.925,-3.589 h 1.714 C -2.639,-1.068 0,0 0,0"
         style="fill:#008000;fill-opacity:1;fill-rule:nonzero;stroke:none"
         id="path214"
         inkscape:connector-curvature="0" />
    </g>
    <g
       id="g216"
       transform="matrix(0.12375272,0,0,-0.11634302,80.199557,145.9322)"
       style="fill:#008000">
      <path
         d="m 0,0 c 1.104,0.442 2.045,0.607 2.932,0.606 0.572,0 1.124,-0.08 1.679,-0.187 C 4.714,0.488 4.81,0.548 4.907,0.61 4.687,0.886 4.318,1.184 3.742,1.497 4.355,1.368 4.91,1.163 5.42,0.917 5.952,1.216 6.323,1.371 6.377,1.392 6.634,1.495 6.888,1.586 7.14,1.666 6.892,1.829 6.63,1.982 6.357,2.126 6.063,2.28 5.752,2.419 5.428,2.545 5.121,2.664 4.799,2.767 4.464,2.855 4.326,2.891 4.194,2.934 4.051,2.964 3.948,2.986 3.844,2.997 3.741,2.997 3.149,2.997 2.602,2.645 2.363,2.087 1.779,2.048 1.193,1.94 0.598,1.776 0.467,1.74 0.337,1.708 0.205,1.666 -0.047,1.586 -0.301,1.495 -0.558,1.392 -0.611,1.371 -0.982,1.216 -1.515,0.917 -1.672,0.829 -1.845,0.724 -2.027,0.61 -2.125,0.548 -2.221,0.488 -2.323,0.419 -3.496,-0.369 -4.979,-1.672 -5.925,-3.589 h 1.714 C -2.639,-1.068 0,0 0,0"
         style="fill:#008000;fill-opacity:1;fill-rule:nonzero;stroke:none"
         id="path218"
         inkscape:connector-curvature="0" />
    </g>
    <g
       id="g220"
       transform="matrix(0.12375272,0,0,-0.11634302,81.057732,145.9322)"
       style="fill:#008000">
      <path
         d="m 0,0 c 1.104,0.442 2.045,0.607 2.932,0.606 0.572,0 1.124,-0.08 1.679,-0.187 C 4.714,0.488 4.81,0.548 4.907,0.61 4.687,0.886 4.318,1.184 3.742,1.497 4.355,1.368 4.91,1.163 5.42,0.917 5.952,1.216 6.323,1.371 6.377,1.392 6.634,1.495 6.888,1.586 7.14,1.666 7.089,1.7 7.035,1.731 6.983,1.763 6.148,2.29 5.18,2.727 4.051,2.964 3.948,2.986 3.844,2.997 3.741,2.997 3.149,2.997 2.602,2.645 2.363,2.087 1.651,2.039 0.936,1.899 0.205,1.666 -0.047,1.586 -0.301,1.495 -0.558,1.392 -0.611,1.371 -0.982,1.216 -1.515,0.917 -1.672,0.829 -1.845,0.724 -2.027,0.61 -2.124,0.548 -2.221,0.488 -2.323,0.419 -3.496,-0.369 -4.979,-1.672 -5.925,-3.589 h 1.714 C -2.639,-1.068 0,0 0,0"
         style="fill:#008000;fill-opacity:1;fill-rule:nonzero;stroke:none"
         id="path222"
         inkscape:connector-curvature="0" />
    </g>
    <g
       id="g224"
       transform="matrix(0.12375272,0,0,-0.11634302,81.91592,145.9322)"
       style="fill:#008000">
      <path
         d="m 0,0 c 1.104,0.442 2.045,0.607 2.932,0.606 0.572,0 1.124,-0.08 1.679,-0.187 C 4.714,0.488 4.81,0.548 4.907,0.61 4.687,0.886 4.319,1.184 3.742,1.497 4.355,1.368 4.91,1.163 5.42,0.917 5.952,1.217 6.323,1.371 6.377,1.392 6.634,1.495 6.888,1.586 7.14,1.666 6.272,2.239 5.25,2.712 4.051,2.964 3.948,2.986 3.844,2.997 3.742,2.997 3.15,2.997 2.602,2.645 2.364,2.087 2.073,2.068 1.781,2.028 1.489,1.978 1.065,1.905 0.638,1.804 0.205,1.666 -0.047,1.586 -0.301,1.495 -0.558,1.392 -0.611,1.371 -0.982,1.216 -1.515,0.917 -1.672,0.829 -1.845,0.724 -2.027,0.61 -2.124,0.548 -2.221,0.488 -2.323,0.419 -3.496,-0.369 -4.979,-1.672 -5.925,-3.589 h 1.714 C -2.639,-1.068 0,0 0,0"
         style="fill:#008000;fill-opacity:1;fill-rule:nonzero;stroke:none"
         id="path226"
         inkscape:connector-curvature="0" />
    </g>
    <g
       id="g228"
       transform="matrix(0.12375272,0,0,-0.11634302,82.774097,145.9322)"
       style="fill:#008000">
      <path
         d="m 0,0 c 1.104,0.442 2.045,0.607 2.932,0.606 0.572,0 1.124,-0.08 1.679,-0.187 C 4.714,0.488 4.81,0.548 4.907,0.61 4.687,0.885 4.319,1.184 3.742,1.497 4.355,1.368 4.91,1.163 5.42,0.917 5.953,1.216 6.323,1.371 6.377,1.392 6.634,1.495 6.888,1.586 7.14,1.666 6.995,1.762 6.844,1.854 6.69,1.944 6.436,2.091 6.171,2.23 5.892,2.357 5.449,2.558 4.971,2.722 4.464,2.855 4.326,2.891 4.194,2.934 4.051,2.964 3.948,2.986 3.844,2.997 3.742,2.997 3.15,2.997 2.602,2.645 2.364,2.087 2.272,2.081 2.181,2.066 2.089,2.057 1.622,2.01 1.152,1.925 0.677,1.798 0.52,1.757 0.364,1.717 0.205,1.666 -0.047,1.586 -0.301,1.495 -0.558,1.392 -0.611,1.371 -0.982,1.217 -1.515,0.917 -1.672,0.829 -1.845,0.724 -2.027,0.61 -2.124,0.548 -2.221,0.488 -2.323,0.419 -3.496,-0.369 -4.979,-1.672 -5.925,-3.589 h 1.714 C -2.639,-1.068 0,0 0,0"
         style="fill:#008000;fill-opacity:1;fill-rule:nonzero;stroke:none"
         id="path230"
         inkscape:connector-curvature="0" />
    </g>
    <g
       id="g232"
       transform="matrix(0.12375272,0,0,-0.11634302,83.632282,145.9322)"
       style="fill:#008000">
      <path
         d="m 0,0 c 1.104,0.442 2.045,0.607 2.932,0.606 0.572,0 1.124,-0.08 1.679,-0.187 C 4.714,0.488 4.81,0.548 4.907,0.61 4.687,0.886 4.318,1.184 3.742,1.497 4.355,1.368 4.91,1.163 5.42,0.917 5.952,1.216 6.323,1.371 6.377,1.392 6.634,1.495 6.888,1.586 7.14,1.666 6.324,2.204 5.367,2.647 4.261,2.909 4.19,2.925 4.124,2.949 4.051,2.964 3.948,2.986 3.844,2.997 3.741,2.997 3.149,2.997 2.602,2.645 2.363,2.087 1.651,2.039 0.937,1.899 0.205,1.666 -0.047,1.586 -0.301,1.495 -0.558,1.392 -0.611,1.371 -0.982,1.216 -1.515,0.917 -1.672,0.829 -1.845,0.724 -2.027,0.61 -2.125,0.548 -2.221,0.488 -2.323,0.419 -3.496,-0.369 -4.979,-1.672 -5.925,-3.589 h 1.714 C -2.639,-1.068 0,0 0,0"
         style="fill:#008000;fill-opacity:1;fill-rule:nonzero;stroke:none"
         id="path234"
         inkscape:connector-curvature="0" />
    </g>
    <g
       id="g236"
       transform="matrix(0.12375272,0,0,-0.11634302,84.490458,145.9322)"
       style="fill:#008000">
      <path
         d="m 0,0 c 1.104,0.442 2.045,0.607 2.932,0.606 0.572,0 1.124,-0.08 1.679,-0.187 C 4.714,0.488 4.81,0.548 4.907,0.61 4.687,0.886 4.319,1.184 3.742,1.497 4.355,1.368 4.91,1.163 5.42,0.917 5.952,1.217 6.323,1.371 6.377,1.392 6.634,1.495 6.888,1.586 7.14,1.666 6.887,1.833 6.618,1.988 6.338,2.135 5.952,2.337 5.541,2.518 5.102,2.668 4.766,2.784 4.419,2.887 4.051,2.964 3.948,2.986 3.844,2.997 3.742,2.997 3.15,2.997 2.602,2.645 2.364,2.087 1.651,2.039 0.936,1.899 0.205,1.666 -0.047,1.586 -0.301,1.495 -0.558,1.392 -0.611,1.371 -0.982,1.216 -1.515,0.917 -1.672,0.829 -1.845,0.724 -2.027,0.61 -2.124,0.548 -2.221,0.488 -2.323,0.419 -3.496,-0.369 -4.979,-1.672 -5.925,-3.589 h 1.714 C -2.639,-1.068 0,0 0,0"
         style="fill:#008000;fill-opacity:1;fill-rule:nonzero;stroke:none"
         id="path238"
         inkscape:connector-curvature="0" />
    </g>
    <g
       id="g240"
       transform="matrix(0.12375272,0,0,-0.11634302,86.503543,146.27711)"
       style="fill:#008000">
      <path
         d="M 0,0 C 0.011,-0.019 0.023,-0.038 0.034,-0.057"
         style="fill:#008000;stroke:#424651;stroke-width:0.75;stroke-linecap:round;stroke-linejoin:round;stroke-miterlimit:4;stroke-dasharray:none;stroke-opacity:1"
         id="path242"
         inkscape:connector-curvature="0" />
    </g>
    <g
       id="g244"
       transform="matrix(0.12375272,0,0,-0.11634302,86.725656,146.297)"
       style="fill:#008000">
      <path
         d="M 0,0 C -0.021,0.053 -0.171,0.413 -0.462,0.934 -0.739,1.429 -1.145,2.07 -1.7,2.738 -2.016,3.119 -2.385,3.506 -2.8,3.881 -3.318,4.349 -3.91,4.795 -4.591,5.173 -5.321,5.577 -6.146,5.904 -7.076,6.1 c -0.104,0.022 -0.207,0.032 -0.31,0.032 -0.592,0 -1.139,-0.352 -1.378,-0.909 -0.712,-0.048 -1.427,-0.188 -2.158,-0.421 -0.252,-0.08 -0.506,-0.171 -0.763,-0.274 -0.054,-0.022 -0.424,-0.176 -0.957,-0.475 -0.157,-0.089 -0.33,-0.193 -0.512,-0.308 -0.098,-0.061 -0.194,-0.121 -0.297,-0.19 -1.173,-0.788 -2.655,-2.092 -3.601,-4.009 h 1.714 c 1.572,2.521 4.211,3.59 4.211,3.59 1.104,0.442 2.045,0.606 2.931,0.606 0.749,0 1.459,-0.117 2.194,-0.283 -0.015,0.003 -0.028,0.011 -0.042,0.015 -0.17,0.347 -0.57,0.74 -1.341,1.158 3.894,-0.819 5.664,-4.45 5.947,-5.086 H 0.149 C 0.115,-0.364 0.097,-0.27 0.059,-0.18 0.044,-0.119 0.024,-0.059 0,0"
         style="fill:#008000;fill-opacity:1;fill-rule:nonzero;stroke:none"
         id="path246"
         inkscape:connector-curvature="0" />
    </g>
    <g
       id="g248"
       transform="matrix(0.12375272,0,0,-0.11634302,77.614954,147.24706)"
       style="fill:#008000">
      <path
         d="m 0,0 h -1.133 v -0.008 c 0,-0.414 0.336,-0.75 0.75,-0.75 H 0.224 L 0.187,-0.721 C -0.004,-0.531 -0.067,-0.256 0,0"
         style="fill:#008000;fill-opacity:1;fill-rule:nonzero;stroke:none"
         id="path250"
         inkscape:connector-curvature="0" />
    </g>
    <g
       id="g252"
       transform="matrix(0.12375272,0,0,-0.11634302,77.660335,146.75112)"
       style="fill:#008000">
      <path
         d="M 0,0 V 1.949 H 0.712 L 0.988,2.708 H 2.585 L 2.308,1.949 H 4.091 L 4.367,2.708 H 5.963 L 5.687,1.949 H 7.469 L 7.746,2.708 H 9.342 L 9.066,1.949 h 1.782 l 0.277,0.759 h 1.596 L 12.444,1.949 h 1.783 l 0.277,0.759 H 16.1 L 15.823,1.949 h 1.783 l 0.277,0.759 h 1.596 L 19.202,1.949 h 1.783 l 0.277,0.759 h 1.596 L 22.581,1.949 h 1.782 l 0.277,0.759 h 1.596 L 25.959,1.949 h 1.783 l 0.277,0.759 h 1.596 L 29.338,1.949 h 1.783 l 0.277,0.759 h 1.596 L 32.717,1.949 H 34.5 l 0.277,0.759 h 1.596 L 36.096,1.949 h 1.783 l 0.276,0.759 h 1.597 L 39.475,1.949 h 1.783 l 0.276,0.759 H 43.13 L 42.854,1.949 h 1.782 l 0.277,0.759 h 1.596 L 46.233,1.949 h 1.782 l 0.277,0.759 h 1.596 L 49.611,1.949 h 1.783 l 0.276,0.759 h 1.596 L 52.99,1.949 h 1.782 l 0.277,0.759 h 1.596 L 56.368,1.949 h 1.783 l 0.277,0.759 h 1.596 L 59.747,1.949 h 1.783 l 0.277,0.759 h 1.596 L 63.126,1.949 h 1.783 l 0.277,0.759 h 1.596 L 66.505,1.949 h 1.783 l 0.277,0.759 h 1.596 L 69.884,1.949 h 1.783 l 0.277,0.759 H 73.54 L 73.263,1.949 h 1.772 v -5.47 h -0.39 l -0.067,-0.182 h 0.107 c 0.303,0 0.577,-0.183 0.693,-0.463 0.115,-0.281 0.052,-0.603 -0.163,-0.818 l -0.037,-0.037 h 0.607 c 0.414,0 0.75,0.336 0.75,0.75 v 5.933 1.037 c 0,0.414 -0.336,0.75 -0.75,0.75 H 75.779 75.035 73.881 73.403 71.816 57.915 56.202 50.98 49.267 44.046 42.332 37.111 35.398 30.177 28.463 23.242 21.528 16.307 14.594 9.373 7.659 2.438 0.724 0.496 -0.75 c 0,0 0,0 0,0 -0.411,0 -0.744,-0.331 -0.748,-0.741 H -0.794 -1.5 v -6.817 z"
         style="fill:#008000;fill-opacity:1;fill-rule:nonzero;stroke:none"
         id="path254"
         inkscape:connector-curvature="0" />
    </g>
    <g
       id="g256"
       transform="matrix(0.12375272,0,0,-0.11634302,78.116932,147.16075)"
       style="fill:#008000">
      <path
         d="M 0,0 -0.067,-0.183 H 1.716 L 1.783,0 Z"
         style="fill:#008000;fill-opacity:1;fill-rule:nonzero;stroke:none"
         id="path258"
         inkscape:connector-curvature="0" />
    </g>
    <g
       id="g260"
       transform="matrix(0.12375272,0,0,-0.11634302,77.698785,147.16075)"
       style="fill:#008000">
      <path
         d="m 0,0 -0.073,-0.199 c 0.038,0.005 0.074,0.016 0.113,0.016 H 1.716 L 1.783,0 Z"
         style="fill:#008000;fill-opacity:1;fill-rule:nonzero;stroke:none"
         id="path262"
         inkscape:connector-curvature="0" />
    </g>
    <g
       id="g264"
       transform="matrix(0.12375272,0,0,-0.11634302,78.95323,147.16075)"
       style="fill:#008000">
      <path
         d="M 0,0 -0.067,-0.183 H 1.716 L 1.783,0 Z"
         style="fill:#008000;fill-opacity:1;fill-rule:nonzero;stroke:none"
         id="path266"
         inkscape:connector-curvature="0" />
    </g>
    <g
       id="g268"
       transform="matrix(0.12375272,0,0,-0.11634302,78.53508,147.16075)"
       style="fill:#008000">
      <path
         d="M 0,0 -0.067,-0.183 H 1.716 L 1.783,0 Z"
         style="fill:#008000;fill-opacity:1;fill-rule:nonzero;stroke:none"
         id="path270"
         inkscape:connector-curvature="0" />
    </g>
    <g
       id="g272"
       transform="matrix(0.12375272,0,0,-0.11634302,80.207674,147.16075)"
       style="fill:#008000">
      <path
         d="M 0,0 -0.067,-0.183 H 1.716 L 1.782,0 Z"
         style="fill:#008000;fill-opacity:1;fill-rule:nonzero;stroke:none"
         id="path274"
         inkscape:connector-curvature="0" />
    </g>
    <g
       id="g276"
       transform="matrix(0.12375272,0,0,-0.11634302,79.789526,147.16075)"
       style="fill:#008000">
      <path
         d="M 0,0 -0.067,-0.183 H 1.716 L 1.783,0 Z"
         style="fill:#008000;fill-opacity:1;fill-rule:nonzero;stroke:none"
         id="path278"
         inkscape:connector-curvature="0" />
    </g>
    <g
       id="g280"
       transform="matrix(0.12375272,0,0,-0.11634302,79.592016,147.16075)"
       style="fill:#008000">
      <path
         d="m 0,0 h -1.783 l -0.066,-0.183 h 1.782 z"
         style="fill:#008000;fill-opacity:1;fill-rule:nonzero;stroke:none"
         id="path282"
         inkscape:connector-curvature="0" />
    </g>
    <g
       id="g284"
       transform="matrix(0.12375272,0,0,-0.11634302,81.043859,147.16075)"
       style="fill:#008000">
      <path
         d="M 0,0 -0.067,-0.183 H 1.716 L 1.783,0 Z"
         style="fill:#008000;fill-opacity:1;fill-rule:nonzero;stroke:none"
         id="path286"
         inkscape:connector-curvature="0" />
    </g>
    <g
       id="g288"
       transform="matrix(0.12375272,0,0,-0.11634302,80.625761,147.16075)"
       style="fill:#008000">
      <path
         d="M 0,0 -0.067,-0.183 H 1.716 L 1.782,0 Z"
         style="fill:#008000;fill-opacity:1;fill-rule:nonzero;stroke:none"
         id="path290"
         inkscape:connector-curvature="0" />
    </g>
    <g
       id="g292"
       transform="matrix(0.12375272,0,0,-0.11634302,81.880155,147.16075)"
       style="fill:#008000">
      <path
         d="M 0,0 -0.067,-0.183 H 1.716 L 1.783,0 Z"
         style="fill:#008000;fill-opacity:1;fill-rule:nonzero;stroke:none"
         id="path294"
         inkscape:connector-curvature="0" />
    </g>
    <g
       id="g296"
       transform="matrix(0.12375272,0,0,-0.11634302,81.462007,147.16075)"
       style="fill:#008000">
      <path
         d="M 0,0 -0.067,-0.183 H 1.716 L 1.783,0 Z"
         style="fill:#008000;fill-opacity:1;fill-rule:nonzero;stroke:none"
         id="path298"
         inkscape:connector-curvature="0" />
    </g>
    <g
       id="g300"
       transform="matrix(0.12375272,0,0,-0.11634302,82.716451,147.16075)"
       style="fill:#008000">
      <path
         d="M 0,0 -0.067,-0.183 H 1.716 L 1.783,0 Z"
         style="fill:#008000;fill-opacity:1;fill-rule:nonzero;stroke:none"
         id="path302"
         inkscape:connector-curvature="0" />
    </g>
    <g
       id="g304"
       transform="matrix(0.12375272,0,0,-0.11634302,82.298302,147.16075)"
       style="fill:#008000">
      <path
         d="M 0,0 -0.067,-0.183 H 1.716 L 1.783,0 Z"
         style="fill:#008000;fill-opacity:1;fill-rule:nonzero;stroke:none"
         id="path306"
         inkscape:connector-curvature="0" />
    </g>
    <g
       id="g308"
       transform="matrix(0.12375272,0,0,-0.11634302,83.552747,147.16075)"
       style="fill:#008000">
      <path
         d="M 0,0 -0.067,-0.183 H 1.716 L 1.782,0 Z"
         style="fill:#008000;fill-opacity:1;fill-rule:nonzero;stroke:none"
         id="path310"
         inkscape:connector-curvature="0" />
    </g>
    <g
       id="g312"
       transform="matrix(0.12375272,0,0,-0.11634302,83.1346,147.16075)"
       style="fill:#008000">
      <path
         d="M 0,0 -0.067,-0.183 H 1.716 L 1.783,0 Z"
         style="fill:#008000;fill-opacity:1;fill-rule:nonzero;stroke:none"
         id="path314"
         inkscape:connector-curvature="0" />
    </g>
    <g
       id="g316"
       transform="matrix(0.12375272,0,0,-0.11634302,84.38892,147.16075)"
       style="fill:#008000">
      <path
         d="M 0,0 -0.067,-0.183 H 1.716 L 1.783,0 Z"
         style="fill:#008000;fill-opacity:1;fill-rule:nonzero;stroke:none"
         id="path318"
         inkscape:connector-curvature="0" />
    </g>
    <g
       id="g320"
       transform="matrix(0.12375272,0,0,-0.11634302,83.970821,147.16075)"
       style="fill:#008000">
      <path
         d="M 0,0 -0.067,-0.183 H 1.716 L 1.782,0 Z"
         style="fill:#008000;fill-opacity:1;fill-rule:nonzero;stroke:none"
         id="path322"
         inkscape:connector-curvature="0" />
    </g>
    <g
       id="g324"
       transform="matrix(0.12375272,0,0,-0.11634302,86.061513,147.16075)"
       style="fill:#008000">
      <path
         d="M 0,0 -0.067,-0.183 H 1.716 L 1.783,0 Z"
         style="fill:#008000;fill-opacity:1;fill-rule:nonzero;stroke:none"
         id="path326"
         inkscape:connector-curvature="0" />
    </g>
    <g
       id="g328"
       transform="matrix(0.12375272,0,0,-0.11634302,85.225217,147.16075)"
       style="fill:#008000">
      <path
         d="M 0,0 -0.067,-0.183 H 1.716 L 1.783,0 Z"
         style="fill:#008000;fill-opacity:1;fill-rule:nonzero;stroke:none"
         id="path330"
         inkscape:connector-curvature="0" />
    </g>
    <g
       id="g332"
       transform="matrix(0.12375272,0,0,-0.11634302,84.807069,147.16075)"
       style="fill:#008000">
      <path
         d="M 0,0 -0.067,-0.183 H 1.716 L 1.783,0 Z"
         style="fill:#008000;fill-opacity:1;fill-rule:nonzero;stroke:none"
         id="path334"
         inkscape:connector-curvature="0" />
    </g>
    <g
       id="g336"
       transform="matrix(0.12375272,0,0,-0.11634302,85.643365,147.16075)"
       style="fill:#008000">
      <path
         d="M 0,0 -0.067,-0.183 H 1.716 L 1.783,0 Z"
         style="fill:#008000;fill-opacity:1;fill-rule:nonzero;stroke:none"
         id="path338"
         inkscape:connector-curvature="0" />
    </g>
    <g
       id="g340"
       transform="matrix(0.12375272,0,0,-0.11634302,86.479672,147.16075)"
       style="fill:#008000">
      <path
         d="M 0,0 -0.067,-0.183 H 1.716 L 1.783,0 Z"
         style="fill:#008000;fill-opacity:1;fill-rule:nonzero;stroke:none"
         id="path342"
         inkscape:connector-curvature="0" />
    </g>
    <g
       id="g344"
       transform="matrix(0.12375272,0,0,-0.11634302,77.614954,147.24706)"
       style="fill:#008000">
      <path
         d="M 0,0 C 0.008,0.032 0.011,0.065 0.024,0.096 0.125,0.341 0.348,0.503 0.605,0.543 L 0.677,0.742 2.674,6.212 2.951,6.97 H 1.355 L 1.078,6.212 0.367,4.263 -1.133,0.154 -1.19,0"
         style="fill:#008000;fill-opacity:1;fill-rule:nonzero;stroke:none"
         id="path346"
         inkscape:connector-curvature="0" />
    </g>
    <g
       id="g348"
       transform="matrix(0.12375272,0,0,-0.11634302,78.36407,146.52432)"
       style="fill:#008000">
      <path
         d="M 0,0 0.277,0.758 H -1.319 L -1.596,0 -3.593,-5.47 -3.66,-5.653 h 1.596 l 0.067,0.183 z"
         style="fill:#008000;fill-opacity:1;fill-rule:nonzero;stroke:none"
         id="path350"
         inkscape:connector-curvature="0" />
    </g>
    <g
       id="g352"
       transform="matrix(0.12375272,0,0,-0.11634302,78.782216,146.52432)"
       style="fill:#008000">
      <path
         d="M 0,0 0.277,0.758 H -1.319 L -1.596,0 -3.593,-5.47 -3.66,-5.653 h 1.596 l 0.067,0.183 z"
         style="fill:#008000;fill-opacity:1;fill-rule:nonzero;stroke:none"
         id="path354"
         inkscape:connector-curvature="0" />
    </g>
    <g
       id="g356"
       transform="matrix(0.12375272,0,0,-0.11634302,78.95323,147.16075)"
       style="fill:#008000">
      <path
         d="M 0,0 1.997,5.47 2.274,6.228 H 0.678 L 0.401,5.47 -1.596,0 -1.663,-0.183 h 1.596 z"
         style="fill:#008000;fill-opacity:1;fill-rule:nonzero;stroke:none"
         id="path358"
         inkscape:connector-curvature="0" />
    </g>
    <g
       id="g360"
       transform="matrix(0.12375272,0,0,-0.11634302,79.618513,146.52432)"
       style="fill:#008000">
      <path
         d="M 0,0 0.277,0.758 H -1.319 L -1.596,0 -3.593,-5.47 -3.66,-5.653 h 1.596 l 0.067,0.183 z"
         style="fill:#008000;fill-opacity:1;fill-rule:nonzero;stroke:none"
         id="path362"
         inkscape:connector-curvature="0" />
    </g>
    <g
       id="g364"
       transform="matrix(0.12375272,0,0,-0.11634302,80.03666,146.52432)"
       style="fill:#008000">
      <path
         d="M 0,0 0.277,0.758 H -1.319 L -1.596,0 -3.593,-5.47 -3.66,-5.653 h 1.596 l 0.067,0.183 z"
         style="fill:#008000;fill-opacity:1;fill-rule:nonzero;stroke:none"
         id="path366"
         inkscape:connector-curvature="0" />
    </g>
    <g
       id="g368"
       transform="matrix(0.12375272,0,0,-0.11634302,80.454809,146.52432)"
       style="fill:#008000">
      <path
         d="M 0,0 0.277,0.758 H -1.319 L -1.596,0 -3.593,-5.47 -3.66,-5.653 h 1.596 l 0.067,0.183 z"
         style="fill:#008000;fill-opacity:1;fill-rule:nonzero;stroke:none"
         id="path370"
         inkscape:connector-curvature="0" />
    </g>
    <g
       id="g372"
       transform="matrix(0.12375272,0,0,-0.11634302,80.872883,146.52432)"
       style="fill:#008000">
      <path
         d="M 0,0 0.277,0.758 H -1.319 L -1.596,0 -3.593,-5.47 -3.66,-5.653 h 1.596 l 0.067,0.183 z"
         style="fill:#008000;fill-opacity:1;fill-rule:nonzero;stroke:none"
         id="path374"
         inkscape:connector-curvature="0" />
    </g>
    <g
       id="g376"
       transform="matrix(0.12375272,0,0,-0.11634302,81.290994,146.52432)"
       style="fill:#008000">
      <path
         d="M 0,0 0.277,0.758 H -1.319 L -1.596,0 -3.593,-5.47 -3.66,-5.653 h 1.596 l 0.067,0.183 z"
         style="fill:#008000;fill-opacity:1;fill-rule:nonzero;stroke:none"
         id="path378"
         inkscape:connector-curvature="0" />
    </g>
    <g
       id="g380"
       transform="matrix(0.12375272,0,0,-0.11634302,81.70914,146.52432)"
       style="fill:#008000">
      <path
         d="M 0,0 0.277,0.758 H -1.319 L -1.596,0 -3.593,-5.47 -3.66,-5.653 h 1.596 l 0.067,0.183 z"
         style="fill:#008000;fill-opacity:1;fill-rule:nonzero;stroke:none"
         id="path382"
         inkscape:connector-curvature="0" />
    </g>
    <g
       id="g384"
       transform="matrix(0.12375272,0,0,-0.11634302,82.127289,146.52432)"
       style="fill:#008000">
      <path
         d="M 0,0 0.277,0.758 H -1.319 L -1.596,0 -3.593,-5.47 -3.66,-5.653 h 1.596 l 0.067,0.183 z"
         style="fill:#008000;fill-opacity:1;fill-rule:nonzero;stroke:none"
         id="path386"
         inkscape:connector-curvature="0" />
    </g>
    <g
       id="g388"
       transform="matrix(0.12375272,0,0,-0.11634302,82.545437,146.52432)"
       style="fill:#008000">
      <path
         d="M 0,0 0.277,0.758 H -1.319 L -1.596,0 -3.593,-5.47 -3.66,-5.653 h 1.596 l 0.067,0.183 z"
         style="fill:#008000;fill-opacity:1;fill-rule:nonzero;stroke:none"
         id="path390"
         inkscape:connector-curvature="0" />
    </g>
    <g
       id="g392"
       transform="matrix(0.12375272,0,0,-0.11634302,82.963586,146.52432)"
       style="fill:#008000">
      <path
         d="M 0,0 0.277,0.758 H -1.319 L -1.596,0 -3.593,-5.47 -3.66,-5.653 h 1.596 l 0.067,0.183 z"
         style="fill:#008000;fill-opacity:1;fill-rule:nonzero;stroke:none"
         id="path394"
         inkscape:connector-curvature="0" />
    </g>
    <g
       id="g396"
       transform="matrix(0.12375272,0,0,-0.11634302,83.1346,147.16075)"
       style="fill:#008000">
      <path
         d="M 0,0 1.997,5.47 2.274,6.228 H 0.678 L 0.401,5.47 -1.596,0 -1.663,-0.183 h 1.596 z"
         style="fill:#008000;fill-opacity:1;fill-rule:nonzero;stroke:none"
         id="path398"
         inkscape:connector-curvature="0" />
    </g>
    <g
       id="g400"
       transform="matrix(0.12375272,0,0,-0.11634302,83.799883,146.52432)"
       style="fill:#008000">
      <path
         d="M 0,0 0.277,0.758 H -1.319 L -1.596,0 -3.593,-5.47 -3.66,-5.653 h 1.596 l 0.067,0.183 z"
         style="fill:#008000;fill-opacity:1;fill-rule:nonzero;stroke:none"
         id="path402"
         inkscape:connector-curvature="0" />
    </g>
    <g
       id="g404"
       transform="matrix(0.12375272,0,0,-0.11634302,83.970821,147.16075)"
       style="fill:#008000">
      <path
         d="M 0,0 1.997,5.47 2.274,6.228 H 0.678 L 0.401,5.47 -1.596,0 -1.663,-0.183 h 1.596 z"
         style="fill:#008000;fill-opacity:1;fill-rule:nonzero;stroke:none"
         id="path406"
         inkscape:connector-curvature="0" />
    </g>
    <g
       id="g408"
       transform="matrix(0.12375272,0,0,-0.11634302,84.636052,146.52432)"
       style="fill:#008000">
      <path
         d="M 0,0 0.277,0.758 H -1.319 L -1.596,0 -3.593,-5.47 -3.66,-5.653 h 1.596 l 0.067,0.183 z"
         style="fill:#008000;fill-opacity:1;fill-rule:nonzero;stroke:none"
         id="path410"
         inkscape:connector-curvature="0" />
    </g>
    <g
       id="g412"
       transform="matrix(0.12375272,0,0,-0.11634302,85.054203,146.52432)"
       style="fill:#008000">
      <path
         d="M 0,0 0.277,0.758 H -1.319 L -1.596,0 -3.593,-5.47 -3.66,-5.653 h 1.596 l 0.067,0.183 z"
         style="fill:#008000;fill-opacity:1;fill-rule:nonzero;stroke:none"
         id="path414"
         inkscape:connector-curvature="0" />
    </g>
    <g
       id="g416"
       transform="matrix(0.12375272,0,0,-0.11634302,85.472349,146.52432)"
       style="fill:#008000">
      <path
         d="M 0,0 0.277,0.758 H -1.319 L -1.596,0 -3.593,-5.47 -3.66,-5.653 h 1.596 l 0.067,0.183 z"
         style="fill:#008000;fill-opacity:1;fill-rule:nonzero;stroke:none"
         id="path418"
         inkscape:connector-curvature="0" />
    </g>
    <g
       id="g420"
       transform="matrix(0.12375272,0,0,-0.11634302,85.890509,146.52432)"
       style="fill:#008000">
      <path
         d="M 0,0 0.277,0.758 H -1.319 L -1.596,0 -3.593,-5.47 -3.66,-5.653 h 1.596 l 0.067,0.183 z"
         style="fill:#008000;fill-opacity:1;fill-rule:nonzero;stroke:none"
         id="path422"
         inkscape:connector-curvature="0" />
    </g>
    <g
       id="g424"
       transform="matrix(0.12375272,0,0,-0.11634302,86.308659,146.52432)"
       style="fill:#008000">
      <path
         d="M 0,0 0.277,0.758 H -1.319 L -1.596,0 -3.593,-5.47 -3.66,-5.653 h 1.596 l 0.067,0.183 z"
         style="fill:#008000;fill-opacity:1;fill-rule:nonzero;stroke:none"
         id="path426"
         inkscape:connector-curvature="0" />
    </g>
    <g
       id="g428"
       transform="matrix(0.12375272,0,0,-0.11634302,86.726806,146.52432)"
       style="fill:#008000">
      <path
         d="M 0,0 0.277,0.758 H -1.319 L -1.596,0 -3.593,-5.47 -3.66,-5.653 h 1.596 l 0.067,0.183 z"
         style="fill:#008000;fill-opacity:1;fill-rule:nonzero;stroke:none"
         id="path430"
         inkscape:connector-curvature="0" />
    </g>
    <g
       id="g432"
       transform="matrix(0.12375272,0,0,-0.11634302,86.952146,147.01652)"
       style="fill:#008000">
      <path
         d="M 0,0 -0.049,4.231 -2.035,-1.24 -2.102,-1.422 h 1.596 l 0.067,0.182 z"
         style="fill:#008000;fill-opacity:1;fill-rule:nonzero;stroke:none"
         id="path434"
         inkscape:connector-curvature="0" />
    </g>
    <g
       id="g436"
       transform="matrix(0.12375272,0,0,-0.11634302,81.014704,150.25843)"
       style="fill:#008000">
      <path
         d="M 0,0 -24.944,24.943 H 45.769 L 20.824,0 Z m 48.072,25.125 0.037,0.038 c 0.215,0.214 0.279,0.537 0.163,0.817 -0.116,0.28 -0.389,0.463 -0.693,0.463 H 47.473 45.876 44.094 42.498 40.715 39.119 37.336 35.74 33.957 32.361 30.578 28.982 27.199 25.603 23.821 22.225 20.442 18.846 17.063 15.467 13.685 12.088 10.306 8.709 6.927 5.331 3.548 1.952 0.169 -1.427 -3.21 h -1.596 -1.782 -1.596 -1.783 -1.596 -1.783 -1.596 -1.783 -1.596 -1.783 -1.596 -1.782 -1.597 -1.676 c -0.039,0 -0.075,-0.011 -0.113,-0.017 -0.256,-0.04 -0.479,-0.202 -0.58,-0.446 -0.013,-0.031 -0.016,-0.064 -0.024,-0.097 -0.067,-0.255 -0.004,-0.53 0.187,-0.72 L -27.248,25.125 -0.841,-1.28 C -0.7,-1.421 -0.51,-1.5 -0.311,-1.5 h 4.133 v 0.73 c 0,0.415 0.336,0.75 0.75,0.75 h 11.679 c 0.414,0 0.75,-0.335 0.75,-0.75 V -1.5 h 4.134 c 0.199,0 0.389,0.079 0.53,0.22 z"
         style="fill:#008000;fill-opacity:1;fill-rule:nonzero;stroke:none"
         id="path438"
         inkscape:connector-curvature="0" />
    </g>
    <g
       id="g440"
       transform="matrix(0.12375272,0,0,-0.11634302,83.02586,151.72398)"
       style="fill:#008000">
      <path
         d="M 0,0 -0.75,-2.056 V -3.93 h -0.685 l -0.273,-0.75 h -1.596 l 0.273,0.75 h -1.783 l -0.273,-0.75 h -1.596 l 0.274,0.75 h -1.783 l -0.274,-0.75 h -1.596 l 0.274,0.75 h -1.141 v 1.757 l -0.75,-2.054 v 4.372 l 0.75,2.053 v 4.884 l -0.75,-2.053 V 9.4 l 0.886,2.427 h 1.596 l -0.274,-0.75 h 1.783 l 0.274,0.75 h 1.596 l -0.274,-0.75 h 1.782 l 0.274,0.75 h 1.596 l -0.274,-0.75 h 1.783 l 0.274,0.75 H 0 V 9.255 L -0.75,7.2 V 2.316 L 0,4.372 Z m 0.75,11.827 c 0,0.414 -0.336,0.75 -0.75,0.75 h -11.679 c -0.414,0 -0.75,-0.336 -0.75,-0.75 V 11.097 -4.68 c 0,-0.414 0.336,-0.75 0.75,-0.75 H 0 c 0.414,0 0.75,0.336 0.75,0.75 v 15.777 z"
         style="fill:#008000;fill-opacity:1;fill-rule:nonzero;stroke:none"
         id="path442"
         inkscape:connector-curvature="0" />
    </g>
    <g
       id="g444"
       transform="matrix(0.12375272,0,0,-0.11634302,81.887729,150.34797)"
       style="fill:#008000">
      <path
         d="m 0,0 h -1.596 l -0.886,-2.427 v -4.372 l 0.75,2.054 1.458,3.995 z"
         style="fill:#008000;fill-opacity:1;fill-rule:nonzero;stroke:none"
         id="path446"
         inkscape:connector-curvature="0" />
    </g>
    <g
       id="g448"
       transform="matrix(0.12375272,0,0,-0.11634302,82.271994,150.4352)"
       style="fill:#008000">
      <path
         d="M 0,0 0.274,0.75 H -1.322 L -1.596,0 l -3.241,-8.879 -0.75,-2.053 v -4.372 l 0.75,2.054 z"
         style="fill:#008000;fill-opacity:1;fill-rule:nonzero;stroke:none"
         id="path450"
         inkscape:connector-curvature="0" />
    </g>
    <g
       id="g452"
       transform="matrix(0.12375272,0,0,-0.11634302,82.690043,150.4352)"
       style="fill:#008000">
      <path
         d="M 0,0 0.274,0.75 H -1.322 L -1.596,0 l -5.478,-15.007 -0.274,-0.75 h 1.596 l 0.274,0.75 z"
         style="fill:#008000;fill-opacity:1;fill-rule:nonzero;stroke:none"
         id="path454"
         inkscape:connector-curvature="0" />
    </g>
    <g
       id="g456"
       transform="matrix(0.12375272,0,0,-0.11634302,82.932994,150.88631)"
       style="fill:#008000">
      <path
         d="M 0,0 0.75,2.056 V 4.627 H 0.093 L -0.18,3.877 -5.659,-11.129 -5.933,-11.88 h 1.596 l 0.274,0.751 z"
         style="fill:#008000;fill-opacity:1;fill-rule:nonzero;stroke:none"
         id="path458"
         inkscape:connector-curvature="0" />
    </g>
    <g
       id="g460"
       transform="matrix(0.12375272,0,0,-0.11634302,82.650813,152.18115)"
       style="fill:#008000">
      <path
         d="M 0,0 -0.274,-0.75 H 1.322 L 1.596,0 2.28,1.874 3.031,3.93 V 8.301 L 2.28,6.246 Z"
         style="fill:#008000;fill-opacity:1;fill-rule:nonzero;stroke:none"
         id="path462"
         inkscape:connector-curvature="0" />
    </g>
    <g
       id="g1054"
       transform="matrix(0.12375272,0,0,-0.11634302,84.492432,141.17068)"
       style="fill:#008000">
      <path
         d="m 0,0 -1.688,-2.369 0.701,1.917 -0.38,-0.174 -3.248,-4.561 -0.972,-2.656 -1.939,-2.722 -0.518,0.37 0.267,0.73 -1.506,1.073 -0.267,-0.731 -1.267,0.903 0.268,0.73 -1.506,1.073 -0.267,-0.731 -1.267,0.902 0.268,0.731 -0.403,0.287 c -0.339,0.241 -0.805,0.162 -1.047,-0.176 l -0.839,-1.179 -0.972,-2.656 -3.281,-4.606 0.971,2.656 -1.861,-2.613 -0.787,0.56 -0.267,-0.73 -1.267,0.902 0.268,0.73 -1.506,1.073 -0.267,-0.731 -1.267,0.903 0.268,0.73 -1.506,1.073 -0.268,-0.731 -1.188,0.847 3.077,4.319 -0.971,-2.657 3.901,5.476 0.971,2.657 3.281,4.606 -0.971,-2.657 3.899,5.473 0.971,2.657 1.747,2.452 0.592,-0.422 -0.267,-0.73 1.505,-1.072 0.268,0.73 1.266,-0.902 -0.267,-0.731 1.506,-1.073 0.267,0.731 1.267,-0.902 -0.267,-0.731 1.505,-1.072 0.267,0.73 1.267,-0.902 -0.157,-0.43 1.25,0.573 -9.566,6.814 c -0.163,0.116 -0.364,0.161 -0.56,0.129 -0.196,-0.033 -0.371,-0.143 -0.487,-0.305 L -29.151,-8.741 c -0.24,-0.338 -0.161,-0.806 0.176,-1.046 l 7.962,-5.672 c 0.128,-0.091 0.28,-0.139 0.436,-0.139 0.041,0 0.083,0.003 0.124,0.01 0.196,0.033 0.371,0.143 0.487,0.305 l 5.982,8.398 6.023,-4.29 c 0.161,-0.116 0.363,-0.161 0.559,-0.129 0.197,0.033 0.372,0.142 0.488,0.304 L 1.367,0.626 Z"
         style="fill:#008000;fill-opacity:1;fill-rule:nonzero;stroke:none"
         id="path1056"
         inkscape:connector-curvature="0" />
    </g>
    <g
       id="g1058"
       transform="matrix(0.12375272,0,0,-0.11634302,81.341354,141.73576)"
       style="fill:#008000">
      <path
         d="m 0,0 -3.077,-4.319 1.188,-0.847 0.267,0.731 0.65,1.778 z"
         style="fill:#008000;fill-opacity:1;fill-rule:nonzero;stroke:none"
         id="path1060"
         inkscape:connector-curvature="0" />
    </g>
    <g
       id="g1062"
       transform="matrix(0.12375272,0,0,-0.11634302,82.230134,140.56281)"
       style="fill:#008000">
      <path
         d="m 0,0 -3.281,-4.606 -0.972,-2.657 -3.045,-8.327 -0.267,-0.73 1.267,-0.903 0.267,0.731 5.06,13.835 z"
         style="fill:#008000;fill-opacity:1;fill-rule:nonzero;stroke:none"
         id="path1064"
         inkscape:connector-curvature="0" />
    </g>
    <g
       id="g1066"
       transform="matrix(0.12375272,0,0,-0.11634302,83.002113,139.68983)"
       style="fill:#008000">
      <path
         d="m 0,0 -0.592,0.422 -1.747,-2.452 -0.972,-2.657 -7.453,-20.381 -0.267,-0.731 1.267,-0.902 0.267,0.731 9.23,25.24 z"
         style="fill:#008000;fill-opacity:1;fill-rule:nonzero;stroke:none"
         id="path1068"
         inkscape:connector-curvature="0" />
    </g>
    <g
       id="g1070"
       transform="matrix(0.12375272,0,0,-0.11634302,83.345156,139.91957)"
       style="fill:#008000">
      <path
         d="m 0,0 -1.267,0.902 -0.267,-0.73 -8.087,-22.115 -0.971,-2.656 3.281,4.606 0.971,2.657 6.073,16.606 z"
         style="fill:#008000;fill-opacity:1;fill-rule:nonzero;stroke:none"
         id="path1072"
         inkscape:connector-curvature="0" />
    </g>
    <g
       id="g1074"
       transform="matrix(0.12375272,0,0,-0.11634302,83.6883,140.14936)"
       style="fill:#008000">
      <path
         d="m 0,0 -1.267,0.902 -0.267,-0.73 -1.967,-5.379 1.918,0.879 1.316,3.597 z"
         style="fill:#008000;fill-opacity:1;fill-rule:nonzero;stroke:none"
         id="path1076"
         inkscape:connector-curvature="0" />
    </g>
    <g
       id="g1078"
       transform="matrix(0.12375272,0,0,-0.11634302,82.810792,141.89731)"
       style="fill:#008000">
      <path
         d="M 0,0 1.267,-0.902 1.534,-0.172 3.529,5.284 2.641,7.222 0.267,0.731 Z"
         style="fill:#008000;fill-opacity:1;fill-rule:nonzero;stroke:none"
         id="path1080"
         inkscape:connector-curvature="0" />
    </g>
    <g
       id="g1082"
       transform="matrix(0.12375272,0,0,-0.11634302,83.874585,140.27412)"
       style="fill:#008000">
      <path
         d="m 0,0 -0.267,-0.731 -0.542,-1.48 1.919,0.879 0.157,0.43 z"
         style="fill:#008000;fill-opacity:1;fill-rule:nonzero;stroke:none"
         id="path1084"
         inkscape:connector-curvature="0" />
    </g>
    <g
       id="g1086"
       transform="matrix(0.12375272,0,0,-0.11634302,83.153835,142.12705)"
       style="fill:#008000">
      <path
         d="M 0,0 1.267,-0.902 1.534,-0.172 3.352,4.8 2.82,4.557 C 2.719,4.51 2.612,4.488 2.508,4.488 2.224,4.488 1.952,4.65 1.826,4.926 L 1.812,4.956 0.267,0.731 Z"
         style="fill:#008000;fill-opacity:1;fill-rule:nonzero;stroke:none"
         id="path1088"
         inkscape:connector-curvature="0" />
    </g>
    <g
       id="g1090"
       transform="matrix(0.12375272,0,0,-0.11634302,83.496977,142.35684)"
       style="fill:#008000">
      <path
         d="M 0,0 0.518,-0.369 2.457,2.353 3.428,5.009 4.778,8.699 2.86,7.82 0.267,0.73 Z"
         style="fill:#008000;fill-opacity:1;fill-rule:nonzero;stroke:none"
         id="path1092"
         inkscape:connector-curvature="0" />
    </g>
    <g
       id="g1094"
       transform="matrix(0.12375272,0,0,-0.11634302,84.492432,141.17068)"
       style="fill:#008000">
      <path
         d="M 0,0 -0.987,-0.452 -1.688,-2.369 Z"
         style="fill:#008000;fill-opacity:1;fill-rule:nonzero;stroke:none"
         id="path1096"
         inkscape:connector-curvature="0" />
    </g>
    <g
       id="g1098"
       transform="matrix(0.12375272,0,0,-0.11634302,83.282438,140.93528)"
       style="fill:#008000">
      <path
         d="m 0,0 1.838,-4.011 32.923,15.084 -1.838,4.011 z"
         style="fill:#008000;fill-opacity:1;fill-rule:nonzero;stroke:none"
         id="path1100"
         inkscape:connector-curvature="0" />
    </g>
    <g
       id="g1102"
       transform="matrix(0.12375272,0,0,-0.11634302,87.356726,139.18031)"
       style="fill:#008000">
      <path
         d="m 0,0 1.838,-4.011 -32.923,-15.085 -1.838,4.012 z m -27.028,-10.734 -1.918,-0.879 -2.28,-1.044 -1.918,-0.879 -1.085,-0.497 c -0.181,-0.083 -0.322,-0.234 -0.391,-0.421 -0.069,-0.186 -0.062,-0.392 0.021,-0.573 l 0.506,-1.104 0.888,-1.938 1.055,-2.303 0.014,-0.03 c 0.126,-0.276 0.398,-0.438 0.682,-0.438 0.104,0 0.211,0.022 0.312,0.069 l 0.532,0.243 2.281,1.045 1.918,0.879 1.899,0.87 0.38,0.174 0.987,0.452 1.367,0.627 24.923,11.419 c 0.18,0.082 0.321,0.233 0.39,0.42 0.069,0.186 0.062,0.392 -0.021,0.574 L 1.051,1.307 C 0.879,1.684 0.435,1.847 0.057,1.676 l -25.836,-11.837 z"
         style="fill:#008000;fill-opacity:1;fill-rule:nonzero;stroke:none"
         id="path1104"
         inkscape:connector-curvature="0" />
    </g>
    <g
       id="g1106"
       transform="matrix(0.12375272,0,0,-0.11634302,79.687582,140.6262)"
       style="fill:#008000">
      <path
         d="m 0,0 -0.778,-2.131 c 0.021,-5.268 0.045,-11.242 0.045,-11.298 0.003,-1.663 -1.343,-3.014 -3.007,-3.017 h -0.005 c -0.997,0 -1.875,0.49 -2.423,1.236 -0.547,-0.75 -1.425,-1.243 -2.424,-1.245 h -0.006 c -1.661,0 -3.009,1.345 -3.012,3.007 0,0.052 10e-4,5.204 10e-4,10.157 l -0.722,-1.979 h -0.2 v 3.824 l 0.922,2.528 c 10e-4,2.684 10e-4,4.664 10e-4,4.664 -0.004,2.155 1.705,3.879 3.895,4.441 l -0.006,3.174 2.993,0.005 0.006,-3.177 c 2.192,-0.562 3.907,-2.301 3.911,-4.423 0,0 0.006,-1.692 0.016,-4.065 L 0,1.701 Z M 0,-4.884 V -5.27 H -0.141 -0.412 L 0,-4.14 Z m -3.222,16.141 -0.004,2.112 c -10e-4,0.397 -0.159,0.779 -0.441,1.059 -0.281,0.281 -0.662,0.438 -1.059,0.438 H -4.729 L -7.721,14.861 C -8.119,14.86 -8.5,14.701 -8.781,14.419 -9.062,14.138 -9.219,13.756 -9.219,13.358 l 0.004,-2.101 c -2.374,-1.017 -3.897,-3.12 -3.893,-5.513 0,0 -0.002,-19.095 -0.002,-19.195 0.005,-2.483 2.029,-4.504 4.512,-4.504 0.872,0.002 1.715,0.259 2.433,0.721 0.717,-0.458 1.556,-0.712 2.42,-0.712 1.213,0.002 2.345,0.473 3.196,1.327 0.851,0.854 1.318,1.988 1.316,3.193 0,0.1 -0.076,19.198 -0.076,19.198 -0.004,2.338 -1.565,4.466 -3.913,5.485"
         style="fill:#008000;fill-opacity:1;fill-rule:nonzero;stroke:none"
         id="path1108"
         inkscape:connector-curvature="0" />
    </g>
    <g
       id="g1110"
       transform="matrix(0.12375272,0,0,-0.11634302,78.278928,140.42832)"
       style="fill:#008000">
      <path
         d="M 0,0 -0.226,-0.619 -1.149,-3.146 V -6.97 h 0.2 L -0.226,-4.992 1.596,0 Z"
         style="fill:#008000;fill-opacity:1;fill-rule:nonzero;stroke:none"
         id="path1112"
         inkscape:connector-curvature="0" />
    </g>
    <g
       id="g1114"
       transform="matrix(0.12375272,0,0,-0.11634302,78.697077,140.42832)"
       style="fill:#008000">
      <path
         d="m 0,0 -2.545,-6.97 h 1.596 L 1.596,0 Z"
         style="fill:#008000;fill-opacity:1;fill-rule:nonzero;stroke:none"
         id="path1116"
         inkscape:connector-curvature="0" />
    </g>
    <g
       id="g1118"
       transform="matrix(0.12375272,0,0,-0.11634302,79.115224,140.42832)"
       style="fill:#008000">
      <path
         d="m 0,0 -2.545,-6.97 h 1.596 L 1.596,0 Z"
         style="fill:#008000;fill-opacity:1;fill-rule:nonzero;stroke:none"
         id="path1120"
         inkscape:connector-curvature="0" />
    </g>
    <g
       id="g1122"
       transform="matrix(0.12375272,0,0,-0.11634302,79.218397,141.23926)"
       style="fill:#008000">
      <path
         d="M 0,0 H 0.271 L 2.816,6.97 H 2.545 Z"
         style="fill:#008000;fill-opacity:1;fill-rule:nonzero;stroke:none"
         id="path1124"
         inkscape:connector-curvature="0" />
    </g>
    <g
       id="g1126"
       transform="matrix(0.12375272,0,0,-0.11634302,79.636546,141.23926)"
       style="fill:#008000">
      <path
         d="M 0,0 H 0.271 L 0.412,0.386 V 1.13 Z"
         style="fill:#008000;fill-opacity:1;fill-rule:nonzero;stroke:none"
         id="path1128"
         inkscape:connector-curvature="0" />
    </g>
    <g
       id="g1130"
       transform="matrix(0.12375272,0,0,-0.11634302,79.589421,140.42832)"
       style="fill:#008000">
      <path
         d="m 0,0 h -0.182 l -2.545,-6.97 h 1.596 l 1.146,3.138 0.778,2.131 V 0 Z"
         style="fill:#008000;fill-opacity:1;fill-rule:nonzero;stroke:none"
         id="path1132"
         inkscape:connector-curvature="0" />
    </g>
    <g
       id="g1134"
       transform="matrix(0.12375272,0,0,-0.11634302,79.670142,141.23926)"
       style="fill:#008000">
      <path
         d="M 0,0 H 0.141 V 0.386 Z"
         style="fill:#008000;fill-opacity:1;fill-rule:nonzero;stroke:none"
         id="path1136"
         inkscape:connector-curvature="0" />
    </g>
  </g>
</svg>
