<?xml version="1.0" encoding="UTF-8" standalone="no"?>
<!-- Created with Inkscape (http://www.inkscape.org/) -->

<svg
   xmlns:dc="http://purl.org/dc/elements/1.1/"
   xmlns:cc="http://creativecommons.org/ns#"
   xmlns:rdf="http://www.w3.org/1999/02/22-rdf-syntax-ns#"
   xmlns:svg="http://www.w3.org/2000/svg"
   xmlns="http://www.w3.org/2000/svg"
   xmlns:sodipodi="http://sodipodi.sourceforge.net/DTD/sodipodi-0.dtd"
   xmlns:inkscape="http://www.inkscape.org/namespaces/inkscape"
   width="7.751544mm"
   height="12.250862mm"
   viewBox="0 0 7.7515439 12.250862"
   version="1.1"
   id="svg1810"
   sodipodi:docname="Inicio.svg"
   inkscape:version="0.92.3 (2405546, 2018-03-11)">
  <defs
     id="defs1804" />
  <sodipodi:namedview
     id="base"
     pagecolor="#ffffff"
     bordercolor="#666666"
     borderopacity="1.0"
     inkscape:pageopacity="0.0"
     inkscape:pageshadow="2"
     inkscape:zoom="7.9195959"
     inkscape:cx="30.764784"
     inkscape:cy="27.36761"
     inkscape:document-units="mm"
     inkscape:current-layer="layer1"
     showgrid="false"
     inkscape:window-width="1366"
     inkscape:window-height="717"
     inkscape:window-x="0"
     inkscape:window-y="27"
     inkscape:window-maximized="1"
     fit-margin-top="0"
     fit-margin-left="0"
     fit-margin-right="0"
     fit-margin-bottom="0" />
  <metadata
     id="metadata1807">
    <rdf:RDF>
      <cc:Work
         rdf:about="">
        <dc:format>image/svg+xml</dc:format>
        <dc:type
           rdf:resource="http://purl.org/dc/dcmitype/StillImage" />
        <dc:title></dc:title>
      </cc:Work>
    </rdf:RDF>
  </metadata>
  <g
     inkscape:label="Camada 1"
     inkscape:groupmode="layer"
     id="layer1"
     transform="translate(-76.887554,-138.48684)">
    <g
       id="g20"
       transform="matrix(0.1020563,0,0,-0.08701444,82.664004,150.13123)"
       style="fill:#008000">
      <path
         d="M 0,0 H -0.75 V -0.685 H 0 c 0.414,0 0.75,-0.336 0.75,-0.75 V 0.75 C 0.75,0.336 0.414,0 0,0"
         style="fill:#008000;fill-opacity:1;fill-rule:nonzero;stroke:none"
         id="path22"
         inkscape:connector-curvature="0" />
    </g>
    <g
       id="g24"
       transform="matrix(0.1020563,0,0,-0.08701444,77.504576,150.1908)"
       style="fill:#008000">
      <path
         d="M 0,0 H 0.75 V 0.685 H 0 c -0.414,0 -0.75,0.336 -0.75,0.75 V -0.75 C -0.75,-0.336 -0.414,0 0,0"
         style="fill:#008000;fill-opacity:1;fill-rule:nonzero;stroke:none"
         id="path26"
         inkscape:connector-curvature="0" />
    </g>
    <g
       id="g28"
       transform="matrix(0.1020563,0,0,-0.08701444,77.504576,150.38084)"
       style="fill:#008000">
      <path
         d="M 0,0 H 0.75 V 0.684 H 0 c -0.414,0 -0.75,0.336 -0.75,0.75 V -0.75 C -0.75,-0.336 -0.414,0 0,0"
         style="fill:#008000;fill-opacity:1;fill-rule:nonzero;stroke:none"
         id="path30"
         inkscape:connector-curvature="0" />
    </g>
    <g
       id="g32"
       transform="matrix(0.1020563,0,0,-0.08701444,77.504576,150.0007)"
       style="fill:#008000">
      <path
         d="M 0,0 H 0.75 V 0.685 H 0 c -0.414,0 -0.75,0.336 -0.75,0.75 V -0.75 C -0.75,-0.336 -0.414,0 0,0"
         style="fill:#008000;fill-opacity:1;fill-rule:nonzero;stroke:none"
         id="path34"
         inkscape:connector-curvature="0" />
    </g>
    <g
       id="g36"
       transform="matrix(0.1020563,0,0,-0.08701444,82.664004,149.94114)"
       style="fill:#008000">
      <path
         d="M 0,0 H -0.75 V -0.685 H 0 c 0.414,0 0.75,-0.336 0.75,-0.75 V 0.75 C 0.75,0.336 0.414,0 0,0"
         style="fill:#008000;fill-opacity:1;fill-rule:nonzero;stroke:none"
         id="path38"
         inkscape:connector-curvature="0" />
    </g>
    <g
       id="g40"
       transform="matrix(0.1020563,0,0,-0.08701444,82.664004,150.32132)"
       style="fill:#008000">
      <path
         d="M 0,0 H -0.75 V -0.684 H 0 c 0.414,0 0.75,-0.336 0.75,-0.75 V 0.75 C 0.75,0.336 0.414,0 0,0"
         style="fill:#008000;fill-opacity:1;fill-rule:nonzero;stroke:none"
         id="path42"
         inkscape:connector-curvature="0" />
    </g>
    <g
       id="g44"
       transform="matrix(0.1020563,0,0,-0.08701444,82.740545,150.67244)"
       style="fill:#008000">
      <path
         d="M 0,0 V 0.75 2.601 C 0,2.187 -0.336,1.851 -0.75,1.851 H -1.5 V 0.75 h -49.055 v 1.101 h -0.75 c -0.414,0 -0.75,0.336 -0.75,0.75 V 0.75 0 c 0,-0.414 0.336,-0.75 0.75,-0.75 H -0.75 C -0.336,-0.75 0,-0.414 0,0"
         style="fill:#008000;fill-opacity:1;fill-rule:nonzero;stroke:none"
         id="path46"
         inkscape:connector-curvature="0" />
    </g>
    <g
       id="g48"
       transform="matrix(0.1020563,0,0,-0.08701444,77.504576,150.13123)"
       style="fill:#008000">
      <path
         d="m 0,0 h 0.75 49.055 0.75 c 0.414,0 0.75,0.336 0.75,0.75 0,0.414 -0.336,0.75 -0.75,0.75 H 49.805 0.75 0 C -0.414,1.5 -0.75,1.164 -0.75,0.75 -0.75,0.336 -0.414,0 0,0"
         style="fill:#008000;fill-opacity:1;fill-rule:nonzero;stroke:none"
         id="path50"
         inkscape:connector-curvature="0" />
    </g>
    <g
       id="g52"
       transform="matrix(0.1020563,0,0,-0.08701444,77.504576,150.32132)"
       style="fill:#008000">
      <path
         d="m 0,0 h 0.75 49.055 0.75 c 0.414,0 0.75,0.336 0.75,0.75 0,0.414 -0.336,0.75 -0.75,0.75 H 49.805 0.75 0 C -0.414,1.5 -0.75,1.164 -0.75,0.75 -0.75,0.336 -0.414,0 0,0"
         style="fill:#008000;fill-opacity:1;fill-rule:nonzero;stroke:none"
         id="path54"
         inkscape:connector-curvature="0" />
    </g>
    <g
       id="g56"
       transform="matrix(0.1020563,0,0,-0.08701444,82.664004,150.38084)"
       style="fill:#008000">
      <path
         d="m 0,0 h -0.75 -49.055 -0.75 c -0.414,0 -0.75,-0.336 -0.75,-0.75 0,-0.414 0.336,-0.75 0.75,-0.75 h 0.75 H -0.75 0 c 0.414,0 0.75,0.336 0.75,0.75 C 0.75,-0.336 0.414,0 0,0"
         style="fill:#008000;fill-opacity:1;fill-rule:nonzero;stroke:none"
         id="path58"
         inkscape:connector-curvature="0" />
    </g>
    <g
       id="g532"
       transform="matrix(0.1020563,0,0,-0.08701444,76.964099,144.97383)"
       style="fill:#008000">
      <path
         d="m 0,0 h 0.75 v 17.142 h 59.646 v -4.517 h 0.296 c 0.414,0 0.75,-0.336 0.75,-0.75 0,-0.414 -0.336,-0.75 -0.75,-0.75 h -0.296 v -51.833 h 0.75 c 0.415,0 0.75,-0.336 0.75,-0.75 v 59.35 c 0,-0.414 -0.335,-0.75 -0.75,-0.75 -0.414,0 -0.75,0.336 -0.75,0.75 v 0.75 h -5.162 l -1.169,-1.168 c -0.214,-0.215 -0.537,-0.28 -0.817,-0.163 -0.28,0.116 -0.463,0.39 -0.463,0.693 v 0.638 h -5.163 l -1.169,-1.168 c -0.215,-0.215 -0.537,-0.28 -0.817,-0.163 -0.281,0.116 -0.463,0.39 -0.463,0.693 v 0.638 h -5.164 l -1.168,-1.168 c -0.215,-0.215 -0.537,-0.28 -0.818,-0.163 -0.28,0.116 -0.462,0.39 -0.462,0.693 v 0.638 h -5.163 l -1.169,-1.168 c -0.214,-0.215 -0.537,-0.28 -0.817,-0.163 -0.28,0.116 -0.463,0.39 -0.463,0.693 v 0.638 h -5.163 l -1.169,-1.168 c -0.215,-0.215 -0.537,-0.28 -0.817,-0.163 -0.28,0.116 -0.463,0.39 -0.463,0.693 v 0.638 h -5.163 l -1.168,-1.168 c -0.215,-0.215 -0.536,-0.28 -0.818,-0.163 -0.28,0.116 -0.462,0.39 -0.462,0.693 v 0.638 H 9.562 L 8.394,17.474 c -0.215,-0.215 -0.538,-0.28 -0.818,-0.163 -0.28,0.116 -0.463,0.39 -0.463,0.693 v 0.638 H 1.951 L 0.782,17.474 c -0.293,-0.293 -0.767,-0.293 -1.06,0 -0.293,0.293 -0.293,0.767 0,1.06 l 0.064,0.065 C -0.521,18.506 -0.75,18.23 -0.75,17.892 V -0.75 C -0.75,-0.336 -0.414,0 0,0"
         style="fill:#008000;fill-opacity:1;fill-rule:nonzero;stroke:none"
         id="path534"
         inkscape:connector-curvature="0" />
    </g>
    <g
       id="g536"
       transform="matrix(0.1020563,0,0,-0.08701444,76.887554,150.67244)"
       style="fill:#008000">
      <path
         d="m 0,0 c 0,-0.414 0.336,-0.75 0.75,-0.75 h 5.296 c -0.414,0 -0.75,0.336 -0.75,0.75 V 0.75 H 1.5 V 63.99 H 0.75 C 0.336,63.99 0,64.326 0,64.74 Z"
         style="fill:#008000;fill-opacity:1;fill-rule:nonzero;stroke:none"
         id="path538"
         inkscape:connector-curvature="0" />
    </g>
    <g
       id="g540"
       transform="matrix(0.1020563,0,0,-0.08701444,83.204482,148.64654)"
       style="fill:#008000">
      <path
         d="m 0,0 h -0.75 v -22.532 h -3.796 v -0.75 c 0,-0.414 -0.336,-0.75 -0.75,-0.75 H 0 c 0.414,0 0.75,0.336 0.75,0.75 V 0.75 C 0.75,0.336 0.414,0 0,0"
         style="fill:#008000;fill-opacity:1;fill-rule:nonzero;stroke:none"
         id="path542"
         inkscape:connector-curvature="0" />
    </g>
    <g
       id="g544"
       transform="matrix(0.1020563,0,0,-0.08701444,82.873158,143.11969)"
       style="fill:#008000">
      <path
         d="M 0,0 -0.142,-0.142 C -0.088,-0.101 -0.041,-0.055 0,0"
         style="fill:#008000;fill-opacity:1;fill-rule:nonzero;stroke:none"
         id="path546"
         inkscape:connector-curvature="0" />
    </g>
    <g
       id="g548"
       transform="matrix(0.1020563,0,0,-0.08701444,81.985391,142.54104)"
       style="fill:#008000">
      <path
         d="m 0,0 h -0.047 c -0.414,0 -0.75,0.336 -0.75,0.75 0,0.414 0.336,0.75 0.75,0.75 H 0 v 15.833 h -0.047 c -0.414,0 -0.75,0.336 -0.75,0.75 0,0.415 0.336,0.75 0.75,0.75 H 0 v 0.598 h -0.75 c -0.414,0 -0.75,0.336 -0.75,0.75 V -7.116 l 1.5,1.5 z"
         style="fill:#008000;fill-opacity:1;fill-rule:nonzero;stroke:none"
         id="path550"
         inkscape:connector-curvature="0" />
    </g>
    <g
       id="g552"
       transform="matrix(0.1020563,0,0,-0.08701444,82.813198,140.85025)"
       style="fill:#008000">
      <path
         d="m 0,0 h -0.75 v -25.298 l 1.5,1.5 V 0.75 C 0.75,0.336 0.414,0 0,0"
         style="fill:#008000;fill-opacity:1;fill-rule:nonzero;stroke:none"
         id="path554"
         inkscape:connector-curvature="0" />
    </g>
    <g
       id="g556"
       transform="matrix(0.1020563,0,0,-0.08701444,81.96302,143.23333)"
       style="fill:#008000">
      <path
         d="M 0,0 -0.002,-0.002 Z"
         style="fill:#008000;fill-opacity:1;fill-rule:nonzero;stroke:none"
         id="path558"
         inkscape:connector-curvature="0" />
    </g>
    <path
       d="M 82.736605,140.7197 H 81.98537 v -0.18778 h 0.751235 z m -0.827778,0.13052 h 0.07655 0.751234 0.07655 c 0.04235,0 0.07655,-0.0293 0.07655,-0.0653 v -0.31822 c 0,-0.036 -0.03418,-0.0653 -0.07655,-0.0653 H 81.90883 c -0.04225,0 -0.07655,0.0292 -0.07655,0.0653 v 0.31822 c 0,0.036 0.03428,0.0653 0.07655,0.0653"
       style="fill:#008000;fill-opacity:1;fill-rule:nonzero;stroke:none;stroke-width:0.09423572"
       id="path560"
       inkscape:connector-curvature="0" />
    <path
       d="M 82.587503,143.83124 H 77.58113 v 0.35285 h 5.006373 z"
       style="fill:#008000;fill-opacity:1;fill-rule:nonzero;stroke:none;stroke-width:0.09423572"
       id="path562"
       inkscape:connector-curvature="0" />
    <path
       d="m 77.58113,143.83124 h 5.006373 v 0.35285 H 77.58113 Z m -0.07655,0.48338 h 5.159456 c 0.04225,0 0.07655,-0.0293 0.07655,-0.0653 v -0.48336 c 0,-0.036 -0.03428,-0.0653 -0.07655,-0.0653 H 77.50458 c -0.04225,0 -0.07655,0.0292 -0.07655,0.0653 v 0.48336 c 0,0.036 0.03428,0.0653 0.07655,0.0653"
       style="fill:#008000;fill-opacity:1;fill-rule:nonzero;stroke:none;stroke-width:0.09423572"
       id="path564"
       inkscape:connector-curvature="0" />
    <g
       id="g566"
       transform="matrix(0.1020563,0,0,-0.08701444,82.664004,149.37091)"
       style="fill:#008000">
      <path
         d="M 0,0 H -0.75 V -0.684 H 0 c 0.414,0 0.75,-0.336 0.75,-0.75 V 0.75 C 0.75,0.336 0.414,0 0,0"
         style="fill:#008000;fill-opacity:1;fill-rule:nonzero;stroke:none"
         id="path568"
         inkscape:connector-curvature="0" />
    </g>
    <g
       id="g570"
       transform="matrix(0.1020563,0,0,-0.08701444,77.504576,149.24039)"
       style="fill:#008000">
      <path
         d="M 0,0 H 0.75 V 1.213 H 49.805 V 0 h 0.75 c 0.414,0 0.75,-0.336 0.75,-0.75 v 2.713 c 0,0.414 -0.336,0.75 -0.75,0.75 H 0 c -0.414,0 -0.75,-0.336 -0.75,-0.75 V -0.75 C -0.75,-0.336 -0.414,0 0,0"
         style="fill:#008000;fill-opacity:1;fill-rule:nonzero;stroke:none"
         id="path572"
         inkscape:connector-curvature="0" />
    </g>
    <g
       id="g574"
       transform="matrix(0.1020563,0,0,-0.08701444,82.664004,149.75105)"
       style="fill:#008000">
      <path
         d="M 0,0 H -0.75 V -0.685 H 0 c 0.414,0 0.75,-0.336 0.75,-0.75 V 0.75 C 0.75,0.336 0.414,0 0,0"
         style="fill:#008000;fill-opacity:1;fill-rule:nonzero;stroke:none"
         id="path576"
         inkscape:connector-curvature="0" />
    </g>
    <g
       id="g578"
       transform="matrix(0.1020563,0,0,-0.08701444,82.664004,149.56096)"
       style="fill:#008000">
      <path
         d="M 0,0 H -0.75 V -0.685 H 0 c 0.414,0 0.75,-0.336 0.75,-0.75 V 0.75 C 0.75,0.336 0.414,0 0,0"
         style="fill:#008000;fill-opacity:1;fill-rule:nonzero;stroke:none"
         id="path580"
         inkscape:connector-curvature="0" />
    </g>
    <g
       id="g582"
       transform="matrix(0.1020563,0,0,-0.08701444,77.504576,149.81062)"
       style="fill:#008000">
      <path
         d="M 0,0 H 0.75 V 0.685 H 0 c -0.414,0 -0.75,0.336 -0.75,0.75 V -0.75 C -0.75,-0.336 -0.414,0 0,0"
         style="fill:#008000;fill-opacity:1;fill-rule:nonzero;stroke:none"
         id="path584"
         inkscape:connector-curvature="0" />
    </g>
    <g
       id="g586"
       transform="matrix(0.1020563,0,0,-0.08701444,77.504576,149.43044)"
       style="fill:#008000">
      <path
         d="M 0,0 H 0.75 V 0.684 H 0 c -0.414,0 -0.75,0.336 -0.75,0.75 V -0.75 C -0.75,-0.336 -0.414,0 0,0"
         style="fill:#008000;fill-opacity:1;fill-rule:nonzero;stroke:none"
         id="path588"
         inkscape:connector-curvature="0" />
    </g>
    <g
       id="g590"
       transform="matrix(0.1020563,0,0,-0.08701444,77.504576,149.62053)"
       style="fill:#008000">
      <path
         d="M 0,0 H 0.75 V 0.685 H 0 c -0.414,0 -0.75,0.336 -0.75,0.75 V -0.75 C -0.75,-0.336 -0.414,0 0,0"
         style="fill:#008000;fill-opacity:1;fill-rule:nonzero;stroke:none"
         id="path592"
         inkscape:connector-curvature="0" />
    </g>
    <g
       id="g594"
       transform="matrix(0.1020563,0,0,-0.08701444,79.014888,145.69974)"
       style="fill:#008000">
      <path
         d="m 0,0 h -0.75 v -8.59 h -5.899 v -0.75 c 0,-0.414 -0.336,-0.75 -0.75,-0.75 H 0 c 0.414,0 0.75,0.336 0.75,0.75 V 0.75 C 0.75,0.336 0.414,0 0,0"
         style="fill:#008000;fill-opacity:1;fill-rule:nonzero;stroke:none"
         id="path596"
         inkscape:connector-curvature="0" />
    </g>
    <g
       id="g598"
       transform="matrix(0.1020563,0,0,-0.08701444,78.336275,144.75642)"
       style="fill:#008000">
      <path
         d="m 0,0 v -0.75 h 5.899 v -8.591 h 0.75 c 0.414,0 0.75,-0.336 0.75,-0.75 V 0 c 0,0.414 -0.336,0.75 -0.75,0.75 H -0.75 C -0.336,0.75 0,0.414 0,0"
         style="fill:#008000;fill-opacity:1;fill-rule:nonzero;stroke:none"
         id="path600"
         inkscape:connector-curvature="0" />
    </g>
    <g
       id="g602"
       transform="matrix(0.1020563,0,0,-0.08701444,78.259734,146.57774)"
       style="fill:#008000">
      <path
         d="M 0,0 C -0.414,0 -0.75,0.336 -0.75,0.75 V 1.5 h -5.899 v 8.59 h -0.75 c -0.414,0 -0.75,0.336 -0.75,0.75 V 0.75 C -8.149,0.336 -7.813,0 -7.399,0 Z"
         style="fill:#008000;fill-opacity:1;fill-rule:nonzero;stroke:none"
         id="path604"
         inkscape:connector-curvature="0" />
    </g>
    <g
       id="g606"
       transform="matrix(0.1020563,0,0,-0.08701444,77.504576,145.56921)"
       style="fill:#008000">
      <path
         d="m 0,0 h 0.75 v 8.591 h 5.899 v 0.75 c 0,0.414 0.336,0.75 0.75,0.75 H 0 c -0.414,0 -0.75,-0.336 -0.75,-0.75 V -0.75 C -0.75,-0.336 -0.414,0 0,0"
         style="fill:#008000;fill-opacity:1;fill-rule:nonzero;stroke:none"
         id="path608"
         inkscape:connector-curvature="0" />
    </g>
    <g
       id="g610"
       transform="matrix(0.1020563,0,0,-0.08701444,80.839441,144.69117)"
       style="fill:#008000">
      <path
         d="m 0,0 h -7.399 c 0.414,0 0.75,-0.336 0.75,-0.75 V -1.5 h 5.899 v -8.591 H 0 c 0.414,0 0.75,-0.336 0.75,-0.75 V -0.75 C 0.75,-0.336 0.414,0 0,0"
         style="fill:#008000;fill-opacity:1;fill-rule:nonzero;stroke:none"
         id="path612"
         inkscape:connector-curvature="0" />
    </g>
    <g
       id="g614"
       transform="matrix(0.1020563,0,0,-0.08701444,80.007744,146.51247)"
       style="fill:#008000">
      <path
         d="m 0,0 v 0.75 h -5.899 v 8.59 h -0.75 c -0.414,0 -0.75,0.336 -0.75,0.75 V 0 c 0,-0.414 0.336,-0.75 0.75,-0.75 H 0.75 C 0.336,-0.75 0,-0.414 0,0"
         style="fill:#008000;fill-opacity:1;fill-rule:nonzero;stroke:none"
         id="path616"
         inkscape:connector-curvature="0" />
    </g>
    <g
       id="g618"
       transform="matrix(0.1020563,0,0,-0.08701444,79.32913,145.56921)"
       style="fill:#008000">
      <path
         d="m 0,0 h 0.75 v 8.591 h 5.899 v 0.75 c 0,0.414 0.336,0.75 0.75,0.75 H 0 c -0.414,0 -0.75,-0.336 -0.75,-0.75 V -0.75 C -0.75,-0.336 -0.414,0 0,0"
         style="fill:#008000;fill-opacity:1;fill-rule:nonzero;stroke:none"
         id="path620"
         inkscape:connector-curvature="0" />
    </g>
    <g
       id="g622"
       transform="matrix(0.1020563,0,0,-0.08701444,80.839441,145.69974)"
       style="fill:#008000">
      <path
         d="m 0,0 h -0.75 v -8.59 h -5.899 v -0.75 c 0,-0.414 -0.336,-0.75 -0.75,-0.75 H 0 c 0.414,0 0.75,0.336 0.75,0.75 V 0.75 C 0.75,0.336 0.414,0 0,0"
         style="fill:#008000;fill-opacity:1;fill-rule:nonzero;stroke:none"
         id="path624"
         inkscape:connector-curvature="0" />
    </g>
    <g
       id="g626"
       transform="matrix(0.1020563,0,0,-0.08701444,82.664004,144.69117)"
       style="fill:#008000">
      <path
         d="m 0,0 h -7.399 c 0.414,0 0.75,-0.336 0.75,-0.75 V -1.5 h 5.899 v -8.591 H 0 c 0.414,0 0.75,-0.336 0.75,-0.75 V -0.75 C 0.75,-0.336 0.414,0 0,0"
         style="fill:#008000;fill-opacity:1;fill-rule:nonzero;stroke:none"
         id="path628"
         inkscape:connector-curvature="0" />
    </g>
    <g
       id="g630"
       transform="matrix(0.1020563,0,0,-0.08701444,82.664004,145.69974)"
       style="fill:#008000">
      <path
         d="m 0,0 h -0.75 v -8.59 h -5.899 v -0.75 c 0,-0.414 -0.336,-0.75 -0.75,-0.75 H 0 c 0.414,0 0.75,0.336 0.75,0.75 V 0.75 C 0.75,0.336 0.414,0 0,0"
         style="fill:#008000;fill-opacity:1;fill-rule:nonzero;stroke:none"
         id="path632"
         inkscape:connector-curvature="0" />
    </g>
    <g
       id="g634"
       transform="matrix(0.1020563,0,0,-0.08701444,81.832305,146.51247)"
       style="fill:#008000">
      <path
         d="m 0,0 v 0.75 h -5.9 v 8.59 h -0.75 c -0.414,0 -0.75,0.336 -0.75,0.75 V 0 c 0,-0.414 0.336,-0.75 0.75,-0.75 h 7.4 C 0.336,-0.75 0,-0.414 0,0"
         style="fill:#008000;fill-opacity:1;fill-rule:nonzero;stroke:none"
         id="path636"
         inkscape:connector-curvature="0" />
    </g>
    <g
       id="g638"
       transform="matrix(0.1020563,0,0,-0.08701444,81.153591,145.56921)"
       style="fill:#008000">
      <path
         d="m 0,0 h 0.75 v 8.591 h 5.9 v 0.75 c 0,0.414 0.336,0.75 0.75,0.75 H 0 c -0.414,0 -0.75,-0.336 -0.75,-0.75 V -0.75 C -0.75,-0.336 -0.414,0 0,0"
         style="fill:#008000;fill-opacity:1;fill-rule:nonzero;stroke:none"
         id="path640"
         inkscape:connector-curvature="0" />
    </g>
    <g
       id="g642"
       transform="matrix(0.1020563,0,0,-0.08701444,79.014888,147.98798)"
       style="fill:#008000">
      <path
         d="m 0,0 h -0.75 v -8.59 h -5.899 v -0.75 c 0,-0.414 -0.336,-0.75 -0.75,-0.75 H 0 c 0.414,0 0.75,0.336 0.75,0.75 V 0.75 C 0.75,0.336 0.414,0 0,0"
         style="fill:#008000;fill-opacity:1;fill-rule:nonzero;stroke:none"
         id="path644"
         inkscape:connector-curvature="0" />
    </g>
    <g
       id="g646"
       transform="matrix(0.1020563,0,0,-0.08701444,77.504576,148.86598)"
       style="fill:#008000">
      <path
         d="M 0,0 H 7.399 C 6.985,0 6.649,0.336 6.649,0.75 V 1.5 H 0.75 v 8.59 H 0 c -0.414,0 -0.75,0.336 -0.75,0.75 V 0.75 C -0.75,0.336 -0.414,0 0,0"
         style="fill:#008000;fill-opacity:1;fill-rule:nonzero;stroke:none"
         id="path648"
         inkscape:connector-curvature="0" />
    </g>
    <g
       id="g650"
       transform="matrix(0.1020563,0,0,-0.08701444,77.504576,147.85746)"
       style="fill:#008000">
      <path
         d="m 0,0 h 0.75 v 8.59 h 5.899 v 0.75 c 0,0.414 0.336,0.75 0.75,0.75 H 0 c -0.414,0 -0.75,-0.336 -0.75,-0.75 V -0.75 C -0.75,-0.336 -0.414,0 0,0"
         style="fill:#008000;fill-opacity:1;fill-rule:nonzero;stroke:none"
         id="path652"
         inkscape:connector-curvature="0" />
    </g>
    <g
       id="g654"
       transform="matrix(0.1020563,0,0,-0.08701444,78.336275,147.04472)"
       style="fill:#008000">
      <path
         d="m 0,0 v -0.75 h 5.899 v -8.59 h 0.75 c 0.414,0 0.75,-0.336 0.75,-0.75 V 0 c 0,0.414 -0.336,0.75 -0.75,0.75 H -0.75 C -0.336,0.75 0,0.414 0,0"
         style="fill:#008000;fill-opacity:1;fill-rule:nonzero;stroke:none"
         id="path656"
         inkscape:connector-curvature="0" />
    </g>
    <g
       id="g658"
       transform="matrix(0.1020563,0,0,-0.08701444,80.839441,146.97945)"
       style="fill:#008000">
      <path
         d="m 0,0 h -7.399 c 0.414,0 0.75,-0.336 0.75,-0.75 V -1.5 h 5.899 v -8.59 H 0 c 0.414,0 0.75,-0.336 0.75,-0.75 V -0.75 C 0.75,-0.336 0.414,0 0,0"
         style="fill:#008000;fill-opacity:1;fill-rule:nonzero;stroke:none"
         id="path660"
         inkscape:connector-curvature="0" />
    </g>
    <g
       id="g662"
       transform="matrix(0.1020563,0,0,-0.08701444,80.007744,148.80073)"
       style="fill:#008000">
      <path
         d="m 0,0 v 0.75 h -5.899 v 8.59 h -0.75 c -0.414,0 -0.75,0.336 -0.75,0.75 V 0 c 0,-0.414 0.336,-0.75 0.75,-0.75 H 0.75 C 0.336,-0.75 0,-0.414 0,0"
         style="fill:#008000;fill-opacity:1;fill-rule:nonzero;stroke:none"
         id="path664"
         inkscape:connector-curvature="0" />
    </g>
    <g
       id="g666"
       transform="matrix(0.1020563,0,0,-0.08701444,79.32913,147.85746)"
       style="fill:#008000">
      <path
         d="m 0,0 h 0.75 v 8.59 h 5.899 v 0.75 c 0,0.414 0.336,0.75 0.75,0.75 H 0 c -0.414,0 -0.75,-0.336 -0.75,-0.75 V -0.75 C -0.75,-0.336 -0.414,0 0,0"
         style="fill:#008000;fill-opacity:1;fill-rule:nonzero;stroke:none"
         id="path668"
         inkscape:connector-curvature="0" />
    </g>
    <g
       id="g670"
       transform="matrix(0.1020563,0,0,-0.08701444,80.839441,147.98798)"
       style="fill:#008000">
      <path
         d="m 0,0 h -0.75 v -8.59 h -5.899 v -0.75 c 0,-0.414 -0.336,-0.75 -0.75,-0.75 H 0 c 0.414,0 0.75,0.336 0.75,0.75 V 0.75 C 0.75,0.336 0.414,0 0,0"
         style="fill:#008000;fill-opacity:1;fill-rule:nonzero;stroke:none"
         id="path672"
         inkscape:connector-curvature="0" />
    </g>
    <g
       id="g674"
       transform="matrix(0.1020563,0,0,-0.08701444,81.832305,148.80073)"
       style="fill:#008000">
      <path
         d="m 0,0 v 0.75 h -5.9 v 8.59 h -0.75 c -0.414,0 -0.75,0.336 -0.75,0.75 V 0 c 0,-0.414 0.336,-0.75 0.75,-0.75 h 7.4 C 0.336,-0.75 0,-0.414 0,0"
         style="fill:#008000;fill-opacity:1;fill-rule:nonzero;stroke:none"
         id="path676"
         inkscape:connector-curvature="0" />
    </g>
    <g
       id="g678"
       transform="matrix(0.1020563,0,0,-0.08701444,81.153591,147.85746)"
       style="fill:#008000">
      <path
         d="m 0,0 h 0.75 v 8.59 h 5.9 v 0.75 c 0,0.414 0.336,0.75 0.75,0.75 H 0 c -0.414,0 -0.75,-0.336 -0.75,-0.75 V -0.75 C -0.75,-0.336 -0.414,0 0,0"
         style="fill:#008000;fill-opacity:1;fill-rule:nonzero;stroke:none"
         id="path680"
         inkscape:connector-curvature="0" />
    </g>
    <g
       id="g682"
       transform="matrix(0.1020563,0,0,-0.08701444,82.664004,147.98798)"
       style="fill:#008000">
      <path
         d="m 0,0 h -0.75 v -8.59 h -5.899 v -0.75 c 0,-0.414 -0.336,-0.75 -0.75,-0.75 H 0 c 0.414,0 0.75,0.336 0.75,0.75 V 0.75 C 0.75,0.336 0.414,0 0,0"
         style="fill:#008000;fill-opacity:1;fill-rule:nonzero;stroke:none"
         id="path684"
         inkscape:connector-curvature="0" />
    </g>
    <g
       id="g686"
       transform="matrix(0.1020563,0,0,-0.08701444,82.664004,146.97945)"
       style="fill:#008000">
      <path
         d="m 0,0 h -7.399 c 0.414,0 0.75,-0.336 0.75,-0.75 V -1.5 h 5.899 v -8.59 H 0 c 0.414,0 0.75,-0.336 0.75,-0.75 V -0.75 C 0.75,-0.336 0.414,0 0,0"
         style="fill:#008000;fill-opacity:1;fill-rule:nonzero;stroke:none"
         id="path688"
         inkscape:connector-curvature="0" />
    </g>
    <g
       id="g690"
       transform="matrix(0.1020563,0,0,-0.08701444,83.881197,139.99965)"
       style="fill:#008000">
      <path
         d="m 0,0 h -0.661 l 0.365,1 H 0 C 0.503,1 0.979,1.112 1.411,1.304 L 0.977,0.114 C 0.661,0.044 0.336,0 0,0 m -4.495,0 0.365,1 h 1.597 L -2.898,0 Z M -7.604,0 C -7.958,-0.615 -8.407,-1.148 -8.915,-1.607 L -7.963,1 h 1.596 L -6.732,0 Z m -5.664,-3.3 c -0.032,0 -0.064,0.004 -0.096,0.005 l 0.37,1.014 c 0.603,0.03 1.185,0.156 1.732,0.371 l -0.435,-1.19 c -0.507,-0.127 -1.032,-0.2 -1.571,-0.2 m -3.548,1.051 0.353,0.966 c 0.41,-0.289 0.862,-0.522 1.343,-0.693 l -0.342,-0.938 c -0.479,0.17 -0.933,0.393 -1.354,0.665 m -2.624,3.312 0.637,1.744 c 0.069,-0.851 0.33,-1.646 0.74,-2.346 l -0.423,-1.158 c -0.403,0.53 -0.726,1.121 -0.954,1.76 m 6.117,12.384 -0.551,-1.51 c -0.972,-0.789 -1.615,-1.969 -1.655,-3.33 L -15.538,8.313 -15.8,8.178 c -0.544,-0.281 -1.019,-0.647 -1.432,-1.066 l 0.646,1.768 c 0.025,0.015 0.048,0.034 0.073,0.049 0.009,0.102 0.039,0.196 0.053,0.296 l 0.798,2.186 c 0.565,0.891 1.371,1.599 2.339,2.036 m 2.849,0.458 c 0.47,0.423 0.989,0.775 1.539,1.059 L -9.499,13.42 C -9.658,13.294 -9.812,13.159 -9.96,13.017 l -0.179,-0.172 -0.244,0.038 c -0.227,0.035 -0.458,0.06 -0.694,0.06 -0.069,0 -0.132,-0.017 -0.2,-0.02 l 0.369,1.009 c 0.146,-0.005 0.292,-0.01 0.434,-0.027 m 4.877,1.874 c 0.263,0 0.521,-0.016 0.777,-0.043 l -0.357,-0.978 c -0.14,0.009 -0.278,0.021 -0.42,0.021 -0.41,0 -0.816,-0.04 -1.212,-0.118 l 0.389,1.066 c 0.272,0.031 0.546,0.052 0.823,0.052 m 4.15,-1.302 -0.359,-0.983 c -0.404,0.308 -0.842,0.572 -1.313,0.775 l 0.344,0.942 c 0.471,-0.198 0.913,-0.447 1.328,-0.734 M 1.182,11.176 0.595,9.568 C 0.454,10.346 0.174,11.07 -0.216,11.719 L 0.21,12.887 C 0.607,12.366 0.935,11.793 1.182,11.176 M 3.559,7.189 3.129,6.009 C 2.873,6.527 2.49,6.977 2.009,7.314 L 2.361,8.278 C 2.831,7.989 3.231,7.616 3.559,7.189 M -7.901,1.25 c -0.281,0 -0.538,-0.157 -0.667,-0.406 -0.921,-1.785 -2.722,-2.894 -4.7,-2.894 -2.926,0 -5.308,2.382 -5.308,5.309 0,1.977 1.107,3.777 2.89,4.697 0.243,0.125 0.398,0.372 0.407,0.644 0.068,2.295 1.914,4.093 4.202,4.093 0.223,0 0.441,-0.024 0.655,-0.057 0.235,-0.033 0.466,0.039 0.635,0.201 1.136,1.091 2.623,1.692 4.19,1.692 3.338,0 6.054,-2.716 6.05,-6.114 C 0.453,8.404 0.447,8.303 0.446,8.292 0.437,7.958 0.65,7.658 0.969,7.557 2.326,7.124 3.238,5.891 3.238,4.488 3.238,2.703 1.785,1.25 0,1.25 Z M 4.738,4.488 c 0,1.87 -1.099,3.533 -2.787,4.296 -0.162,4.022 -3.485,7.245 -7.548,7.245 -1.834,0 -3.582,-0.659 -4.96,-1.863 -0.181,0.018 -0.354,0.027 -0.52,0.027 -2.958,0 -5.371,-2.213 -5.673,-5.113 -2.062,-1.23 -3.326,-3.423 -3.326,-5.821 0,-3.755 3.055,-6.809 6.808,-6.809 2.388,0 4.573,1.253 5.806,3.3 H 0 c 2.612,0 4.738,2.125 4.738,4.738"
         style="fill:#008000;fill-opacity:1;fill-rule:nonzero;stroke:none"
         id="path692"
         inkscape:connector-curvature="0" />
    </g>
    <g
       id="g694"
       transform="matrix(0.1020563,0,0,-0.08701444,82.195974,139.22272)"
       style="fill:#008000">
      <path
         d="m 0,0 c -0.026,-0.015 -0.048,-0.034 -0.073,-0.049 l -0.646,-1.768 c 0.413,0.419 0.888,0.786 1.432,1.067 l 0.262,0.135 0.008,0.294 c 0.041,1.36 0.684,2.54 1.655,3.329 L 3.19,4.518 C 2.222,4.082 1.416,3.373 0.85,2.482 L 0.052,0.296 C 0.039,0.196 0.008,0.102 0,0"
         style="fill:#008000;fill-opacity:1;fill-rule:nonzero;stroke:none"
         id="path696"
         inkscape:connector-curvature="0" />
    </g>
    <g
       id="g698"
       transform="matrix(0.1020563,0,0,-0.08701444,81.962204,139.75541)"
       style="fill:#008000">
      <path
         d="m 0,0 -0.637,-1.744 c 0.228,-0.638 0.551,-1.23 0.954,-1.76 L 0.74,-2.345 C 0.33,-1.646 0.069,-0.85 0,0"
         style="fill:#008000;fill-opacity:1;fill-rule:nonzero;stroke:none"
         id="path700"
         inkscape:connector-curvature="0" />
    </g>
    <g
       id="g702"
       transform="matrix(0.1020563,0,0,-0.08701444,82.201057,140.11126)"
       style="fill:#008000">
      <path
         d="M 0,0 -0.353,-0.967 C 0.068,-1.238 0.521,-1.461 1,-1.632 l 0.343,0.939 C 0.862,-0.523 0.41,-0.29 0,0"
         style="fill:#008000;fill-opacity:1;fill-rule:nonzero;stroke:none"
         id="path704"
         inkscape:connector-curvature="0" />
    </g>
    <g
       id="g706"
       transform="matrix(0.1020563,0,0,-0.08701444,82.750711,138.87344)"
       style="fill:#008000">
      <path
         d="M 0,0 C 0.236,0 0.467,-0.024 0.694,-0.06 L 0.938,-0.098 1.117,0.074 C 1.265,0.216 1.419,0.351 1.578,0.477 L 2.142,2.021 C 1.592,1.737 1.073,1.385 0.604,0.962 0.461,0.979 0.315,0.984 0.169,0.99 L -0.199,-0.02 C -0.132,-0.017 -0.068,0 0,0"
         style="fill:#008000;fill-opacity:1;fill-rule:nonzero;stroke:none"
         id="path708"
         inkscape:connector-curvature="0" />
    </g>
    <g
       id="g710"
       transform="matrix(0.1020563,0,0,-0.08701444,82.555108,140.19814)"
       style="fill:#008000">
      <path
         d="m 0,0 -0.37,-1.014 c 0.032,-10e-4 0.064,-0.005 0.096,-0.005 0.538,0 1.064,0.074 1.571,0.2 l 0.435,1.19 C 1.185,0.156 0.603,0.03 0,0"
         style="fill:#008000;fill-opacity:1;fill-rule:nonzero;stroke:none"
         id="path712"
         inkscape:connector-curvature="0" />
    </g>
    <g
       id="g714"
       transform="matrix(0.1020563,0,0,-0.08701444,83.310019,138.71368)"
       style="fill:#008000">
      <path
         d="M 0,0 C 0.141,0 0.28,-0.012 0.419,-0.021 L 0.776,0.957 C 0.521,0.984 0.262,1 0,1 -0.277,1 -0.551,0.979 -0.823,0.948 L -1.212,-0.117 C -0.816,-0.04 -0.411,0 0,0"
         style="fill:#008000;fill-opacity:1;fill-rule:nonzero;stroke:none"
         id="path716"
         inkscape:connector-curvature="0" />
    </g>
    <g
       id="g718"
       transform="matrix(0.1020563,0,0,-0.08701444,83.068534,139.91263)"
       style="fill:#008000">
      <path
         d="m 0,0 -0.952,-2.607 c 0.508,0.459 0.957,0.992 1.31,1.607 h 0.873 l 0.365,1 z"
         style="fill:#008000;fill-opacity:1;fill-rule:nonzero;stroke:none"
         id="path720"
         inkscape:connector-curvature="0" />
    </g>
    <g
       id="g722"
       transform="matrix(0.1020563,0,0,-0.08701444,83.696914,138.82548)"
       style="fill:#008000">
      <path
         d="M 0,0 0.359,0.983 C -0.056,1.27 -0.499,1.519 -0.969,1.717 L -1.313,0.775 C -0.842,0.572 -0.404,0.308 0,0"
         style="fill:#008000;fill-opacity:1;fill-rule:nonzero;stroke:none"
         id="path724"
         inkscape:connector-curvature="0" />
    </g>
    <g
       id="g726"
       transform="matrix(0.1020563,0,0,-0.08701444,83.459758,139.91263)"
       style="fill:#008000">
      <path
         d="M 0,0 -0.365,-1 H 1.231 L 1.596,0 Z"
         style="fill:#008000;fill-opacity:1;fill-rule:nonzero;stroke:none"
         id="path728"
         inkscape:connector-curvature="0" />
    </g>
    <g
       id="g730"
       transform="matrix(0.1020563,0,0,-0.08701444,83.94188,139.16709)"
       style="fill:#008000">
      <path
         d="M 0,0 0.587,1.608 C 0.34,2.225 0.013,2.798 -0.384,3.319 L -0.811,2.151 C -0.421,1.502 -0.141,0.778 0,0"
         style="fill:#008000;fill-opacity:1;fill-rule:nonzero;stroke:none"
         id="path732"
         inkscape:connector-curvature="0" />
    </g>
    <g
       id="g734"
       transform="matrix(0.1020563,0,0,-0.08701444,83.881197,139.91263)"
       style="fill:#008000">
      <path
         d="M 0,0 H -0.296 L -0.661,-1 H 0 c 0.336,0 0.661,0.044 0.977,0.114 l 0.434,1.19 C 0.979,0.112 0.503,0 0,0"
         style="fill:#008000;fill-opacity:1;fill-rule:nonzero;stroke:none"
         id="path736"
         inkscape:connector-curvature="0" />
    </g>
    <g
       id="g738"
       transform="matrix(0.1020563,0,0,-0.08701444,84.20051,139.47679)"
       style="fill:#008000">
      <path
         d="M 0,0 0.431,1.18 C 0.102,1.607 -0.298,1.98 -0.768,2.27 L -1.12,1.305 C -0.638,0.968 -0.256,0.518 0,0"
         style="fill:#008000;fill-opacity:1;fill-rule:nonzero;stroke:none"
         id="path740"
         inkscape:connector-curvature="0" />
    </g>
    <g
       id="g742"
       transform="matrix(0.1020563,0,0,-0.08701444,84.368955,138.61736)"
       style="fill:#008000">
      <path
         d="M 0,0 C 0.633,0 1.147,-0.515 1.147,-1.147 1.147,-1.78 0.633,-2.295 0,-2.295 c -0.633,0 -1.147,0.515 -1.147,1.148 C -1.147,-0.515 -0.633,0 0,0 m -2.647,-1.147 c 0,-1.46 1.187,-2.648 2.647,-2.648 1.46,0 2.647,1.188 2.647,2.648 C 2.647,0.312 1.46,1.5 0,1.5 -1.46,1.5 -2.647,0.312 -2.647,-1.147"
         style="fill:#008000;fill-opacity:1;fill-rule:nonzero;stroke:none"
         id="path744"
         inkscape:connector-curvature="0" />
    </g>
    <g
       id="g746"
       transform="matrix(0.1020563,0,0,-0.08701444,82.284477,141.50414)"
       style="fill:#008000">
      <path
         d="m 0,0 c 0,-0.414 0.336,-0.75 0.75,-0.75 h 1.454 c 0.414,0 0.75,0.336 0.75,0.75 0,0.414 -0.336,0.75 -0.75,0.75 H 0.75 C 0.336,0.75 0,0.414 0,0"
         style="fill:#008000;fill-opacity:1;fill-rule:nonzero;stroke:none"
         id="path748"
         inkscape:connector-curvature="0" />
    </g>
    <g
       id="g750"
       transform="matrix(0.1020563,0,0,-0.08701444,82.205546,142.47578)"
       style="fill:#008000">
      <path
         d="m 0,0 c 0,0.414 -0.336,0.75 -0.75,0.75 h -1.407 -0.047 c -0.414,0 -0.75,-0.336 -0.75,-0.75 0,-0.414 0.336,-0.75 0.75,-0.75 h 0.047 1.407 C -0.336,-0.75 0,-0.414 0,0"
         style="fill:#008000;fill-opacity:1;fill-rule:nonzero;stroke:none"
         id="path752"
         inkscape:connector-curvature="0" />
    </g>
    <g
       id="g754"
       transform="matrix(0.1020563,0,0,-0.08701444,82.205546,140.96751)"
       style="fill:#008000">
      <path
         d="m 0,0 c 0,0.414 -0.336,0.75 -0.75,0.75 h -1.407 -0.047 c -0.414,0 -0.75,-0.336 -0.75,-0.75 0,-0.414 0.336,-0.75 0.75,-0.75 h 0.047 1.407 C -0.336,-0.75 0,-0.414 0,0"
         style="fill:#008000;fill-opacity:1;fill-rule:nonzero;stroke:none"
         id="path756"
         inkscape:connector-curvature="0" />
    </g>
    <g
       id="g758"
       transform="matrix(0.1020563,0,0,-0.08701444,76.964099,145.10435)"
       style="fill:#008000">
      <path
         d="m 0,0 h 0.75 0.703 c 0.414,0 0.75,0.336 0.75,0.75 0,0.414 -0.336,0.75 -0.75,0.75 H 0.75 0 C -0.414,1.5 -0.75,1.164 -0.75,0.75 -0.75,0.336 -0.414,0 0,0"
         style="fill:#008000;fill-opacity:1;fill-rule:nonzero;stroke:none"
         id="path760"
         inkscape:connector-curvature="0" />
    </g>
    <g
       id="g762"
       transform="matrix(0.1020563,0,0,-0.08701444,77.634434,144.39737)"
       style="fill:#008000">
      <path
         d="m 0,0 c -0.414,0 -0.75,-0.336 -0.75,-0.75 0,-0.414 0.336,-0.75 0.75,-0.75 h 1.454 c 0.414,0 0.75,0.336 0.75,0.75 0,0.414 -0.336,0.75 -0.75,0.75 z"
         style="fill:#008000;fill-opacity:1;fill-rule:nonzero;stroke:none"
         id="path764"
         inkscape:connector-curvature="0" />
    </g>
    <g
       id="g766"
       transform="matrix(0.1020563,0,0,-0.08701444,82.58746,144.5351)"
       style="fill:#008000">
      <path
         d="m 0,0 c 0,-0.414 0.336,-0.75 0.75,-0.75 h 1.454 c 0.414,0 0.75,0.336 0.75,0.75 0,0.414 -0.336,0.75 -0.75,0.75 H 0.75 C 0.336,0.75 0,0.414 0,0"
         style="fill:#008000;fill-opacity:1;fill-rule:nonzero;stroke:none"
         id="path768"
         inkscape:connector-curvature="0" />
    </g>
    <g
       id="g770"
       transform="matrix(0.1020563,0,0,-0.08701444,82.93329,143.94054)"
       style="fill:#008000">
      <path
         d="m 0,0 c 0,-0.414 0.336,-0.75 0.75,-0.75 h 1.157 0.296 c 0.414,0 0.75,0.336 0.75,0.75 0,0.414 -0.336,0.75 -0.75,0.75 H 1.907 0.75 C 0.336,0.75 0,0.414 0,0"
         style="fill:#008000;fill-opacity:1;fill-rule:nonzero;stroke:none"
         id="path772"
         inkscape:connector-curvature="0" />
    </g>
    <g
       id="g774"
       transform="matrix(0.1020563,0,0,-0.08701444,83.204482,148.51602)"
       style="fill:#008000">
      <path
         d="m 0,0 h -0.75 -0.704 c -0.414,0 -0.75,-0.336 -0.75,-0.75 0,-0.414 0.336,-0.75 0.75,-0.75 H -0.75 0 c 0.414,0 0.75,0.336 0.75,0.75 C 0.75,-0.336 0.414,0 0,0"
         style="fill:#008000;fill-opacity:1;fill-rule:nonzero;stroke:none"
         id="path776"
         inkscape:connector-curvature="0" />
    </g>
    <g
       id="g778"
       transform="matrix(0.1020563,0,0,-0.08701444,77.504576,145.69974)"
       style="fill:#008000">
      <path
         d="M 0,0 H 0.75 6.649 V 1.5 H 0.75 0 C -0.414,1.5 -0.75,1.164 -0.75,0.75 -0.75,0.336 -0.414,0 0,0"
         style="fill:#008000;fill-opacity:1;fill-rule:nonzero;stroke:none"
         id="path780"
         inkscape:connector-curvature="0" />
    </g>
    <g
       id="g782"
       transform="matrix(0.1020563,0,0,-0.08701444,79.014888,145.56921)"
       style="fill:#008000">
      <path
         d="M 0,0 H -0.75 -6.649 V -1.5 H -0.75 0 c 0.414,0 0.75,0.336 0.75,0.75 C 0.75,-0.336 0.414,0 0,0"
         style="fill:#008000;fill-opacity:1;fill-rule:nonzero;stroke:none"
         id="path784"
         inkscape:connector-curvature="0" />
    </g>
    <g
       id="g786"
       transform="matrix(0.1020563,0,0,-0.08701444,78.18319,144.75642)"
       style="fill:#008000">
      <path
         d="m 0,0 v -0.75 -8.591 -1.5 -8.59 -0.75 c 0,-0.414 0.336,-0.75 0.75,-0.75 0.414,0 0.75,0.336 0.75,0.75 v 0.75 8.59 1.5 V -0.75 0 C 1.5,0.414 1.164,0.75 0.75,0.75 0.336,0.75 0,0.414 0,0"
         style="fill:#008000;fill-opacity:1;fill-rule:nonzero;stroke:none"
         id="path788"
         inkscape:connector-curvature="0" />
    </g>
    <g
       id="g790"
       transform="matrix(0.1020563,0,0,-0.08701444,79.014888,147.85746)"
       style="fill:#008000">
      <path
         d="M 0,0 H -0.75 -6.649 V -1.5 H -0.75 0 c 0.414,0 0.75,0.336 0.75,0.75 C 0.75,-0.336 0.414,0 0,0"
         style="fill:#008000;fill-opacity:1;fill-rule:nonzero;stroke:none"
         id="path792"
         inkscape:connector-curvature="0" />
    </g>
    <g
       id="g794"
       transform="matrix(0.1020563,0,0,-0.08701444,77.504576,147.98798)"
       style="fill:#008000">
      <path
         d="M 0,0 H 0.75 6.649 V 1.5 H 0.75 0 C -0.414,1.5 -0.75,1.164 -0.75,0.75 -0.75,0.336 -0.414,0 0,0"
         style="fill:#008000;fill-opacity:1;fill-rule:nonzero;stroke:none"
         id="path796"
         inkscape:connector-curvature="0" />
    </g>
    <g
       id="g798"
       transform="matrix(0.1020563,0,0,-0.08701444,78.18319,147.04472)"
       style="fill:#008000">
      <path
         d="m 0,0 v -0.75 -8.59 -1.5 -8.591 -0.75 c 0,-0.414 0.336,-0.75 0.75,-0.75 0.414,0 0.75,0.336 0.75,0.75 v 0.75 8.591 1.5 8.59 V 0 C 1.5,0.414 1.164,0.75 0.75,0.75 0.336,0.75 0,0.414 0,0"
         style="fill:#008000;fill-opacity:1;fill-rule:nonzero;stroke:none"
         id="path800"
         inkscape:connector-curvature="0" />
    </g>
    <g
       id="g802"
       transform="matrix(0.1020563,0,0,-0.08701444,80.839441,147.85746)"
       style="fill:#008000">
      <path
         d="M 0,0 H -0.75 -6.649 V -1.5 H -0.75 0 c 0.414,0 0.75,0.336 0.75,0.75 C 0.75,-0.336 0.414,0 0,0"
         style="fill:#008000;fill-opacity:1;fill-rule:nonzero;stroke:none"
         id="path804"
         inkscape:connector-curvature="0" />
    </g>
    <g
       id="g806"
       transform="matrix(0.1020563,0,0,-0.08701444,79.32913,147.98798)"
       style="fill:#008000">
      <path
         d="M 0,0 H 0.75 6.649 V 1.5 H 0.75 0 C -0.414,1.5 -0.75,1.164 -0.75,0.75 -0.75,0.336 -0.414,0 0,0"
         style="fill:#008000;fill-opacity:1;fill-rule:nonzero;stroke:none"
         id="path808"
         inkscape:connector-curvature="0" />
    </g>
    <g
       id="g810"
       transform="matrix(0.1020563,0,0,-0.08701444,80.160829,148.80073)"
       style="fill:#008000">
      <path
         d="m 0,0 v 0.75 8.59 1.5 8.591 0.75 c 0,0.414 -0.336,0.75 -0.75,0.75 -0.414,0 -0.75,-0.336 -0.75,-0.75 V 19.431 10.84 9.34 0.75 0 c 0,-0.414 0.336,-0.75 0.75,-0.75 C -0.336,-0.75 0,-0.414 0,0"
         style="fill:#008000;fill-opacity:1;fill-rule:nonzero;stroke:none"
         id="path812"
         inkscape:connector-curvature="0" />
    </g>
    <g
       id="g814"
       transform="matrix(0.1020563,0,0,-0.08701444,81.153591,147.98798)"
       style="fill:#008000">
      <path
         d="m 0,0 h 0.75 5.9 V 1.5 H 0.75 0 C -0.414,1.5 -0.75,1.164 -0.75,0.75 -0.75,0.336 -0.414,0 0,0"
         style="fill:#008000;fill-opacity:1;fill-rule:nonzero;stroke:none"
         id="path816"
         inkscape:connector-curvature="0" />
    </g>
    <g
       id="g818"
       transform="matrix(0.1020563,0,0,-0.08701444,82.664004,147.85746)"
       style="fill:#008000">
      <path
         d="M 0,0 H -0.75 -6.649 V -1.5 H -0.75 0 c 0.414,0 0.75,0.336 0.75,0.75 C 0.75,-0.336 0.414,0 0,0"
         style="fill:#008000;fill-opacity:1;fill-rule:nonzero;stroke:none"
         id="path820"
         inkscape:connector-curvature="0" />
    </g>
    <g
       id="g822"
       transform="matrix(0.1020563,0,0,-0.08701444,81.985391,148.80073)"
       style="fill:#008000">
      <path
         d="m 0,0 v 0.75 8.59 1.5 8.591 0.75 c 0,0.414 -0.336,0.75 -0.75,0.75 -0.414,0 -0.75,-0.336 -0.75,-0.75 V 19.431 10.84 9.34 0.75 0 c 0,-0.414 0.336,-0.75 0.75,-0.75 C -0.336,-0.75 0,-0.414 0,0"
         style="fill:#008000;fill-opacity:1;fill-rule:nonzero;stroke:none"
         id="path824"
         inkscape:connector-curvature="0" />
    </g>
    <g
       id="g826"
       transform="matrix(0.1020563,0,0,-0.08701444,79.32913,145.69974)"
       style="fill:#008000">
      <path
         d="M 0,0 H 0.75 6.649 V 1.5 H 0.75 0 C -0.414,1.5 -0.75,1.164 -0.75,0.75 -0.75,0.336 -0.414,0 0,0"
         style="fill:#008000;fill-opacity:1;fill-rule:nonzero;stroke:none"
         id="path828"
         inkscape:connector-curvature="0" />
    </g>
    <g
       id="g830"
       transform="matrix(0.1020563,0,0,-0.08701444,80.839441,145.56921)"
       style="fill:#008000">
      <path
         d="M 0,0 H -0.75 -6.649 V -1.5 H -0.75 0 c 0.414,0 0.75,0.336 0.75,0.75 C 0.75,-0.336 0.414,0 0,0"
         style="fill:#008000;fill-opacity:1;fill-rule:nonzero;stroke:none"
         id="path832"
         inkscape:connector-curvature="0" />
    </g>
    <g
       id="g834"
       transform="matrix(0.1020563,0,0,-0.08701444,80.160829,146.51247)"
       style="fill:#008000">
      <path
         d="m 0,0 v 0.75 8.59 1.5 8.591 0.75 c 0,0.414 -0.336,0.75 -0.75,0.75 -0.414,0 -0.75,-0.336 -0.75,-0.75 V 19.431 10.84 9.34 0.75 0 c 0,-0.414 0.336,-0.75 0.75,-0.75 C -0.336,-0.75 0,-0.414 0,0"
         style="fill:#008000;fill-opacity:1;fill-rule:nonzero;stroke:none"
         id="path836"
         inkscape:connector-curvature="0" />
    </g>
    <g
       id="g838"
       transform="matrix(0.1020563,0,0,-0.08701444,81.153591,145.69974)"
       style="fill:#008000">
      <path
         d="m 0,0 h 0.75 5.9 V 1.5 H 0.75 0 C -0.414,1.5 -0.75,1.164 -0.75,0.75 -0.75,0.336 -0.414,0 0,0"
         style="fill:#008000;fill-opacity:1;fill-rule:nonzero;stroke:none"
         id="path840"
         inkscape:connector-curvature="0" />
    </g>
    <g
       id="g842"
       transform="matrix(0.1020563,0,0,-0.08701444,82.664004,145.56921)"
       style="fill:#008000">
      <path
         d="M 0,0 H -0.75 -6.649 V -1.5 H -0.75 0 c 0.414,0 0.75,0.336 0.75,0.75 C 0.75,-0.336 0.414,0 0,0"
         style="fill:#008000;fill-opacity:1;fill-rule:nonzero;stroke:none"
         id="path844"
         inkscape:connector-curvature="0" />
    </g>
    <g
       id="g846"
       transform="matrix(0.1020563,0,0,-0.08701444,81.985391,146.51247)"
       style="fill:#008000">
      <path
         d="m 0,0 v 0.75 8.59 1.5 8.591 0.75 c 0,0.414 -0.336,0.75 -0.75,0.75 -0.414,0 -0.75,-0.336 -0.75,-0.75 V 19.431 10.84 9.34 0.75 0 c 0,-0.414 0.336,-0.75 0.75,-0.75 C -0.336,-0.75 0,-0.414 0,0"
         style="fill:#008000;fill-opacity:1;fill-rule:nonzero;stroke:none"
         id="path848"
         inkscape:connector-curvature="0" />
    </g>
    <g
       id="g850"
       transform="matrix(0.1020563,0,0,-0.08701444,76.935696,143.45338)"
       style="fill:#008000">
      <path
         d="M 0,0 C 0.293,-0.293 0.768,-0.293 1.061,0 L 2.229,1.168 7.392,6.332 V 1.168 0.53 c 0,-0.303 0.182,-0.576 0.462,-0.693 C 8.135,-0.279 8.457,-0.214 8.672,0 L 9.84,1.168 15.004,6.332 V 1.168 0.53 c 0,-0.303 0.183,-0.576 0.463,-0.693 0.281,-0.116 0.602,-0.051 0.817,0.163 l 1.169,1.168 5.162,5.164 V 1.168 0.53 c 0,-0.303 0.183,-0.576 0.463,-0.693 0.28,-0.116 0.603,-0.051 0.818,0.163 l 1.168,1.168 5.164,5.164 V 1.168 0.53 c 0,-0.303 0.182,-0.576 0.462,-0.693 0.281,-0.116 0.603,-0.051 0.818,0.163 l 1.168,1.168 5.163,5.164 V 1.168 0.53 c 0,-0.303 0.182,-0.576 0.463,-0.693 0.28,-0.116 0.602,-0.051 0.817,0.163 l 1.169,1.168 5.163,5.164 V 1.168 0.53 c 0,-0.303 0.183,-0.576 0.463,-0.693 0.28,-0.116 0.603,-0.051 0.817,0.163 l 1.169,1.168 1.359,1.359 10e-4,0.002 3.803,3.803 V 1.168 0.53 c 0,-0.303 0.183,-0.576 0.463,-0.693 0.281,-0.116 0.603,-0.051 0.818,0.163 l 1.168,1.168 2.524,2.525 0.142,0.142 2.497,2.497 V 1.168 0.418 c 0,-0.414 0.336,-0.75 0.75,-0.75 0.414,0 0.75,0.336 0.75,0.75 v 7.724 c 0,0.303 -0.183,0.577 -0.463,0.693 -0.281,0.116 -0.603,0.052 -0.817,-0.163 l -2.554,-2.554 -1.5,-1.5 -2.278,-2.277 v 5.801 c 0,0.303 -0.182,0.577 -0.462,0.693 -0.281,0.116 -0.603,0.052 -0.818,-0.163 l -3.804,-3.803 -1.5,-1.5 -1.028,-1.028 v 5.801 c 0,0.303 -0.182,0.577 -0.463,0.693 -0.28,0.116 -0.602,0.052 -0.817,-0.163 L 39.339,2.341 v 5.801 c 0,0.303 -0.183,0.577 -0.463,0.693 -0.28,0.116 -0.603,0.052 -0.817,-0.163 L 31.728,2.341 v 5.801 c 0,0.303 -0.183,0.577 -0.463,0.693 -0.281,0.116 -0.603,0.052 -0.818,-0.163 L 24.115,2.341 v 5.801 c 0,0.303 -0.182,0.577 -0.463,0.693 -0.28,0.116 -0.602,0.052 -0.817,-0.163 L 16.504,2.341 v 5.801 c 0,0.303 -0.183,0.577 -0.463,0.693 -0.28,0.116 -0.603,0.052 -0.817,-0.163 L 8.892,2.341 V 8.142 C 8.892,8.445 8.709,8.719 8.429,8.835 8.148,8.951 7.826,8.887 7.611,8.672 L 0.065,1.125 0,1.061 C -0.293,0.768 -0.293,0.293 0,0"
         style="fill:#008000;fill-opacity:1;fill-rule:nonzero;stroke:none"
         id="path852"
         inkscape:connector-curvature="0" />
    </g>
    <g
       id="g854"
       transform="matrix(0.1020563,0,0,-0.08701444,77.504576,149.37091)"
       style="fill:#008000">
      <path
         d="m 0,0 h 0.75 49.055 0.75 c 0.414,0 0.75,0.336 0.75,0.75 0,0.414 -0.336,0.75 -0.75,0.75 H 49.805 0.75 0 C -0.414,1.5 -0.75,1.164 -0.75,0.75 -0.75,0.336 -0.414,0 0,0"
         style="fill:#008000;fill-opacity:1;fill-rule:nonzero;stroke:none"
         id="path856"
         inkscape:connector-curvature="0" />
    </g>
    <g
       id="g858"
       transform="matrix(0.1020563,0,0,-0.08701444,77.504576,149.56096)"
       style="fill:#008000">
      <path
         d="m 0,0 h 0.75 49.055 0.75 c 0.414,0 0.75,0.336 0.75,0.75 0,0.414 -0.336,0.75 -0.75,0.75 H 49.805 0.75 0 C -0.414,1.5 -0.75,1.164 -0.75,0.75 -0.75,0.336 -0.414,0 0,0"
         style="fill:#008000;fill-opacity:1;fill-rule:nonzero;stroke:none"
         id="path860"
         inkscape:connector-curvature="0" />
    </g>
    <g
       id="g862"
       transform="matrix(0.1020563,0,0,-0.08701444,77.504576,149.75105)"
       style="fill:#008000">
      <path
         d="m 0,0 h 0.75 49.055 0.75 c 0.414,0 0.75,0.336 0.75,0.75 0,0.414 -0.336,0.75 -0.75,0.75 H 49.805 0.75 0 C -0.414,1.5 -0.75,1.164 -0.75,0.75 -0.75,0.336 -0.414,0 0,0"
         style="fill:#008000;fill-opacity:1;fill-rule:nonzero;stroke:none"
         id="path864"
         inkscape:connector-curvature="0" />
    </g>
    <g
       id="g866"
       transform="matrix(0.1020563,0,0,-0.08701444,77.504576,149.94114)"
       style="fill:#008000">
      <path
         d="m 0,0 h 0.75 49.055 0.75 c 0.414,0 0.75,0.336 0.75,0.75 0,0.414 -0.336,0.75 -0.75,0.75 H 49.805 0.75 0 C -0.414,1.5 -0.75,1.164 -0.75,0.75 -0.75,0.336 -0.414,0 0,0"
         style="fill:#008000;fill-opacity:1;fill-rule:nonzero;stroke:none"
         id="path868"
         inkscape:connector-curvature="0" />
    </g>
  </g>
</svg>
